<svg width="2030" height="861" viewBox="0 0 2030 861" fill="none" xmlns="http://www.w3.org/2000/svg">
<rect width="2030" height="861" fill="#1E1E1E"/>
<g clip-path="url(#clip0_0_1)">
<path d="M-286.886 -256.731C147.915 33.0315 526.462 -535.285 840.557 -555.974C1293.22 -585.776 1413.62 -50.353 1634.63 -290.86C1855.63 -531.366 2063.6 -741.195 2276.21 -358.176C2488.82 24.8434 2675.53 -179.102 2675.53 -179.102" stroke="white" stroke-opacity="0.1" stroke-width="0.6482" stroke-miterlimit="10"/>
<path d="M2675.11 -188.928C2671.28 -190.428 2477.83 20.6212 2264.95 -353.908C2052.06 -728.436 1850.1 -538.949 1628.47 -302.889C1406.21 -66.7341 1285.43 -572.699 829.643 -544.057C514.086 -524.123 141.113 12.8606 -285.862 -273.915" stroke="white" stroke-opacity="0.1" stroke-width="0.6553" stroke-miterlimit="10"/>
<path d="M2674.65 -198.705C2666.99 -201.706 2466.77 16.439 2253.63 -349.591C2040.5 -715.62 1844.55 -546.475 1622.26 -314.869C1398.75 -83.0667 1277.62 -559.593 818.683 -532.093C501.701 -512.932 134.291 -7.34779 -284.81 -291.091" stroke="white" stroke-opacity="0.1" stroke-width="0.6623" stroke-miterlimit="10"/>
<path d="M2674.23 -208.502C2662.73 -213.003 2455.77 12.2454 2242.36 -345.294C2028.94 -702.833 1839.01 -554.03 1616.05 -326.85C1391.26 -99.4078 1269.82 -546.459 807.723 -520.128C489.325 -501.769 127.488 -27.5187 -283.777 -308.304" stroke="white" stroke-opacity="0.1" stroke-width="0.6694" stroke-miterlimit="10"/>
<path d="M2673.78 -218.308C2658.48 -224.301 2444.72 8.03461 2231.06 -341.005C2017.39 -690.045 1833.97 -561.059 1609.85 -338.859C1384.31 -115.272 1262.05 -533.373 796.763 -508.163C476.941 -490.578 120.657 -47.6984 -282.725 -325.479" stroke="white" stroke-opacity="0.1" stroke-width="0.6764" stroke-miterlimit="10"/>
<path d="M2673.32 -228.085C2654.19 -235.607 2433.69 3.86102 2219.74 -336.688C2005.84 -677.257 1828.52 -568.493 1603.64 -350.839C1376.97 -131.475 1254.24 -520.239 785.811 -496.227C464.565 -479.416 113.864 -67.8981 -281.672 -342.655" stroke="white" stroke-opacity="0.1" stroke-width="0.6835" stroke-miterlimit="10"/>
<path d="M2672.9 -237.882C2649.94 -246.905 2422.66 -0.341068 2208.47 -332.391C1994.29 -664.47 1823.09 -575.919 1597.44 -362.849C1369.61 -147.716 1246.45 -507.162 774.86 -484.29C452.181 -468.225 107.033 -88.0777 -280.64 -359.868" stroke="white" stroke-opacity="0.1" stroke-width="0.6905" stroke-miterlimit="10"/>
<path d="M2672.44 -247.688C2645.65 -258.211 2411.64 -4.54318 2197.18 -328.131C1982.71 -651.719 1817.64 -583.352 1591.25 -374.858C1362.25 -163.956 1238.65 -494.056 763.908 -472.354C439.796 -457.034 100.239 -108.277 -279.588 -377.043" stroke="white" stroke-opacity="0.1" stroke-width="0.6976" stroke-miterlimit="10"/>
<path d="M2671.99 -257.494C2641.37 -269.518 2400.58 -8.75411 2185.87 -323.843C1971.15 -638.903 1812.16 -590.795 1585.04 -386.838C1354.88 -180.168 1230.85 -480.95 752.948 -460.389C427.392 -445.88 93.4085 -128.457 -278.564 -394.228" stroke="white" stroke-opacity="0.1" stroke-width="0.7046" stroke-miterlimit="10"/>
<path d="M2671.56 -267.263C2637.1 -280.787 2389.58 -12.9191 2174.59 -319.517C1959.6 -626.115 1806.7 -598.201 1578.84 -398.847C1347.51 -196.408 1223.06 -467.873 741.996 -448.453C415.007 -434.689 86.6149 -148.657 -277.503 -411.432" stroke="white" stroke-opacity="0.1" stroke-width="0.7117" stroke-miterlimit="10"/>
<path d="M2671.11 -277.069C2632.82 -292.093 2378.52 -17.1299 2163.29 -315.229C1948.05 -613.328 1801.22 -605.643 1572.64 -410.857C1340.12 -212.658 1215.25 -454.768 731.065 -436.479C402.66 -423.518 79.8127 -168.828 -276.45 -428.608" stroke="white" stroke-opacity="0.1" stroke-width="0.7187" stroke-miterlimit="10"/>
<path d="M2670.66 -286.874C2628.56 -303.391 2367.5 -21.3321 2151.98 -310.94C1936.5 -600.54 1795.74 -613.086 1566.43 -422.837C1332.73 -228.907 1207.48 -441.653 720.113 -424.543C390.247 -412.336 72.9818 -189.008 -275.426 -445.792" stroke="white" stroke-opacity="0.1" stroke-width="0.7257" stroke-miterlimit="10"/>
<path d="M2670.24 -296.672C2624.31 -314.688 2356.47 -25.5343 2140.71 -306.643C1924.94 -587.753 1790.23 -620.538 1560.23 -434.846C1325.31 -245.165 1199.65 -428.556 709.133 -412.616C377.871 -401.174 66.1882 -209.207 -274.365 -462.996" stroke="white" stroke-opacity="0.1" stroke-width="0.7328" stroke-miterlimit="10"/>
<path d="M2669.78 -306.449C2620.03 -325.995 2345.44 -29.7078 2129.4 -302.326C1913.35 -574.945 1784.72 -627.989 1554.03 -446.827C1317.91 -261.385 1191.85 -415.451 698.173 -400.651C365.486 -389.983 59.3573 -229.387 -273.342 -480.18" stroke="white" stroke-opacity="0.1" stroke-width="0.7398" stroke-miterlimit="10"/>
<path d="M2669.35 -316.246C2615.77 -337.292 2334.41 -33.9099 2118.12 -298.029C1901.81 -562.186 1779.21 -635.44 1547.86 -458.827C1310.53 -277.663 1184.11 -402.328 687.25 -388.706C353.11 -378.82 52.5638 -249.586 -272.289 -497.356" stroke="white" stroke-opacity="0.1" stroke-width="0.7469" stroke-miterlimit="10"/>
<path d="M2668.9 -326.052C2611.49 -348.598 2323.38 -38.0834 2106.82 -293.741C1890.26 -549.398 1773.71 -642.92 1541.66 -470.836C1303.08 -293.929 1176.28 -389.231 676.29 -376.741C340.726 -367.629 45.7329 -269.766 -271.228 -514.56" stroke="white" stroke-opacity="0.1" stroke-width="0.7539" stroke-miterlimit="10"/>
<path d="M2668.44 -335.829C2607.19 -359.876 2312.32 -42.2656 2095.52 -289.452C1878.71 -536.639 1768.17 -650.38 1535.45 -482.817C1295.66 -310.187 1168.51 -376.116 665.367 -364.796C328.35 -356.467 38.968 -289.957 -270.176 -531.736" stroke="white" stroke-opacity="0.1" stroke-width="0.761" stroke-miterlimit="10"/>
<path d="M2668.02 -345.626C2602.94 -371.174 2301.29 -46.4679 2084.24 -285.155C1867.15 -523.823 1762.67 -657.86 1529.25 -494.826C1288.21 -326.454 1160.71 -363.039 654.415 -352.86C315.937 -345.285 32.1084 -310.146 -269.152 -548.92" stroke="white" stroke-opacity="0.1" stroke-width="0.768" stroke-miterlimit="10"/>
<path d="M2667.57 -355.432C2598.65 -382.48 2290.27 -50.6702 2072.94 -280.867C1855.6 -511.035 1757.1 -665.329 1523.05 -506.835C1280.77 -342.749 1152.91 -349.934 643.464 -340.924C303.589 -334.114 25.3149 -330.345 -268.091 -566.124" stroke="white" stroke-opacity="0.1" stroke-width="0.7751" stroke-miterlimit="10"/>
<path d="M2667.12 -365.238C2594.4 -393.778 2279.21 -54.881 2061.63 -276.579C1844.03 -498.285 1751.54 -672.826 1516.85 -518.844C1273.31 -359.053 1145.12 -336.856 632.512 -328.987C291.185 -322.96 18.5213 -350.545 -267.058 -583.337" stroke="white" stroke-opacity="0.1" stroke-width="0.7821" stroke-miterlimit="10"/>
<path d="M2666.68 -375.007C2590.13 -405.047 2268.21 -59.0457 2050.35 -272.253C1832.47 -485.469 1745.99 -680.324 1510.64 -530.825C1265.83 -375.328 1137.31 -323.722 621.544 -316.994C278.792 -311.741 11.6818 -370.696 -266.014 -600.484" stroke="white" stroke-opacity="0.1" stroke-width="0.7892" stroke-miterlimit="10"/>
<path d="M2666.23 -384.813C2585.86 -416.382 2257.15 -63.2567 2039.05 -267.965C1820.91 -472.681 1740.43 -687.821 1504.44 -542.805C1258.36 -391.632 1129.51 -310.616 610.592 -305.058C266.416 -300.578 4.85948 -390.904 -264.991 -617.669" stroke="white" stroke-opacity="0.1" stroke-width="0.7962" stroke-miterlimit="10"/>
<path d="M2665.78 -394.618C2581.6 -427.651 2246.13 -67.4589 2027.74 -263.676C1809.36 -459.894 1734.87 -695.318 1498.24 -554.815C1250.89 -407.935 1121.72 -297.539 599.64 -293.121C254.04 -289.416 -1.94275 -411.075 -263.929 -634.873" stroke="white" stroke-opacity="0.1" stroke-width="0.8033" stroke-miterlimit="10"/>
<path d="M2665.35 -404.387C2577.31 -438.957 2235.09 -71.6323 2016.43 -259.359C1797.78 -447.114 1729.29 -702.853 1492.04 -566.824C1243.4 -424.276 1113.92 -284.434 588.689 -281.185C241.635 -278.262 -8.76499 -431.283 -262.897 -652.086" stroke="white" stroke-opacity="0.1" stroke-width="0.8103" stroke-miterlimit="10"/>
<path d="M2664.9 -414.193C2573.03 -450.263 2224.07 -75.8345 2005.13 -255.071C1786.23 -434.327 1723.7 -710.359 1485.83 -578.804C1235.91 -440.589 1106.14 -271.319 577.729 -269.22C229.242 -267.043 -15.5672 -451.454 -261.845 -669.261" stroke="white" stroke-opacity="0.1" stroke-width="0.8173" stroke-miterlimit="10"/>
<path d="M2664.48 -423.99C2568.77 -461.561 2213.04 -80.0368 1993.86 -250.802C1774.68 -421.539 1718.13 -717.894 1479.63 -590.813C1228.42 -456.93 1098.34 -258.214 566.777 -257.284C216.866 -255.88 -22.3694 -471.625 -260.792 -686.437" stroke="white" stroke-opacity="0.1" stroke-width="0.8244" stroke-miterlimit="10"/>
<path d="M2664.03 -433.796C2564.49 -472.867 2202.02 -84.2391 1982.55 -246.485C1763.12 -408.752 1712.53 -725.466 1473.42 -602.794C1220.92 -473.243 1090.54 -245.108 555.817 -245.319C204.482 -244.689 -29.2003 -491.805 -259.768 -703.621" stroke="white" stroke-opacity="0.1" stroke-width="0.8314" stroke-miterlimit="10"/>
<path d="M2663.57 -443.573C2560.22 -484.136 2190.96 -88.4211 1971.25 -242.197C1751.57 -395.964 1706.92 -733.009 1467.23 -614.803C1213.41 -489.621 1082.74 -232.002 544.866 -233.383C192.077 -233.536 -36.0226 -512.014 -258.736 -720.834" stroke="white" stroke-opacity="0.1" stroke-width="0.8385" stroke-miterlimit="10"/>
<path d="M2663.14 -453.37C2555.98 -495.462 2179.93 -92.6233 1959.97 -237.9C1740.02 -383.176 1701.32 -740.581 1461.05 -626.803C1205.93 -505.991 1074.98 -218.917 533.943 -221.438C179.721 -222.336 -42.8248 -532.185 -257.655 -738.001" stroke="white" stroke-opacity="0.1" stroke-width="0.8455" stroke-miterlimit="10"/>
<path d="M2662.69 -463.176C2551.68 -506.74 2168.9 -96.8256 1948.67 -233.611C1728.44 -370.397 1695.73 -748.153 1454.85 -638.784C1198.42 -522.369 1067.17 -205.782 522.983 -209.473C167.346 -211.174 -49.6184 -552.384 -256.631 -755.185" stroke="white" stroke-opacity="0.1" stroke-width="0.8526" stroke-miterlimit="10"/>
<path d="M2662.24 -472.982C2547.41 -518.075 2157.88 -101.028 1937.37 -229.323C1716.89 -357.61 1690.11 -755.762 1448.62 -650.802C1190.86 -538.765 1059.35 -192.714 512.002 -197.546C154.961 -199.983 -56.4492 -572.564 -255.578 -772.361" stroke="white" stroke-opacity="0.1" stroke-width="0.8596" stroke-miterlimit="10"/>
<path d="M2661.81 -482.75C2543.15 -529.344 2146.85 -105.201 1926.09 -225.026C1705.33 -344.822 1684.52 -763.363 1442.45 -662.802C1183.36 -555.172 1051.57 -179.599 501.071 -185.572C142.585 -188.82 -63.2428 -592.764 -254.546 -789.574" stroke="white" stroke-opacity="0.1" stroke-width="0.8667" stroke-miterlimit="10"/>
<path d="M2661.36 -492.556C2538.86 -540.65 2135.79 -109.412 1914.78 -220.709C1693.78 -332.034 1678.89 -770.944 1436.24 -674.783C1175.83 -571.588 1043.77 -166.494 490.119 -173.636C130.172 -177.638 -70.0737 -612.943 -253.494 -806.75" stroke="white" stroke-opacity="0.1" stroke-width="0.8737" stroke-miterlimit="10"/>
<path d="M2660.91 -502.362C2534.61 -551.948 2124.77 -113.614 1903.48 -216.42C1682.23 -319.247 1673.28 -778.582 1430.04 -686.792C1168.3 -588.004 1035.97 -153.388 479.159 -161.671C117.787 -166.447 -76.8673 -633.143 -252.441 -823.925" stroke="white" stroke-opacity="0.1" stroke-width="0.8808" stroke-miterlimit="10"/>
<path d="M2660.47 -512.131C2530.34 -563.217 2113.73 -117.788 1892.2 -212.123C1670.65 -306.468 1667.67 -786.22 1423.83 -698.772C1160.78 -604.448 1028.17 -140.282 468.208 -149.735C105.411 -155.285 -83.6981 -653.323 -251.409 -841.138" stroke="white" stroke-opacity="0.1" stroke-width="0.8878" stroke-miterlimit="10"/>
<path d="M2660.02 -521.937C2526.06 -574.523 2102.71 -121.99 1880.9 -207.835C1659.09 -293.68 1662.03 -793.866 1417.64 -710.782C1153.24 -620.93 1020.41 -127.197 457.285 -137.79C93.027 -144.094 -90.5004 -673.494 -250.356 -858.314" stroke="white" stroke-opacity="0.1" stroke-width="0.8949" stroke-miterlimit="10"/>
<path d="M2659.57 -531.743C2521.77 -585.83 2091.65 -126.201 1869.6 -203.547C1647.54 -280.893 1656.42 -801.504 1411.44 -722.791C1145.73 -637.403 1012.61 -114.091 446.333 -125.853C80.6512 -132.931 -97.3226 -693.702 -249.332 -875.498" stroke="white" stroke-opacity="0.1" stroke-width="0.9019" stroke-miterlimit="10"/>
<path d="M2659.15 -541.54C2517.52 -597.127 2080.66 -130.394 1858.32 -199.25C1635.99 -268.105 1650.8 -809.209 1405.24 -734.8C1138.19 -653.885 1004.81 -101.014 435.382 -113.917C68.2666 -121.741 -104.125 -713.873 -248.271 -892.702" stroke="white" stroke-opacity="0.1" stroke-width="0.9089" stroke-miterlimit="10"/>
<path d="M2658.69 -551.317C2513.23 -608.434 2069.59 -134.577 1847.01 -194.933C1624.43 -255.289 1645.19 -816.846 1399.03 -746.78C1130.65 -670.367 997.004 -87.8797 424.422 -101.952C55.8908 -110.578 -110.918 -734.073 -247.219 -909.878" stroke="white" stroke-opacity="0.1" stroke-width="0.916" stroke-miterlimit="10"/>
<path d="M2658.27 -561.114C2508.98 -619.731 2058.57 -138.779 1835.71 -190.644C1612.85 -242.51 1639.57 -824.551 1392.82 -758.761C1123.11 -686.849 989.203 -74.7739 413.461 -89.9875C43.5062 -99.3871 -117.749 -754.252 -246.195 -927.062" stroke="white" stroke-opacity="0.1" stroke-width="0.923" stroke-miterlimit="10"/>
<path d="M2657.82 -570.92C2504.72 -631.029 2047.54 -142.981 1824.43 -186.347C1601.32 -229.713 1633.98 -832.246 1386.65 -770.762C1115.62 -703.379 981.431 -61.6596 402.539 -78.0426C31.1017 -88.2335 -124.552 -774.423 -245.134 -944.267" stroke="white" stroke-opacity="0.1" stroke-width="0.9301" stroke-miterlimit="10"/>
<path d="M2657.36 -580.726C2500.44 -642.335 2036.52 -147.183 1813.13 -182.059C1589.74 -216.934 1628.37 -839.979 1380.42 -782.779C1108.08 -719.956 973.61 -48.5912 391.558 -66.115C18.7171 -77.0425 -131.374 -794.632 -244.11 -961.451" stroke="white" stroke-opacity="0.1" stroke-width="0.9371" stroke-miterlimit="10"/>
<path d="M2656.93 -590.495C2496.18 -653.604 2025.49 -151.357 1801.85 -177.733C1578.19 -204.147 1622.76 -847.711 1374.22 -794.76C1100.54 -736.466 965.809 -35.4855 380.598 -54.1501C6.34117 -65.8802 -138.176 -814.803 -243.058 -978.626" stroke="white" stroke-opacity="0.1" stroke-width="0.9442" stroke-miterlimit="10"/>
<path d="M2656.48 -600.3C2491.89 -664.911 2014.46 -155.559 1790.55 -173.473C1566.64 -191.359 1617.14 -855.444 1368.05 -806.76C1093.06 -753.025 958.037 -22.3713 369.675 -42.2054C-6.04321 -54.6893 -144.998 -835.011 -241.997 -995.831" stroke="white" stroke-opacity="0.1" stroke-width="0.9512" stroke-miterlimit="10"/>
<path d="M2656.03 -610.106C2487.64 -676.208 2003.43 -159.761 1779.24 -169.156C1555.09 -178.572 1611.47 -863.602 1361.84 -818.741C1085.47 -770.055 950.236 -9.26558 358.715 -30.2404C-18.4278 -43.4983 -151.8 -855.182 -240.973 -1013.02" stroke="white" stroke-opacity="0.1" stroke-width="0.9583" stroke-miterlimit="10"/>
<path d="M2655.6 -619.875C2483.35 -687.514 1992.4 -163.935 1767.97 -164.859C1543.53 -165.784 1605.93 -871.156 1355.64 -830.75C1078.02 -786.445 942.463 3.84882 347.764 -18.3042C-30.8036 -32.3359 -158.631 -875.362 -239.92 -1030.19" stroke="white" stroke-opacity="0.1" stroke-width="0.9653" stroke-miterlimit="10"/>
<path d="M2655.15 -629.681C2479.07 -698.821 1981.35 -168.146 1756.66 -160.571C1531.98 -152.996 1600.39 -878.711 1349.44 -842.759C1070.57 -802.806 934.671 16.9257 336.812 -6.36805C-43.1882 -21.1451 -165.425 -895.561 -238.888 -1047.4" stroke="white" stroke-opacity="0.1" stroke-width="0.9724" stroke-miterlimit="10"/>
</g>
<defs>
<clipPath id="clip0_0_1">
<rect width="1920" height="4905" fill="white" transform="translate(57 -3006)"/>
</clipPath>
</defs>
</svg>
