<svg width="1897" height="1053" viewBox="0 0 1897 1053" fill="none" xmlns="http://www.w3.org/2000/svg">
<g clip-path="url(#clip0_19_4218)">
<path d="M-343.886 1691.27C90.915 1981.03 469.462 1412.71 783.557 1392.03C1236.22 1362.22 1356.62 1897.65 1577.63 1657.14C1798.63 1416.63 2006.6 1206.8 2219.21 1589.82C2431.82 1972.84 2618.53 1768.9 2618.53 1768.9" stroke="white" stroke-opacity="0.1" stroke-width="0.6482" stroke-miterlimit="10"/>
<path d="M2618.11 1759.07C2614.28 1757.57 2420.83 1968.62 2207.95 1594.09C1995.06 1219.56 1793.1 1409.05 1571.47 1645.11C1349.21 1881.27 1228.43 1375.3 772.643 1403.94C457.086 1423.88 84.1127 1960.86 -342.862 1674.08" stroke="white" stroke-opacity="0.1" stroke-width="0.6553" stroke-miterlimit="10"/>
<path d="M2617.65 1749.3C2609.99 1746.29 2409.77 1964.44 2196.63 1598.41C1983.5 1232.38 1787.55 1401.52 1565.26 1633.13C1341.75 1864.93 1220.62 1388.41 761.683 1415.91C444.701 1435.07 77.2905 1940.65 -341.81 1656.91" stroke="white" stroke-opacity="0.1" stroke-width="0.6623" stroke-miterlimit="10"/>
<path d="M2617.23 1739.5C2605.73 1735 2398.77 1960.25 2185.36 1602.71C1971.94 1245.17 1782.01 1393.97 1559.05 1621.15C1334.26 1848.59 1212.82 1401.54 750.723 1427.87C432.325 1446.23 70.4882 1920.48 -340.777 1639.7" stroke="white" stroke-opacity="0.1" stroke-width="0.6694" stroke-miterlimit="10"/>
<path d="M2616.78 1729.69C2601.48 1723.7 2387.72 1956.03 2174.06 1606.99C1960.39 1257.96 1776.97 1386.94 1552.85 1609.14C1327.31 1832.73 1205.05 1414.63 739.762 1439.84C419.941 1457.42 63.6574 1900.3 -339.725 1622.52" stroke="white" stroke-opacity="0.1" stroke-width="0.6764" stroke-miterlimit="10"/>
<path d="M2616.32 1719.91C2597.19 1712.39 2376.69 1951.86 2162.74 1611.31C1948.84 1270.74 1771.52 1379.51 1546.64 1597.16C1319.97 1816.52 1197.24 1427.76 728.811 1451.77C407.565 1468.58 56.8638 1880.1 -338.672 1605.35" stroke="white" stroke-opacity="0.1" stroke-width="0.6835" stroke-miterlimit="10"/>
<path d="M2615.9 1710.12C2592.94 1701.09 2365.66 1947.66 2151.47 1615.61C1937.29 1283.53 1766.09 1372.08 1540.44 1585.15C1312.61 1800.28 1189.45 1440.84 717.859 1463.71C395.181 1479.77 50.0329 1859.92 -337.64 1588.13" stroke="white" stroke-opacity="0.1" stroke-width="0.6905" stroke-miterlimit="10"/>
<path d="M2615.44 1700.31C2588.65 1689.79 2354.64 1943.46 2140.18 1619.87C1925.71 1296.28 1760.64 1364.65 1534.25 1573.14C1305.25 1784.04 1181.65 1453.94 706.908 1475.65C382.796 1490.97 43.2394 1839.72 -336.588 1570.96" stroke="white" stroke-opacity="0.1" stroke-width="0.6976" stroke-miterlimit="10"/>
<path d="M2614.99 1690.51C2584.37 1678.48 2343.58 1939.25 2128.87 1624.16C1914.15 1309.1 1755.16 1357.2 1528.04 1561.16C1297.88 1767.83 1173.85 1467.05 695.948 1487.61C370.392 1502.12 36.4085 1819.54 -335.564 1553.77" stroke="white" stroke-opacity="0.1" stroke-width="0.7046" stroke-miterlimit="10"/>
<path d="M2614.56 1680.74C2580.1 1667.21 2332.58 1935.08 2117.59 1628.48C1902.6 1321.88 1749.7 1349.8 1521.84 1549.15C1290.51 1751.59 1166.06 1480.13 684.996 1499.55C358.007 1513.31 29.6149 1799.34 -334.503 1536.57" stroke="white" stroke-opacity="0.1" stroke-width="0.7117" stroke-miterlimit="10"/>
<path d="M2614.11 1670.93C2575.82 1655.91 2321.52 1930.87 2106.29 1632.77C1891.05 1334.67 1744.22 1342.36 1515.64 1537.14C1283.12 1735.34 1158.25 1493.23 674.065 1511.52C345.66 1524.48 22.8126 1779.17 -333.45 1519.39" stroke="white" stroke-opacity="0.1" stroke-width="0.7187" stroke-miterlimit="10"/>
<path d="M2613.66 1661.13C2571.56 1644.61 2310.5 1926.67 2094.98 1637.06C1879.5 1347.46 1738.74 1334.91 1509.43 1525.16C1275.73 1719.09 1150.48 1506.35 663.113 1523.46C333.247 1535.66 15.9818 1758.99 -332.426 1502.21" stroke="white" stroke-opacity="0.1" stroke-width="0.7257" stroke-miterlimit="10"/>
<path d="M2613.24 1651.33C2567.31 1633.31 2299.47 1922.47 2083.71 1641.36C1867.94 1360.25 1733.23 1327.46 1503.23 1513.15C1268.31 1702.84 1142.65 1519.44 652.133 1535.38C320.871 1546.83 9.18823 1738.79 -331.365 1485" stroke="white" stroke-opacity="0.1" stroke-width="0.7328" stroke-miterlimit="10"/>
<path d="M2612.78 1641.55C2563.03 1622.01 2288.44 1918.29 2072.4 1645.67C1856.35 1373.06 1727.72 1320.01 1497.03 1501.17C1260.91 1686.61 1134.85 1532.55 641.173 1547.35C308.486 1558.02 2.35731 1718.61 -330.342 1467.82" stroke="white" stroke-opacity="0.1" stroke-width="0.7398" stroke-miterlimit="10"/>
<path d="M2612.35 1631.75C2558.77 1610.71 2277.41 1914.09 2061.12 1649.97C1844.81 1385.81 1722.21 1312.56 1490.86 1489.17C1253.53 1670.34 1127.11 1545.67 630.25 1559.29C296.11 1569.18 -4.43623 1698.41 -329.289 1450.64" stroke="white" stroke-opacity="0.1" stroke-width="0.7469" stroke-miterlimit="10"/>
<path d="M2611.9 1621.95C2554.49 1599.4 2266.38 1909.92 2049.82 1654.26C1833.26 1398.6 1716.71 1305.08 1484.66 1477.16C1246.08 1654.07 1119.28 1558.77 619.29 1571.26C283.726 1580.37 -11.2671 1678.23 -328.228 1433.44" stroke="white" stroke-opacity="0.1" stroke-width="0.7539" stroke-miterlimit="10"/>
<path d="M2611.44 1612.17C2550.19 1588.12 2255.32 1905.73 2038.52 1658.55C1821.71 1411.36 1711.17 1297.62 1478.45 1465.18C1238.66 1637.81 1111.51 1571.88 608.367 1583.2C271.35 1591.53 -18.032 1658.04 -327.176 1416.26" stroke="white" stroke-opacity="0.1" stroke-width="0.761" stroke-miterlimit="10"/>
<path d="M2611.02 1602.37C2545.94 1576.83 2244.29 1901.53 2027.24 1662.84C1810.15 1424.18 1705.67 1290.14 1472.25 1453.17C1231.21 1621.55 1103.71 1584.96 597.415 1595.14C258.937 1602.72 -24.8916 1637.85 -326.152 1399.08" stroke="white" stroke-opacity="0.1" stroke-width="0.768" stroke-miterlimit="10"/>
<path d="M2610.57 1592.57C2541.65 1565.52 2233.27 1897.33 2015.94 1667.13C1798.6 1436.96 1700.1 1282.67 1466.05 1441.16C1223.77 1605.25 1095.91 1598.07 586.464 1607.08C246.589 1613.89 -31.6851 1617.65 -325.091 1381.88" stroke="white" stroke-opacity="0.1" stroke-width="0.7751" stroke-miterlimit="10"/>
<path d="M2610.12 1582.76C2537.4 1554.22 2222.21 1893.12 2004.63 1671.42C1787.03 1449.71 1694.54 1275.17 1459.85 1429.16C1216.31 1588.95 1088.12 1611.14 575.512 1619.01C234.185 1625.04 -38.4787 1597.46 -324.058 1364.66" stroke="white" stroke-opacity="0.1" stroke-width="0.7821" stroke-miterlimit="10"/>
<path d="M2609.68 1572.99C2533.13 1542.95 2211.21 1888.95 1993.35 1675.75C1775.47 1462.53 1688.99 1267.68 1453.64 1417.18C1208.83 1572.67 1080.31 1624.28 564.544 1631.01C221.792 1636.26 -45.3182 1577.3 -323.014 1347.52" stroke="white" stroke-opacity="0.1" stroke-width="0.7892" stroke-miterlimit="10"/>
<path d="M2609.23 1563.19C2528.86 1531.62 2200.15 1884.74 1982.05 1680.04C1763.91 1475.32 1683.43 1260.18 1447.44 1405.19C1201.36 1556.37 1072.51 1637.38 553.592 1642.94C209.416 1647.42 -52.1405 1557.1 -321.991 1330.33" stroke="white" stroke-opacity="0.1" stroke-width="0.7962" stroke-miterlimit="10"/>
<path d="M2608.78 1553.38C2524.6 1520.35 2189.13 1880.54 1970.74 1684.32C1752.36 1488.11 1677.87 1252.68 1441.24 1393.19C1193.89 1540.06 1064.72 1650.46 542.64 1654.88C197.04 1658.58 -58.9428 1536.92 -320.929 1313.13" stroke="white" stroke-opacity="0.1" stroke-width="0.8033" stroke-miterlimit="10"/>
<path d="M2608.35 1543.61C2520.31 1509.04 2178.09 1876.37 1959.43 1688.64C1740.78 1500.89 1672.29 1245.15 1435.04 1381.18C1186.4 1523.72 1056.92 1663.57 531.689 1666.81C184.635 1669.74 -65.765 1516.72 -319.897 1295.91" stroke="white" stroke-opacity="0.1" stroke-width="0.8103" stroke-miterlimit="10"/>
<path d="M2607.9 1533.81C2516.03 1497.74 2167.07 1872.17 1948.13 1692.93C1729.23 1513.67 1666.7 1237.64 1428.83 1369.2C1178.91 1507.41 1049.14 1676.68 520.729 1678.78C172.242 1680.96 -72.5672 1496.55 -318.845 1278.74" stroke="white" stroke-opacity="0.1" stroke-width="0.8173" stroke-miterlimit="10"/>
<path d="M2607.48 1524.01C2511.77 1486.44 2156.04 1867.96 1936.86 1697.2C1717.68 1526.46 1661.13 1230.11 1422.63 1357.19C1171.42 1491.07 1041.34 1689.79 509.777 1690.72C159.866 1692.12 -79.3694 1476.37 -317.792 1261.56" stroke="white" stroke-opacity="0.1" stroke-width="0.8244" stroke-miterlimit="10"/>
<path d="M2607.03 1514.2C2507.49 1475.13 2145.02 1863.76 1925.55 1701.51C1706.12 1539.25 1655.53 1222.53 1416.42 1345.21C1163.92 1474.76 1033.54 1702.89 498.817 1702.68C147.482 1703.31 -86.2003 1456.19 -316.768 1244.38" stroke="white" stroke-opacity="0.1" stroke-width="0.8314" stroke-miterlimit="10"/>
<path d="M2606.57 1504.43C2503.22 1463.86 2133.96 1859.58 1914.25 1705.8C1694.57 1552.04 1649.92 1214.99 1410.23 1333.2C1156.41 1458.38 1025.74 1716 487.866 1714.62C135.077 1714.46 -93.0226 1435.99 -315.736 1227.17" stroke="white" stroke-opacity="0.1" stroke-width="0.8385" stroke-miterlimit="10"/>
<path d="M2606.14 1494.63C2498.98 1452.54 2122.93 1855.38 1902.97 1710.1C1683.02 1564.82 1644.32 1207.42 1404.05 1321.2C1148.93 1442.01 1017.98 1729.08 476.943 1726.56C122.721 1725.66 -99.8248 1415.82 -314.655 1210" stroke="white" stroke-opacity="0.1" stroke-width="0.8455" stroke-miterlimit="10"/>
<path d="M2605.69 1484.82C2494.68 1441.26 2111.9 1851.17 1891.67 1714.39C1671.44 1577.6 1638.73 1199.85 1397.85 1309.22C1141.42 1425.63 1010.17 1742.22 465.983 1738.53C110.346 1736.83 -106.618 1395.62 -313.631 1192.81" stroke="white" stroke-opacity="0.1" stroke-width="0.8526" stroke-miterlimit="10"/>
<path d="M2605.24 1475.02C2490.41 1429.92 2100.88 1846.97 1880.37 1718.68C1659.89 1590.39 1633.11 1192.24 1391.62 1297.2C1133.86 1409.24 1002.35 1755.29 455.002 1750.45C97.961 1748.02 -113.449 1375.44 -312.578 1175.64" stroke="white" stroke-opacity="0.1" stroke-width="0.8596" stroke-miterlimit="10"/>
<path d="M2604.81 1465.25C2486.15 1418.66 2089.85 1842.8 1869.09 1722.97C1648.33 1603.18 1627.52 1184.64 1385.45 1285.2C1126.36 1392.83 994.574 1768.4 444.071 1762.43C85.5852 1759.18 -120.243 1355.24 -311.546 1158.43" stroke="white" stroke-opacity="0.1" stroke-width="0.8667" stroke-miterlimit="10"/>
<path d="M2604.36 1455.44C2481.86 1407.35 2078.79 1838.59 1857.78 1727.29C1636.78 1615.97 1621.89 1177.06 1379.24 1273.22C1118.83 1376.41 986.773 1781.51 433.119 1774.36C73.172 1770.36 -127.074 1335.06 -310.494 1141.25" stroke="white" stroke-opacity="0.1" stroke-width="0.8737" stroke-miterlimit="10"/>
<path d="M2603.91 1445.64C2477.61 1396.05 2067.77 1834.39 1846.48 1731.58C1625.23 1628.75 1616.28 1169.42 1373.04 1261.21C1111.3 1360 978.972 1794.61 422.159 1786.33C60.7875 1781.55 -133.867 1314.86 -309.441 1124.07" stroke="white" stroke-opacity="0.1" stroke-width="0.8808" stroke-miterlimit="10"/>
<path d="M2603.47 1435.87C2473.34 1384.78 2056.73 1830.21 1835.2 1735.88C1613.65 1641.53 1610.67 1161.78 1366.83 1249.23C1103.78 1343.55 971.171 1807.72 411.208 1798.27C48.4115 1792.72 -140.698 1294.68 -308.409 1106.86" stroke="white" stroke-opacity="0.1" stroke-width="0.8878" stroke-miterlimit="10"/>
<path d="M2603.02 1426.06C2469.06 1373.48 2045.71 1826.01 1823.9 1740.16C1602.09 1654.32 1605.03 1154.13 1360.64 1237.22C1096.24 1327.07 963.407 1820.8 400.285 1810.21C36.027 1803.91 -147.5 1274.51 -307.356 1089.69" stroke="white" stroke-opacity="0.1" stroke-width="0.8949" stroke-miterlimit="10"/>
<path d="M2602.57 1416.26C2464.77 1362.17 2034.65 1821.8 1812.6 1744.45C1590.54 1667.11 1599.42 1146.5 1354.44 1225.21C1088.73 1310.6 955.606 1833.91 389.333 1822.15C23.6512 1815.07 -154.323 1254.3 -306.332 1072.5" stroke="white" stroke-opacity="0.1" stroke-width="0.9019" stroke-miterlimit="10"/>
<path d="M2602.15 1406.46C2460.52 1350.87 2023.66 1817.61 1801.32 1748.75C1578.99 1679.9 1593.8 1138.79 1348.24 1213.2C1081.19 1294.11 947.814 1846.99 378.382 1834.08C11.2666 1826.26 -161.125 1234.13 -305.271 1055.3" stroke="white" stroke-opacity="0.1" stroke-width="0.9089" stroke-miterlimit="10"/>
<path d="M2601.69 1396.68C2456.23 1339.57 2012.59 1813.42 1790.01 1753.07C1567.43 1692.71 1588.19 1131.15 1342.03 1201.22C1073.65 1277.63 940.004 1860.12 367.422 1846.05C-1.10922 1837.42 -167.918 1213.93 -304.219 1038.12" stroke="white" stroke-opacity="0.1" stroke-width="0.916" stroke-miterlimit="10"/>
<path d="M2601.27 1386.89C2451.98 1328.27 2001.57 1809.22 1778.71 1757.36C1555.85 1705.49 1582.57 1123.45 1335.82 1189.24C1066.11 1261.15 932.203 1873.23 356.461 1858.01C-13.4938 1848.61 -174.749 1193.75 -303.195 1020.94" stroke="white" stroke-opacity="0.1" stroke-width="0.923" stroke-miterlimit="10"/>
<path d="M2600.82 1377.08C2447.72 1316.97 1990.54 1805.02 1767.43 1761.65C1544.32 1718.29 1576.98 1115.75 1329.65 1177.24C1058.62 1244.62 924.431 1886.34 345.539 1869.96C-25.8983 1859.77 -181.552 1173.58 -302.134 1003.73" stroke="white" stroke-opacity="0.1" stroke-width="0.9301" stroke-miterlimit="10"/>
<path d="M2600.36 1367.27C2443.44 1305.66 1979.52 1800.82 1756.13 1765.94C1532.74 1731.07 1571.37 1108.02 1323.42 1165.22C1051.08 1228.04 916.61 1899.41 334.558 1881.88C-38.2829 1870.96 -188.374 1153.37 -301.11 986.549" stroke="white" stroke-opacity="0.1" stroke-width="0.9371" stroke-miterlimit="10"/>
<path d="M2599.93 1357.51C2439.18 1294.4 1968.49 1796.64 1744.85 1770.27C1521.19 1743.85 1565.76 1100.29 1317.22 1153.24C1043.54 1211.53 908.809 1912.51 323.598 1893.85C-50.6588 1882.12 -195.176 1133.2 -300.058 969.374" stroke="white" stroke-opacity="0.1" stroke-width="0.9442" stroke-miterlimit="10"/>
<path d="M2599.48 1347.7C2434.89 1283.09 1957.46 1792.44 1733.55 1774.53C1509.64 1756.64 1560.14 1092.56 1311.05 1141.24C1036.06 1194.97 901.037 1925.63 312.675 1905.79C-63.0432 1893.31 -201.998 1112.99 -298.997 952.169" stroke="white" stroke-opacity="0.1" stroke-width="0.9512" stroke-miterlimit="10"/>
<path d="M2599.03 1337.89C2430.64 1271.79 1946.43 1788.24 1722.24 1778.84C1498.09 1769.43 1554.47 1084.4 1304.84 1129.26C1028.47 1177.94 893.236 1938.73 301.715 1917.76C-75.4278 1904.5 -208.8 1092.82 -297.973 934.985" stroke="white" stroke-opacity="0.1" stroke-width="0.9583" stroke-miterlimit="10"/>
<path d="M2598.6 1328.13C2426.35 1260.49 1935.4 1784.07 1710.97 1783.14C1486.53 1782.22 1548.93 1076.84 1298.64 1117.25C1021.02 1161.55 885.463 1951.85 290.764 1929.7C-87.8036 1915.66 -215.631 1072.64 -296.92 917.809" stroke="white" stroke-opacity="0.1" stroke-width="0.9653" stroke-miterlimit="10"/>
<path d="M2598.15 1318.32C2422.07 1249.18 1924.35 1779.85 1699.66 1787.43C1474.98 1795 1543.39 1069.29 1292.44 1105.24C1013.57 1145.19 877.671 1964.93 279.812 1941.63C-100.188 1926.85 -222.425 1052.44 -295.888 900.596" stroke="white" stroke-opacity="0.1" stroke-width="0.9724" stroke-miterlimit="10"/>
<path d="M3139.93 701.249C2614.18 1095.28 2099.61 408.211 1703.89 404.136C1133.62 398.264 1019.58 1078.84 725.477 792.268C431.401 505.73 155.771 256.823 -84.5506 752.451C-324.873 1248.08 -573.37 1005.07 -573.37 1005.07" stroke="white" stroke-opacity="0.1" stroke-width="0.6687" stroke-miterlimit="10"/>
<path d="M-573.46 996.355C-570.136 994.827 -315.29 1243.85 -74.3089 755.716C166.672 267.608 435.952 498.75 730.418 781.302C1025.42 1063.92 1141.23 409.499 1714.23 414.202C2111.17 417.528 2619.27 1077.04 3138.16 686.03" stroke="white" stroke-opacity="0.1" stroke-width="0.6738" stroke-miterlimit="10"/>
<path d="M-573.55 987.637C-566.902 984.581 -305.707 1239.57 -64.0671 758.982C177.573 278.394 440.504 491.769 735.329 770.337C1031.23 1048.99 1148.77 420.764 1724.53 424.269C2122.7 426.846 2624.3 1058.76 3136.39 670.78" stroke="white" stroke-opacity="0.1" stroke-width="0.679" stroke-miterlimit="10"/>
<path d="M-573.64 978.919C-563.667 974.335 -296.094 1235.32 -53.8254 762.248C188.443 289.18 445.056 484.788 740.24 759.372C1037.04 1034.1 1156.35 432.029 1734.86 434.336C2134.26 436.133 2629.4 1040.46 3134.63 655.56" stroke="white" stroke-opacity="0.1" stroke-width="0.6841" stroke-miterlimit="10"/>
<path d="M-573.729 970.17C-560.433 964.088 -286.511 1231 -43.5836 765.484C199.344 299.965 449.608 477.778 745.152 748.406C1042.88 1019.21 1163.9 443.264 1745.16 444.432C2145.82 445.481 2634.43 1022.21 3132.83 640.371" stroke="white" stroke-opacity="0.1" stroke-width="0.6893" stroke-miterlimit="10"/>
<path d="M-573.819 961.452C-557.199 953.842 -276.928 1226.75 -33.3418 768.749C210.244 310.751 453.621 471.426 750.063 737.441C1048.12 1004.92 1171.44 454.529 1755.46 454.499C2157.35 454.798 2639.49 1003.94 3131.06 625.151" stroke="white" stroke-opacity="0.1" stroke-width="0.6944" stroke-miterlimit="10"/>
<path d="M-573.909 952.733C-553.935 943.596 -267.345 1222.49 -23.1 772.015C221.145 321.536 458.083 464.565 755.004 726.476C1053.87 990.124 1179.05 465.794 1765.79 464.565C2168.91 464.116 2644.55 985.66 3129.3 609.901" stroke="white" stroke-opacity="0.1" stroke-width="0.6996" stroke-miterlimit="10"/>
<path d="M-573.999 944.015C-550.7 933.35 -257.732 1218.21 -12.8583 775.28C232.016 332.352 462.545 457.704 759.915 715.51C1059.59 975.353 1186.6 477.029 1776.1 474.632C2180.44 473.404 2649.61 967.384 3127.53 594.682" stroke="white" stroke-opacity="0.1" stroke-width="0.7047" stroke-miterlimit="10"/>
<path d="M-574.089 935.297C-547.466 923.103 -248.149 1213.95 -2.61647 778.546C242.916 343.137 467.037 450.844 764.827 704.545C1065.34 960.583 1194.17 488.294 1786.43 484.728C2192.03 482.751 2654.7 949.138 3125.76 579.492" stroke="white" stroke-opacity="0.1" stroke-width="0.7099" stroke-miterlimit="10"/>
<path d="M-574.149 926.578C-544.202 912.857 -238.536 1209.7 7.65514 781.812C253.847 353.923 471.529 443.983 769.768 693.609C1071.09 945.813 1201.75 499.589 1796.73 494.825C2203.55 492.099 2659.73 930.893 3123.99 564.272" stroke="white" stroke-opacity="0.1" stroke-width="0.715" stroke-miterlimit="10"/>
<path d="M-574.238 917.83C-540.968 902.58 -228.923 1205.39 17.897 785.047C264.747 364.709 476.021 437.092 774.679 682.614C1076.84 931.012 1209.33 510.794 1807.06 504.861C2215.11 501.386 2664.82 912.587 3122.23 549.022" stroke="white" stroke-opacity="0.1" stroke-width="0.7201" stroke-miterlimit="10"/>
<path d="M-574.328 909.112C-537.733 892.334 -219.341 1201.13 28.1387 788.313C275.618 375.494 480.513 430.231 779.59 671.649C1082.56 916.212 1216.87 522.059 1817.36 514.958C2226.64 510.734 2669.85 894.341 3120.46 533.833" stroke="white" stroke-opacity="0.1" stroke-width="0.7253" stroke-miterlimit="10"/>
<path d="M-574.418 900.393C-534.499 882.118 -209.758 1196.85 38.3805 791.579C286.519 386.28 484.975 423.34 784.532 660.683C1088.34 901.412 1224.45 533.323 1827.69 525.025C2238.2 520.021 2674.95 876.036 3118.69 518.613" stroke="white" stroke-opacity="0.1" stroke-width="0.7304" stroke-miterlimit="10"/>
<path d="M-574.508 891.675C-531.265 871.871 -200.145 1192.59 48.6222 794.844C297.389 397.095 489.497 416.479 789.443 649.748C1094.09 886.672 1232.02 544.588 1838 535.121C2249.76 529.369 2679.98 857.79 3116.9 503.393" stroke="white" stroke-opacity="0.1" stroke-width="0.7356" stroke-miterlimit="10"/>
<path d="M-574.598 882.957C-528.031 861.625 -190.562 1188.34 58.864 798.11C308.29 407.881 493.989 409.619 794.354 638.783C1099.87 871.871 1239.57 555.853 1848.3 545.188C2261.29 538.686 2685.04 839.515 3115.13 488.174" stroke="white" stroke-opacity="0.1" stroke-width="0.7407" stroke-miterlimit="10"/>
<path d="M-574.688 874.208C-524.797 851.349 -180.979 1184.02 69.1058 801.346C319.19 418.667 498.481 402.698 799.265 627.787C1105.62 857.041 1247.15 567.088 1858.6 555.254C2272.82 548.004 2690.1 821.239 3113.33 472.954" stroke="white" stroke-opacity="0.1" stroke-width="0.7459" stroke-miterlimit="10"/>
<path d="M-574.778 865.49C-521.562 841.103 -171.396 1179.77 79.3475 804.611C330.091 429.452 503.003 395.807 804.177 616.822C1111.37 842.241 1254.69 578.323 1868.93 565.321C2284.38 557.291 2695.16 802.963 3111.6 457.734" stroke="white" stroke-opacity="0.1" stroke-width="0.751" stroke-miterlimit="10"/>
<path d="M-574.867 856.772C-518.328 830.856 -161.783 1175.52 89.5893 807.877C340.962 440.238 507.495 388.946 809.088 605.857C1117.15 827.441 1262.24 589.588 1879.23 575.387C2295.94 566.609 2700.22 784.688 3109.8 442.485" stroke="white" stroke-opacity="0.1" stroke-width="0.7562" stroke-miterlimit="10"/>
<path d="M-574.957 848.053C-515.094 820.61 -152.2 1171.23 99.8311 811.142C351.862 451.053 512.017 382.055 814.029 594.921C1122.96 812.67 1269.85 600.883 1889.56 585.484C2307.5 575.956 2705.28 766.442 3108.06 427.295" stroke="white" stroke-opacity="0.1" stroke-width="0.7613" stroke-miterlimit="10"/>
<path d="M-575.017 839.335C-511.8 810.394 -142.587 1166.98 110.103 814.408C362.793 461.839 516.569 375.165 818.97 583.956C1128.77 797.87 1277.42 612.148 1899.9 595.58C2319.06 585.304 2710.37 748.196 3106.3 412.105" stroke="white" stroke-opacity="0.1" stroke-width="0.7664" stroke-miterlimit="10"/>
<path d="M-575.107 830.616C-508.565 800.147 -132.974 1162.69 120.344 817.674C373.693 472.625 521.121 368.274 823.881 572.99C1134.55 783.04 1285 623.383 1910.2 605.647C2330.59 594.592 2715.4 729.921 3104.53 396.886" stroke="white" stroke-opacity="0.1" stroke-width="0.7716" stroke-miterlimit="10"/>
<path d="M-575.197 821.868C-505.331 789.871 -123.391 1158.41 130.586 820.909C384.564 483.41 525.643 361.353 828.793 561.995C1140.36 768.21 1292.55 634.618 1920.5 615.683C2342.15 603.879 2720.46 711.585 3102.73 381.606" stroke="white" stroke-opacity="0.1" stroke-width="0.7767" stroke-miterlimit="10"/>
<path d="M-575.287 813.15C-502.097 779.625 -113.808 1154.15 140.828 824.175C395.465 494.196 530.195 354.462 833.704 551.06C1146.14 753.41 1300.09 645.913 1930.83 625.78C2353.71 613.227 2725.55 693.34 3100.97 366.416" stroke="white" stroke-opacity="0.1" stroke-width="0.7819" stroke-miterlimit="10"/>
<path d="M-575.376 804.431C-498.863 769.378 -104.196 1149.87 151.07 827.441C406.335 505.011 534.717 347.541 838.615 540.094C1151.95 738.609 1307.67 657.148 1941.13 635.876C2365.24 622.574 2730.59 675.094 3099.2 351.227" stroke="white" stroke-opacity="0.1" stroke-width="0.787" stroke-miterlimit="10"/>
<path d="M-575.466 795.713C-495.628 759.132 -94.6127 1145.62 161.312 830.706C417.236 515.797 539.268 340.621 843.556 529.099C1157.79 723.749 1315.25 668.383 1951.46 645.913C2376.8 631.832 2735.68 656.789 3097.43 335.947" stroke="white" stroke-opacity="0.1" stroke-width="0.7922" stroke-miterlimit="10"/>
<path d="M-575.556 786.995C-492.394 748.886 -85.0297 1141.36 171.553 833.972C428.136 526.582 543.82 333.73 848.468 518.164C1163.57 708.949 1322.82 679.678 1961.77 656.01C2388.36 641.18 2740.71 638.543 3095.67 320.757" stroke="white" stroke-opacity="0.1" stroke-width="0.7973" stroke-miterlimit="10"/>
<path d="M-575.646 778.246C-489.16 738.639 -75.4469 1137.05 181.795 837.208C439.037 537.338 548.372 326.779 853.379 507.168C1169.41 694.089 1330.37 690.883 1972.07 666.046C2399.88 650.467 2745.77 620.237 3093.87 305.508" stroke="white" stroke-opacity="0.1" stroke-width="0.8024" stroke-miterlimit="10"/>
<path d="M-575.736 769.528C-485.926 728.393 -65.8339 1132.79 192.037 840.474C449.908 548.154 552.924 319.859 858.29 496.233C1175.22 679.259 1337.95 702.178 1982.37 676.173C2411.41 659.845 2750.8 602.022 3092.1 290.348" stroke="white" stroke-opacity="0.1" stroke-width="0.8076" stroke-miterlimit="10"/>
<path d="M-575.796 760.81C-482.662 718.147 -56.221 1128.51 202.309 843.739C460.838 558.939 557.536 312.938 863.232 485.268C1181.06 664.428 1345.52 713.443 1992.7 686.239C2422.97 669.162 2755.89 583.746 3090.34 275.098" stroke="white" stroke-opacity="0.1" stroke-width="0.8127" stroke-miterlimit="10"/>
<path d="M-575.886 752.091C-479.427 707.9 -46.6381 1124.25 212.55 847.005C471.739 569.755 562.088 306.017 868.143 474.302C1186.9 649.568 1353.07 724.678 2003.03 696.306C2434.56 678.45 2760.98 565.44 3088.6 259.878" stroke="white" stroke-opacity="0.1" stroke-width="0.8179" stroke-miterlimit="10"/>
<path d="M-575.975 743.373C-476.193 697.654 -37.0252 1120 222.792 850.27C482.609 580.54 566.67 299.036 873.084 463.337C1192.73 634.738 1360.68 735.943 2013.36 706.402C2446.12 687.797 2766.04 547.195 3086.83 244.689" stroke="white" stroke-opacity="0.1" stroke-width="0.823" stroke-miterlimit="10"/>
<path d="M-576.065 734.655C-472.929 687.408 -27.4424 1115.72 233.034 853.536C493.51 591.326 571.251 292.115 877.995 452.401C1198.57 619.908 1368.22 747.238 2023.66 716.499C2457.65 697.145 2771.1 528.949 3085.03 229.499" stroke="white" stroke-opacity="0.1" stroke-width="0.8282" stroke-miterlimit="10"/>
<path d="M-576.155 725.906C-469.695 677.131 -17.8594 1111.43 243.276 856.772C504.41 602.112 575.833 285.165 882.906 441.406C1204.41 604.988 1375.8 758.443 2033.97 726.535C2469.18 706.432 2776.13 510.644 3083.27 214.219" stroke="white" stroke-opacity="0.1" stroke-width="0.8333" stroke-miterlimit="10"/>
<path d="M-576.245 717.188C-466.46 666.915 -8.27641 1107.18 253.517 860.037C515.311 612.897 580.415 278.214 887.818 430.441C1210.25 590.128 1383.35 769.708 2044.27 736.602C2480.74 715.72 2781.2 492.368 3081.47 199" stroke="white" stroke-opacity="0.1" stroke-width="0.8385" stroke-miterlimit="10"/>
<path d="M-576.335 708.47C-463.226 656.669 1.33646 1102.89 263.759 863.303C526.182 623.683 584.997 271.233 892.729 419.475C1216.09 575.237 1390.89 780.973 2054.57 746.699C2492.27 725.067 2786.23 474.122 3079.7 183.81" stroke="white" stroke-opacity="0.1" stroke-width="0.8436" stroke-miterlimit="10"/>
<path d="M-576.425 699.751C-459.992 646.422 10.9193 1098.64 274.001 866.568C537.082 634.498 589.579 264.283 897.64 408.51C1221.96 560.377 1398.47 792.238 2064.9 756.765C2503.83 734.385 2791.32 455.847 3077.94 168.59" stroke="white" stroke-opacity="0.1" stroke-width="0.8487" stroke-miterlimit="10"/>
<path d="M-576.514 691.033C-456.758 636.176 20.5023 1094.35 284.243 869.834C547.983 645.284 594.191 257.302 902.581 397.575C1227.83 545.517 1406.04 803.503 2075.23 766.862C2515.39 743.733 2796.41 437.601 3076.2 153.371" stroke="white" stroke-opacity="0.1" stroke-width="0.8539" stroke-miterlimit="10"/>
<path d="M-576.574 682.285C-453.494 625.9 30.1452 1090.07 294.514 873.04C558.884 656.01 598.802 250.261 907.523 386.549C1233.7 530.567 1413.62 814.738 2085.53 776.898C2526.92 752.99 2801.44 419.296 3074.4 138.121" stroke="white" stroke-opacity="0.1" stroke-width="0.859" stroke-miterlimit="10"/>
<path d="M-576.664 673.566C-450.259 615.654 39.7281 1085.82 304.756 876.306C569.784 666.795 603.414 243.281 912.434 375.584C1239.57 515.647 1421.2 825.973 2095.87 786.965C2538.51 762.308 2806.53 400.99 3072.64 122.901" stroke="white" stroke-opacity="0.1" stroke-width="0.8642" stroke-miterlimit="10"/>
<path d="M-576.754 664.848C-447.025 605.407 49.311 1081.53 314.998 879.571C580.685 677.611 607.996 236.3 917.345 364.619C1245.44 500.727 1428.77 837.208 2106.17 797.031C2550.04 771.625 2811.56 382.714 3070.87 107.652" stroke="white" stroke-opacity="0.1" stroke-width="0.8693" stroke-miterlimit="10"/>
<path d="M-576.844 656.13C-443.791 595.161 58.9238 1077.28 325.24 882.837C591.585 688.426 612.608 229.289 922.256 353.683C1251.31 485.837 1436.32 848.503 2116.47 807.128C2561.57 780.973 2816.62 364.469 3069.07 92.4622" stroke="white" stroke-opacity="0.1" stroke-width="0.8745" stroke-miterlimit="10"/>
<path d="M-576.934 647.411C-440.557 584.945 68.5068 1073.02 335.481 886.103C602.456 699.212 617.22 222.279 927.197 342.718C1257.18 470.917 1443.9 859.768 2126.83 817.195C2573.16 790.29 2821.71 346.193 3067.37 77.2424" stroke="white" stroke-opacity="0.1" stroke-width="0.8796" stroke-miterlimit="10"/>
<path d="M-577.023 638.663C-437.322 574.668 78.0898 1068.71 345.723 889.338C613.356 709.968 621.831 215.238 932.109 331.723C1263.05 455.967 1451.47 871.003 2137.13 827.261C2584.72 799.578 2826.77 327.918 3065.57 62.0227" stroke="white" stroke-opacity="0.1" stroke-width="0.8847" stroke-miterlimit="10"/>
<path d="M-577.113 629.944C-434.058 564.422 87.6727 1064.45 355.965 892.604C624.257 720.783 626.443 208.227 937.02 320.757C1268.92 441.017 1459.02 882.238 2147.43 837.328C2596.25 808.895 2831.84 309.642 3063.8 46.7731" stroke="white" stroke-opacity="0.1" stroke-width="0.8899" stroke-miterlimit="10"/>
<path d="M-577.203 621.226C-430.824 554.176 97.2855 1060.17 366.207 895.869C635.128 731.569 631.055 201.217 941.931 309.792C1274.79 426.067 1466.6 893.503 2157.74 847.394C2607.77 818.213 2836.87 291.366 3062.01 31.5533" stroke="white" stroke-opacity="0.1" stroke-width="0.895" stroke-miterlimit="10"/>
<path d="M-577.293 612.508C-427.59 543.929 106.869 1055.92 376.448 899.135C646.028 742.354 635.667 194.176 946.843 298.856C1280.66 411.147 1474.14 904.768 2168.04 857.491C2619.3 827.561 2841.93 273.121 3060.24 16.3636" stroke="white" stroke-opacity="0.1" stroke-width="0.9002" stroke-miterlimit="10"/>
<path d="M-577.383 603.789C-424.355 533.683 116.451 1051.66 386.69 902.401C656.929 753.17 640.279 187.136 951.754 287.891C1286.53 396.167 1481.69 916.033 2178.34 867.587C2630.86 836.878 2846.96 254.875 3058.44 1.17395" stroke="white" stroke-opacity="0.1" stroke-width="0.9053" stroke-miterlimit="10"/>
<path d="M-577.443 595.071C-421.091 523.437 126.094 1047.38 396.962 905.666C667.829 763.956 644.92 180.095 956.725 276.926C1292.46 381.187 1489.33 927.298 2188.73 877.654C2642.48 846.196 2852.11 236.57 3056.74 -14.0757" stroke="white" stroke-opacity="0.1" stroke-width="0.9105" stroke-miterlimit="10"/>
<path d="M-577.533 586.323C-417.857 513.19 135.677 1043.09 407.204 908.902C678.73 774.711 649.532 172.995 961.636 265.93C1298.33 366.177 1496.87 938.502 2199.03 887.69C2654.01 855.483 2857.14 218.264 3054.97 -29.3253" stroke="white" stroke-opacity="0.1" stroke-width="0.9156" stroke-miterlimit="10"/>
<path d="M-577.622 577.604C-414.623 502.944 145.26 1038.84 417.445 912.168C689.631 785.527 654.144 165.954 966.548 254.995C1304.23 351.227 1504.45 949.797 2209.33 897.817C2665.54 864.861 2862.2 200.048 3053.17 -44.4851" stroke="white" stroke-opacity="0.1" stroke-width="0.9208" stroke-miterlimit="10"/>
<path d="M-577.712 568.886C-411.389 492.698 154.873 1034.55 427.687 915.433C700.531 796.312 658.756 158.883 971.459 244.03C1310.1 336.247 1512 961.062 2219.64 907.883C2677.1 874.149 2867.26 181.773 3051.4 -59.7347" stroke="white" stroke-opacity="0.1" stroke-width="0.9259" stroke-miterlimit="10"/>
<path d="M-577.802 560.168C-408.154 482.451 164.456 1030.3 437.929 918.699C711.402 807.098 663.367 151.813 976.37 233.064C1315.97 321.237 1519.54 972.297 2229.94 917.95C2688.63 883.466 2872.29 163.497 3049.61 -74.9545" stroke="white" stroke-opacity="0.1" stroke-width="0.931" stroke-miterlimit="10"/>
<path d="M-577.892 551.449C-404.92 472.205 174.039 1026.02 448.171 921.964C722.302 817.913 667.979 144.712 981.281 222.099C1321.83 306.227 1527.12 983.562 2240.24 928.016C2700.16 892.784 2877.35 145.222 3047.84 -90.1741" stroke="white" stroke-opacity="0.1" stroke-width="0.9362" stroke-miterlimit="10"/>
<path d="M-577.982 542.701C-401.656 461.959 183.652 1021.73 458.412 925.23C733.203 828.699 672.591 137.612 986.222 211.134C1327.73 291.187 1534.7 994.827 2250.57 938.113C2711.72 902.131 2882.42 126.976 3046.07 -105.364" stroke="white" stroke-opacity="0.1" stroke-width="0.9413" stroke-miterlimit="10"/>
<path d="M-578.072 533.983C-398.452 451.682 193.235 1017.48 468.654 928.466C744.074 839.485 677.173 130.481 991.134 200.168C1333.6 276.147 1542.27 1006.09 2260.9 948.18C2723.31 911.419 2887.51 108.7 3044.34 -120.613" stroke="white" stroke-opacity="0.1" stroke-width="0.9465" stroke-miterlimit="10"/>
<path d="M-578.161 525.264C-395.217 441.466 202.818 1013.19 478.896 931.732C754.974 850.27 681.785 123.381 996.045 189.203C1339.47 261.107 1549.82 1017.33 2271.2 958.246C2734.84 920.736 2892.54 90.4248 3042.54 -135.833" stroke="white" stroke-opacity="0.1" stroke-width="0.9516" stroke-miterlimit="10"/>
<path d="M-578.221 516.546C-391.923 431.22 212.43 1008.94 489.168 934.997C765.875 861.056 686.426 116.28 1000.99 178.237C1345.37 246.067 1557.43 1028.59 2281.54 968.313C2746.4 930.054 2897.63 72.1192 3040.77 -151.053" stroke="white" stroke-opacity="0.1" stroke-width="0.9568" stroke-miterlimit="10"/>
<path d="M-578.311 507.828C-388.689 420.973 222.043 1004.68 499.409 938.263C776.775 871.871 691.038 109.15 1005.9 167.272C1351.21 231.027 1564.97 1039.86 2291.84 978.409C2757.93 939.401 2902.69 53.8736 3039.01 -166.242" stroke="white" stroke-opacity="0.1" stroke-width="0.9619" stroke-miterlimit="10"/>
<path d="M-578.401 499.079C-385.455 410.697 231.626 1000.37 509.651 941.498C787.676 882.627 695.62 101.989 1010.81 156.277C1357.08 215.927 1572.52 1051.06 2302.14 988.446C2769.49 948.689 2907.72 35.568 3037.21 -181.522" stroke="white" stroke-opacity="0.1" stroke-width="0.967" stroke-miterlimit="10"/>
<path d="M-578.491 490.361C-382.22 400.451 241.209 996.116 519.893 944.764C798.577 893.413 700.232 94.8589 1015.75 145.341C1362.95 200.887 1580.09 1062.36 2312.47 998.542C2781.05 958.006 2912.81 17.3224 3035.47 -196.712" stroke="white" stroke-opacity="0.1" stroke-width="0.9722" stroke-miterlimit="10"/>
<path d="M-578.581 481.642C-378.986 390.205 250.822 991.831 530.135 948.03C809.477 904.228 704.813 87.7284 1020.66 134.376C1368.82 185.787 1587.67 1073.62 2322.8 1008.61C2792.61 967.324 2917.87 -0.953217 3033.71 -211.932" stroke="white" stroke-opacity="0.1" stroke-width="0.9773" stroke-miterlimit="10"/>
<path d="M-578.671 472.924C-375.752 379.958 260.405 987.577 540.376 951.296C820.348 915.014 709.425 80.568 1025.57 123.411C1374.69 170.718 1595.25 1084.86 2333.1 1018.71C2804.13 976.672 2922.93 -19.1988 3031.94 -227.151" stroke="white" stroke-opacity="0.1" stroke-width="0.9825" stroke-miterlimit="10"/>
<path d="M-578.76 464.206C-372.518 369.712 269.988 983.323 550.618 954.561C831.248 925.799 714.067 72.8682 1030.48 112.445C1380.62 154.989 1602.79 1096.12 2343.41 1028.77C2815.66 985.989 2927.96 -37.4745 3030.14 -242.371" stroke="white" stroke-opacity="0.1" stroke-width="0.9876" stroke-miterlimit="10"/>
<path d="M-578.85 455.487C-369.284 359.495 279.571 979.038 560.86 957.827C842.149 936.615 718.619 65.8875 1035.39 101.51C1386.46 140.098 1610.37 1107.39 2353.74 1038.84C2827.25 995.277 2933.06 -55.7501 3028.41 -257.591" stroke="white" stroke-opacity="0.1" stroke-width="0.9928" stroke-miterlimit="10"/>
<path d="M-578.94 446.739C-366.049 349.219 289.184 974.754 571.102 961.062C853.02 947.371 723.171 58.8769 1040.31 90.5146C1392.24 125.178 1617.92 1118.62 2364.01 1048.9C2838.75 1004.59 2938.06 -74.0257 3026.58 -272.81" stroke="white" stroke-opacity="0.1" stroke-width="0.9979" stroke-miterlimit="10"/>
<path d="M-579 438.021C-362.785 338.973 298.797 970.5 581.373 964.328C863.95 958.156 727.783 51.8962 1045.28 79.5493C1398.11 110.288 1625.52 1129.89 2374.37 1059C2850.34 1013.94 2943.18 -92.3013 3024.84 -288" stroke="white" stroke-opacity="0.1" stroke-width="1.0031" stroke-miterlimit="10"/>
<g opacity="0.2" filter="url(#filter0_f_19_4218)">
<path fill-rule="evenodd" clip-rule="evenodd" d="M1373.44 -114.014C1373.44 -114.014 1366.98 -58.3798 1361.96 3.98285H1473.47C1481.26 -44.4113 1489.36 -93.3349 1489.36 -93.3349L1511.6 -78.581C1511.6 -78.581 1513.63 -71.3065 1517.11 -59.1823C1517.11 -59.1823 1517.11 -59.1823 1517.11 -59.1482C1517.15 -59.114 1517.15 -59.1141 1517.15 -59.0628C1517.15 -59.0628 1517.15 -59.0287 1517.18 -58.9433C1521.48 -43.8478 1527.97 -21.3413 1535.47 3.99995H1665.01C1662.51 -18.4724 1660.48 -37.837 1659.77 -47.5705C1657.46 -80.5619 1659.86 -141.763 1659.86 -141.763H1655.43C1655.43 -141.763 1641.7 -154.929 1634.81 -166.37C1628.73 -176.462 1611.96 -208.122 1608.1 -215.311C1607.62 -216.25 1607.34 -216.796 1607.34 -216.796L1609.65 -219.102L1634.81 -244.101L1641.61 -246.048L1634.81 -255.901L1597.21 -249.429L1519.65 -236.076L1393.36 -216.796L1389.03 -215.43C1389.03 -215.43 1373.35 -173.73 1369.34 -143.437V-143.317C1368.7 -138.331 1368.33 -133.618 1368.45 -129.451L1373.44 -114.014Z" fill="url(#paint0_linear_19_4218)"/>
<path opacity="0.5" d="M1411.68 3.98286H1473.49C1481.27 -44.4113 1489.38 -93.3349 1489.38 -93.3349L1511.62 -78.581L1514.62 -88.8951C1514.62 -88.8951 1554.46 -108.601 1564.53 -111.521C1574.59 -114.475 1629.48 -111.521 1629.48 -111.521L1572.8 -123.201C1572.8 -123.201 1503.18 -99.3628 1501.12 -100.883C1499.13 -102.402 1426.37 -140.568 1424.1 -141.729L1461.38 -106.603C1461.38 -106.62 1434.1 -55.0669 1411.68 3.98286Z" fill="#935B9D"/>
<path opacity="0.5" d="M1543.25 3.98288C1529.25 -29.6574 1517.98 -57.0648 1517.17 -59.0798C1521.47 -43.9844 1527.99 -21.4266 1535.5 3.98288H1543.25Z" fill="#935B9D"/>
<path opacity="0.5" d="M1413.56 3.98286H1473.49C1481.27 -44.4113 1489.38 -93.3349 1489.38 -93.3349L1511.62 -78.581L1514.63 -88.8951L1501.14 -100.883L1424.12 -141.729L1461.39 -106.603C1461.38 -106.62 1435.11 -50.6954 1413.56 3.98286Z" fill="#935B9D"/>
<path opacity="0.5" d="M1543.39 3.98291C1529.32 -29.6403 1518.09 -56.8087 1517.2 -58.9603C1521.5 -43.8648 1527.99 -21.3583 1535.48 3.98291H1543.39Z" fill="#935B9D"/>
<path opacity="0.5" d="M1365.48 3.98281L1373.46 -114.014C1364.91 -80.0838 1360.4 -36.9149 1358.07 3.98281H1365.48Z" fill="url(#paint1_linear_19_4218)"/>
</g>
<line x1="180.75" y1="4.00378" x2="180.75" y2="-1058" stroke="url(#paint2_linear_19_4218)" stroke-opacity="0.5" stroke-width="2.5"/>
<line x1="180.25" y1="1830" x2="180.25" y2="1052" stroke="url(#paint3_linear_19_4218)" stroke-opacity="0.5" stroke-width="2.5"/>
<g style="mix-blend-mode:luminosity" opacity="0.04">
<path fill-rule="evenodd" clip-rule="evenodd" d="M1919.32 1.99997H386.268H0.0138245V-117.409C0.0138245 -117.409 357.209 -273.59 971.181 -273.59C1585.15 -273.59 1920.43 -114.595 1920.43 -114.595L1919.32 1.99997Z" fill="url(#paint4_radial_19_4218)"/>
<path opacity="0.2" fill-rule="evenodd" clip-rule="evenodd" d="M429.136 -43.0225H1373.03L1443.28 2.00006H386.268L429.136 -43.0225Z" fill="url(#paint5_linear_19_4218)"/>
<path opacity="0.2" fill-rule="evenodd" clip-rule="evenodd" d="M1484.03 2.00003L1446.89 -20.5112H1920.43L1919.32 2.00003H1484.03Z" fill="url(#paint6_linear_19_4218)"/>
</g>
</g>
<defs>
<filter id="filter0_f_19_4218" x="884" y="-1081" width="1145" height="1326" filterUnits="userSpaceOnUse" color-interpolation-filters="sRGB">
<feFlood flood-opacity="0" result="BackgroundImageFix"/>
<feBlend mode="normal" in="SourceGraphic" in2="BackgroundImageFix" result="shape"/>
<feGaussianBlur stdDeviation="120.5" result="effect1_foregroundBlur_19_4218"/>
</filter>
<linearGradient id="paint0_linear_19_4218" x1="1513.5" y1="480.375" x2="1513.5" y2="-255.916" gradientUnits="userSpaceOnUse">
<stop offset="0.0112" stop-color="#4B1567"/>
<stop offset="1" stop-color="#4F3885"/>
</linearGradient>
<linearGradient id="paint1_linear_19_4218" x1="1355.81" y1="-55.0163" x2="1373.45" y2="-55.0163" gradientUnits="userSpaceOnUse">
<stop stop-color="#FF5179"/>
<stop offset="0.0856" stop-color="#F54E74"/>
<stop offset="0.2337" stop-color="#D84567"/>
<stop offset="0.4265" stop-color="#AB3651"/>
<stop offset="0.6566" stop-color="#6B2233"/>
<stop offset="0.9155" stop-color="#1C090D"/>
<stop offset="1"/>
</linearGradient>
<linearGradient id="paint2_linear_19_4218" x1="182" y1="-1058" x2="182" y2="4.00378" gradientUnits="userSpaceOnUse">
<stop stop-color="#2EECC5" stop-opacity="0"/>
<stop offset="0.43693" stop-color="#2EECC5"/>
<stop offset="0.921875" stop-color="#2EECC5" stop-opacity="0.138748"/>
<stop offset="1" stop-color="#FFB1B1" stop-opacity="0"/>
</linearGradient>
<linearGradient id="paint3_linear_19_4218" x1="181.5" y1="1052" x2="181.5" y2="1830" gradientUnits="userSpaceOnUse">
<stop stop-color="#2EECC5" stop-opacity="0"/>
<stop offset="0.43693" stop-color="#2EECC5"/>
<stop offset="0.921875" stop-color="#2EECC5" stop-opacity="0.138748"/>
<stop offset="1" stop-color="#FFB1B1" stop-opacity="0"/>
</linearGradient>
<radialGradient id="paint4_radial_19_4218" cx="0" cy="0" r="1" gradientUnits="userSpaceOnUse" gradientTransform="translate(971.75 -259.025) scale(728.576 356.508)">
<stop offset="0.0223" stop-color="#FD813C"/>
<stop offset="0.9944" stop-color="#8B2231"/>
</radialGradient>
<linearGradient id="paint5_linear_19_4218" x1="386.272" y1="-20.5097" x2="1443.28" y2="-20.5097" gradientUnits="userSpaceOnUse">
<stop stop-color="#FF936A"/>
<stop offset="1" stop-color="#890041"/>
</linearGradient>
<linearGradient id="paint6_linear_19_4218" x1="1446.89" y1="-9.25695" x2="1920.43" y2="-9.25695" gradientUnits="userSpaceOnUse">
<stop stop-color="#AE8B1D"/>
<stop offset="1"/>
</linearGradient>
<clipPath id="clip0_19_4218">
<rect width="1920" height="4905" fill="white" transform="translate(0 -1058)"/>
</clipPath>
</defs>
</svg>
