<svg width="215" height="60" viewBox="0 0 215 60" fill="none" xmlns="http://www.w3.org/2000/svg">
<g filter="url(#filter0_b_4656_37)">
<rect x="1" y="1" width="213" height="58" rx="29" fill="white" fill-opacity="0.1"/>
<rect x="0.5" y="0.5" width="214" height="59" rx="29.5" stroke="url(#paint0_linear_4656_37)" stroke-opacity="0.2"/>
</g>
<path d="M61.924 37V28.6H66.592C67.528 28.6 68.208 28.776 68.632 29.128C69.056 29.48 69.268 30.044 69.268 30.82C69.268 31.716 68.988 32.328 68.428 32.656C69.172 32.968 69.544 33.648 69.544 34.696C69.544 35.504 69.332 36.092 68.908 36.46C68.484 36.82 67.804 37 66.868 37H61.924ZM63.376 35.632H66.868C67.324 35.632 67.656 35.544 67.864 35.368C68.072 35.184 68.176 34.892 68.176 34.492C68.176 34.1 68.072 33.816 67.864 33.64C67.656 33.456 67.324 33.364 66.868 33.364H63.376V35.632ZM63.376 32.08H66.544C67.04 32.08 67.388 32 67.588 31.84C67.796 31.672 67.9 31.4 67.9 31.024C67.9 30.656 67.796 30.388 67.588 30.22C67.38 30.052 67.048 29.968 66.592 29.968H63.376V32.08ZM76.9167 37.108C75.8287 37.108 75.0367 36.852 74.5407 36.34C74.0447 35.828 73.7967 35.008 73.7967 33.88C73.7967 32.752 74.0447 31.932 74.5407 31.42C75.0367 30.908 75.8287 30.652 76.9167 30.652C77.8847 30.652 78.6127 30.848 79.1007 31.24C79.5887 31.632 79.8887 32.256 80.0007 33.112H78.6447C78.5567 32.696 78.3767 32.396 78.1047 32.212C77.8327 32.028 77.4447 31.936 76.9407 31.936C76.3167 31.936 75.8647 32.092 75.5847 32.404C75.3047 32.708 75.1647 33.2 75.1647 33.88C75.1647 34.56 75.3047 35.056 75.5847 35.368C75.8647 35.672 76.3167 35.824 76.9407 35.824C77.4367 35.824 77.8207 35.732 78.0927 35.548C78.3727 35.356 78.5567 35.056 78.6447 34.648H80.0007C79.8967 35.496 79.5967 36.12 79.1007 36.52C78.6127 36.912 77.8847 37.108 76.9167 37.108ZM82.6366 37H81.2806V30.76H82.6366V33.184H83.6686L85.5886 30.76H87.2446L84.8086 33.808L87.4126 37H85.7326L83.6686 34.468H82.6366V37ZM88.7207 31.42C89.2327 30.908 90.0487 30.652 91.1687 30.652C92.2887 30.652 93.1047 30.908 93.6167 31.42C94.1287 31.932 94.3847 32.752 94.3847 33.88C94.3847 35.008 94.1287 35.828 93.6167 36.34C93.1047 36.852 92.2887 37.108 91.1687 37.108C90.0487 37.108 89.2327 36.852 88.7207 36.34C88.2167 35.828 87.9647 35.008 87.9647 33.88C87.9647 32.752 88.2167 31.932 88.7207 31.42ZM89.7647 32.404C89.4767 32.708 89.3327 33.2 89.3327 33.88C89.3327 34.56 89.4767 35.056 89.7647 35.368C90.0607 35.672 90.5287 35.824 91.1687 35.824C91.8167 35.824 92.2847 35.672 92.5727 35.368C92.8687 35.056 93.0167 34.56 93.0167 33.88C93.0167 33.2 92.8687 32.708 92.5727 32.404C92.2847 32.092 91.8167 31.936 91.1687 31.936C90.5287 31.936 90.0607 32.092 89.7647 32.404ZM95.6829 40V30.76H97.0389V31.528C97.4789 30.944 98.2229 30.652 99.2709 30.652C100.255 30.652 100.967 30.908 101.407 31.42C101.855 31.932 102.079 32.752 102.079 33.88C102.079 35.008 101.855 35.828 101.407 36.34C100.967 36.852 100.255 37.108 99.2709 37.108C98.2229 37.108 97.4789 36.816 97.0389 36.232V40H95.6829ZM97.4949 35.368C97.7829 35.672 98.2469 35.824 98.8869 35.824C99.5269 35.824 99.9909 35.672 100.279 35.368C100.567 35.056 100.711 34.56 100.711 33.88C100.711 33.2 100.567 32.708 100.279 32.404C99.9909 32.092 99.5269 31.936 98.8869 31.936C98.2469 31.936 97.7829 32.092 97.4949 32.404C97.2069 32.708 97.0629 33.2 97.0629 33.88C97.0629 34.56 97.2069 35.056 97.4949 35.368ZM103.058 33.88C103.058 32.76 103.31 31.944 103.814 31.432C104.318 30.912 105.13 30.652 106.25 30.652C107.37 30.652 108.178 30.908 108.674 31.42C109.17 31.932 109.418 32.752 109.418 33.88C109.418 33.968 109.41 34.108 109.394 34.3H104.462C104.51 34.86 104.678 35.268 104.966 35.524C105.262 35.78 105.694 35.908 106.262 35.908C107.102 35.908 107.642 35.624 107.882 35.056H109.298C109.138 35.816 108.798 36.348 108.278 36.652C107.758 36.956 107.082 37.108 106.25 37.108C105.13 37.108 104.318 36.852 103.814 36.34C103.31 35.828 103.058 35.008 103.058 33.88ZM104.474 33.28H108.038C107.966 32.768 107.786 32.404 107.498 32.188C107.21 31.964 106.798 31.852 106.262 31.852C105.726 31.852 105.31 31.964 105.014 32.188C104.726 32.412 104.546 32.776 104.474 33.28ZM110.718 37V30.76H112.074V34.804L115.554 30.76H116.742V37H115.374V32.944L111.906 37H110.718ZM111.558 28.192H112.662C112.662 28.536 112.75 28.788 112.926 28.948C113.102 29.1 113.378 29.176 113.754 29.176C114.138 29.176 114.414 29.1 114.582 28.948C114.758 28.788 114.846 28.536 114.846 28.192H115.95C115.95 28.84 115.774 29.324 115.422 29.644C115.078 29.956 114.522 30.112 113.754 30.112C113.002 30.112 112.446 29.956 112.086 29.644C111.734 29.324 111.558 28.84 111.558 28.192ZM118.347 37V30.76H119.703V35.728H122.271V30.76H123.639V35.728H126.195V30.76H127.563V37H118.347ZM128.863 33.88C128.863 32.76 129.115 31.944 129.619 31.432C130.123 30.912 130.935 30.652 132.055 30.652C133.175 30.652 133.983 30.908 134.479 31.42C134.975 31.932 135.223 32.752 135.223 33.88C135.223 33.968 135.215 34.108 135.199 34.3H130.267C130.315 34.86 130.483 35.268 130.771 35.524C131.067 35.78 131.499 35.908 132.067 35.908C132.907 35.908 133.447 35.624 133.687 35.056H135.103C134.943 35.816 134.603 36.348 134.083 36.652C133.563 36.956 132.887 37.108 132.055 37.108C130.935 37.108 130.123 36.852 129.619 36.34C129.115 35.828 128.863 35.008 128.863 33.88ZM130.279 33.28H133.843C133.771 32.768 133.591 32.404 133.303 32.188C133.015 31.964 132.603 31.852 132.067 31.852C131.531 31.852 131.115 31.964 130.819 32.188C130.531 32.412 130.351 32.776 130.279 33.28ZM136.523 37V30.76H138.743L140.759 35.572L142.775 30.76H144.995V37H143.639V32.008L141.491 37H140.027L137.879 32.008V37H136.523ZM149.812 37V30.76H153.064C153.864 30.76 154.444 30.896 154.804 31.168C155.172 31.432 155.356 31.864 155.356 32.464C155.356 33.064 155.168 33.5 154.792 33.772C155.352 34.028 155.632 34.52 155.632 35.248C155.632 35.864 155.444 36.312 155.068 36.592C154.692 36.864 154.088 37 153.256 37H149.812ZM153.124 34.36H151.168V35.812H153.124C153.532 35.812 153.824 35.756 154 35.644C154.176 35.524 154.264 35.336 154.264 35.08C154.264 34.824 154.176 34.64 154 34.528C153.824 34.416 153.532 34.36 153.124 34.36ZM151.168 33.34H152.896C153.28 33.34 153.556 33.284 153.724 33.172C153.9 33.06 153.988 32.884 153.988 32.644C153.988 32.18 153.628 31.948 152.908 31.948H151.168V33.34ZM156.937 40V30.76H158.293V31.528C158.733 30.944 159.477 30.652 160.525 30.652C161.509 30.652 162.221 30.908 162.661 31.42C163.109 31.932 163.333 32.752 163.333 33.88C163.333 35.008 163.109 35.828 162.661 36.34C162.221 36.852 161.509 37.108 160.525 37.108C159.477 37.108 158.733 36.816 158.293 36.232V40H156.937ZM158.749 35.368C159.037 35.672 159.501 35.824 160.141 35.824C160.781 35.824 161.245 35.672 161.533 35.368C161.821 35.056 161.965 34.56 161.965 33.88C161.965 33.2 161.821 32.708 161.533 32.404C161.245 32.092 160.781 31.936 160.141 31.936C159.501 31.936 159.037 32.092 158.749 32.404C158.461 32.708 158.317 33.2 158.317 33.88C158.317 34.56 158.461 35.056 158.749 35.368ZM164.312 33.88C164.312 32.76 164.564 31.944 165.068 31.432C165.572 30.912 166.384 30.652 167.504 30.652C168.624 30.652 169.432 30.908 169.928 31.42C170.424 31.932 170.672 32.752 170.672 33.88C170.672 33.968 170.664 34.108 170.648 34.3H165.716C165.764 34.86 165.932 35.268 166.22 35.524C166.516 35.78 166.948 35.908 167.516 35.908C168.356 35.908 168.896 35.624 169.136 35.056H170.552C170.392 35.816 170.052 36.348 169.532 36.652C169.012 36.956 168.336 37.108 167.504 37.108C166.384 37.108 165.572 36.852 165.068 36.34C164.564 35.828 164.312 35.008 164.312 33.88ZM165.728 33.28H169.292C169.22 32.768 169.04 32.404 168.752 32.188C168.464 31.964 168.052 31.852 167.516 31.852C166.98 31.852 166.564 31.964 166.268 32.188C165.98 32.412 165.8 32.776 165.728 33.28ZM171.972 37V30.76H174.192L176.208 35.572L178.224 30.76H180.444V37H179.088V32.008L176.94 37H175.476L173.328 32.008V37H171.972ZM181.738 33.88C181.738 32.76 181.99 31.944 182.494 31.432C182.998 30.912 183.81 30.652 184.93 30.652C186.05 30.652 186.858 30.908 187.354 31.42C187.85 31.932 188.098 32.752 188.098 33.88C188.098 33.968 188.09 34.108 188.074 34.3H183.142C183.19 34.86 183.358 35.268 183.646 35.524C183.942 35.78 184.374 35.908 184.942 35.908C185.782 35.908 186.322 35.624 186.562 35.056H187.978C187.818 35.816 187.478 36.348 186.958 36.652C186.438 36.956 185.762 37.108 184.93 37.108C183.81 37.108 182.998 36.852 182.494 36.34C181.99 35.828 181.738 35.008 181.738 33.88ZM183.154 33.28H186.718C186.646 32.768 186.466 32.404 186.178 32.188C185.89 31.964 185.478 31.852 184.942 31.852C184.406 31.852 183.99 31.964 183.694 32.188C183.406 32.412 183.226 32.776 183.154 33.28ZM189.398 37V30.76H190.754V33.244H194.054V30.76H195.422V37H194.054V34.516H190.754V37H189.398ZM198.215 37H197.027V30.76H198.383V34.804L201.863 30.76H203.051V37H201.683V32.944L198.215 37ZM61.804 50V43.76H65.056C65.856 43.76 66.436 43.896 66.796 44.168C67.164 44.432 67.348 44.864 67.348 45.464C67.348 46.064 67.16 46.5 66.784 46.772C67.344 47.028 67.624 47.52 67.624 48.248C67.624 48.864 67.436 49.312 67.06 49.592C66.684 49.864 66.08 50 65.248 50H61.804ZM65.116 47.36H63.16V48.812H65.116C65.524 48.812 65.816 48.756 65.992 48.644C66.168 48.524 66.256 48.336 66.256 48.08C66.256 47.824 66.168 47.64 65.992 47.528C65.816 47.416 65.524 47.36 65.116 47.36ZM63.16 46.34H64.888C65.272 46.34 65.548 46.284 65.716 46.172C65.892 46.06 65.98 45.884 65.98 45.644C65.98 45.18 65.62 44.948 64.9 44.948H63.16V46.34ZM71.065 50.108C70.249 50.108 69.649 49.956 69.265 49.652C68.881 49.34 68.689 48.852 68.689 48.188C68.689 47.5 68.897 47.012 69.313 46.724C69.737 46.428 70.421 46.28 71.365 46.28H73.369C73.353 45.784 73.213 45.424 72.949 45.2C72.693 44.968 72.285 44.852 71.725 44.852C71.269 44.852 70.917 44.928 70.669 45.08C70.421 45.224 70.257 45.46 70.177 45.788H68.821C68.933 45.044 69.221 44.504 69.685 44.168C70.149 43.824 70.845 43.652 71.773 43.652C72.813 43.652 73.565 43.864 74.029 44.288C74.501 44.712 74.737 45.392 74.737 46.328V50H73.369V49.292C72.905 49.836 72.137 50.108 71.065 50.108ZM70.045 48.14C70.045 48.652 70.493 48.908 71.389 48.908C72.005 48.908 72.469 48.796 72.781 48.572C73.093 48.348 73.289 47.996 73.369 47.516V47.3H71.725C70.605 47.3 70.045 47.58 70.045 48.14ZM76.3235 50V43.76H78.5435L80.5595 48.572L82.5755 43.76H84.7955V50H83.4395V45.008L81.2915 50H79.8275L77.6795 45.008V50H76.3235ZM89.6126 50V43.76H95.6366V50H94.2686V45.032H90.9686V50H89.6126ZM96.9295 46.88C96.9295 45.76 97.1815 44.944 97.6855 44.432C98.1895 43.912 99.0015 43.652 100.122 43.652C101.242 43.652 102.05 43.908 102.546 44.42C103.042 44.932 103.29 45.752 103.29 46.88C103.29 46.968 103.282 47.108 103.266 47.3H98.3335C98.3815 47.86 98.5495 48.268 98.8375 48.524C99.1335 48.78 99.5655 48.908 100.134 48.908C100.974 48.908 101.514 48.624 101.754 48.056H103.17C103.01 48.816 102.67 49.348 102.15 49.652C101.63 49.956 100.954 50.108 100.122 50.108C99.0015 50.108 98.1895 49.852 97.6855 49.34C97.1815 48.828 96.9295 48.008 96.9295 46.88ZM98.3455 46.28H101.91C101.838 45.768 101.658 45.404 101.37 45.188C101.082 44.964 100.67 44.852 100.134 44.852C99.5975 44.852 99.1815 44.964 98.8855 45.188C98.5975 45.412 98.4175 45.776 98.3455 46.28ZM104.589 53V43.76H105.945V44.528C106.385 43.944 107.129 43.652 108.177 43.652C109.161 43.652 109.873 43.908 110.313 44.42C110.761 44.932 110.985 45.752 110.985 46.88C110.985 48.008 110.761 48.828 110.313 49.34C109.873 49.852 109.161 50.108 108.177 50.108C107.129 50.108 106.385 49.816 105.945 49.232V53H104.589ZM106.401 48.368C106.689 48.672 107.153 48.824 107.793 48.824C108.433 48.824 108.897 48.672 109.185 48.368C109.473 48.056 109.617 47.56 109.617 46.88C109.617 46.2 109.473 45.708 109.185 45.404C108.897 45.092 108.433 44.936 107.793 44.936C107.153 44.936 106.689 45.092 106.401 45.404C106.113 45.708 105.969 46.2 105.969 46.88C105.969 47.56 106.113 48.056 106.401 48.368ZM111.965 46.88C111.965 45.76 112.217 44.944 112.721 44.432C113.225 43.912 114.037 43.652 115.157 43.652C116.277 43.652 117.085 43.908 117.581 44.42C118.077 44.932 118.325 45.752 118.325 46.88C118.325 46.968 118.317 47.108 118.301 47.3H113.369C113.417 47.86 113.585 48.268 113.873 48.524C114.169 48.78 114.601 48.908 115.169 48.908C116.009 48.908 116.549 48.624 116.789 48.056H118.205C118.045 48.816 117.705 49.348 117.185 49.652C116.665 49.956 115.989 50.108 115.157 50.108C114.037 50.108 113.225 49.852 112.721 49.34C112.217 48.828 111.965 48.008 111.965 46.88ZM113.381 46.28H116.945C116.873 45.768 116.693 45.404 116.405 45.188C116.117 44.964 115.705 44.852 115.169 44.852C114.633 44.852 114.217 44.964 113.921 45.188C113.633 45.412 113.453 45.776 113.381 46.28ZM119.171 47.936H120.539C120.619 48.28 120.791 48.528 121.055 48.68C121.327 48.832 121.727 48.908 122.255 48.908C122.743 48.908 123.103 48.844 123.335 48.716C123.567 48.58 123.683 48.368 123.683 48.08C123.683 47.824 123.591 47.64 123.407 47.528C123.231 47.416 122.939 47.36 122.531 47.36H121.391V46.34H122.471C123.199 46.34 123.563 46.104 123.563 45.632C123.563 45.112 123.111 44.852 122.207 44.852C121.695 44.852 121.311 44.928 121.055 45.08C120.799 45.232 120.631 45.48 120.551 45.824H119.195C119.283 45.064 119.571 44.512 120.059 44.168C120.547 43.824 121.287 43.652 122.279 43.652C123.191 43.652 123.859 43.8 124.283 44.096C124.707 44.384 124.919 44.844 124.919 45.476C124.919 46.116 124.687 46.564 124.223 46.82C124.767 47.06 125.039 47.536 125.039 48.248C125.039 48.896 124.819 49.368 124.379 49.664C123.947 49.96 123.263 50.108 122.327 50.108C121.311 50.108 120.555 49.936 120.059 49.592C119.563 49.248 119.267 48.696 119.171 47.936ZM126.363 50V43.76H129.615C130.415 43.76 130.995 43.896 131.355 44.168C131.723 44.432 131.907 44.864 131.907 45.464C131.907 46.064 131.719 46.5 131.343 46.772C131.903 47.028 132.183 47.52 132.183 48.248C132.183 48.864 131.995 49.312 131.619 49.592C131.243 49.864 130.639 50 129.807 50H126.363ZM129.675 47.36H127.719V48.812H129.675C130.083 48.812 130.375 48.756 130.551 48.644C130.727 48.524 130.815 48.336 130.815 48.08C130.815 47.824 130.727 47.64 130.551 47.528C130.375 47.416 130.083 47.36 129.675 47.36ZM127.719 46.34H129.447C129.831 46.34 130.107 46.284 130.275 46.172C130.451 46.06 130.539 45.884 130.539 45.644C130.539 45.18 130.179 44.948 129.459 44.948H127.719V46.34ZM133.932 44.42C134.444 43.908 135.26 43.652 136.38 43.652C137.5 43.652 138.316 43.908 138.828 44.42C139.34 44.932 139.596 45.752 139.596 46.88C139.596 48.008 139.34 48.828 138.828 49.34C138.316 49.852 137.5 50.108 136.38 50.108C135.26 50.108 134.444 49.852 133.932 49.34C133.428 48.828 133.176 48.008 133.176 46.88C133.176 45.752 133.428 44.932 133.932 44.42ZM134.976 45.404C134.688 45.708 134.544 46.2 134.544 46.88C134.544 47.56 134.688 48.056 134.976 48.368C135.272 48.672 135.74 48.824 136.38 48.824C137.028 48.824 137.496 48.672 137.784 48.368C138.08 48.056 138.228 47.56 138.228 46.88C138.228 46.2 138.08 45.708 137.784 45.404C137.496 45.092 137.028 44.936 136.38 44.936C135.74 44.936 135.272 45.092 134.976 45.404ZM140.894 50V43.76H142.25V46.244H145.55V43.76H146.918V50H145.55V47.516H142.25V50H140.894ZM148.247 50L149.759 47.888C149.279 47.776 148.927 47.56 148.703 47.24C148.479 46.912 148.367 46.464 148.367 45.896C148.367 45.144 148.563 44.6 148.955 44.264C149.355 43.928 149.995 43.76 150.875 43.76H154.103V50H152.747V48.008H151.307L149.879 50H148.247ZM150.023 45.236C149.831 45.372 149.735 45.592 149.735 45.896C149.735 46.2 149.831 46.416 150.023 46.544C150.215 46.664 150.535 46.724 150.983 46.724H152.747V45.032H150.983C150.543 45.032 150.223 45.1 150.023 45.236ZM161.274 45.032H158.886V50H157.518V45.032H155.118V43.76H161.274V45.032Z" fill="white" fill-opacity="0.7"/>
<circle cx="31.5" cy="29.5" r="21.5" fill="url(#paint1_linear_4656_37)"/>
<circle cx="31.5" cy="29.5" r="21" stroke="url(#paint2_linear_4656_37)" stroke-opacity="0.2"/>
<path d="M61.6006 11.2H63.8266L67.1026 16.842L70.0846 11.2H72.2266L68.1106 18.844C67.7 19.6 67.2193 20.1507 66.6686 20.496C66.1273 20.832 65.446 21 64.6246 21H63.5326V19.432H64.4846C65.1473 19.432 65.67 19.18 66.0526 18.676L61.6006 11.2ZM76.5019 21H72.4419V13.72H76.3339C77.2765 13.72 77.9625 13.8787 78.3919 14.196C78.8212 14.5133 79.0359 15.0267 79.0359 15.736C79.0359 16.4267 78.8352 16.9307 78.4339 17.248C79.0312 17.556 79.3299 18.1207 79.3299 18.942C79.3299 19.6607 79.1059 20.1833 78.6579 20.51C78.2099 20.8367 77.4912 21 76.5019 21ZM76.3199 18.018H74.2899V19.39H76.3339C77.1085 19.39 77.4959 19.1613 77.4959 18.704C77.4959 18.2467 77.1039 18.018 76.3199 18.018ZM74.2899 16.66H76.0959C76.8239 16.66 77.1879 16.436 77.1879 15.988C77.1879 15.5493 76.8285 15.33 76.1099 15.33H74.2899V16.66ZM81.2327 20.23C80.6447 19.6327 80.3507 18.676 80.3507 17.36C80.3507 16.044 80.6447 15.0873 81.2327 14.49C81.8207 13.8927 82.7727 13.594 84.0887 13.594C85.3953 13.594 86.338 13.8927 86.9167 14.49C87.5047 15.0873 87.7987 16.044 87.7987 17.36C87.7987 17.4907 87.7893 17.6867 87.7707 17.948H82.2407C82.362 19.0027 82.9827 19.53 84.1027 19.53C84.9427 19.53 85.498 19.2453 85.7687 18.676H87.6727C87.486 19.5813 87.0893 20.216 86.4827 20.58C85.876 20.944 85.078 21.126 84.0887 21.126C82.7727 21.126 81.8207 20.8273 81.2327 20.23ZM84.1027 15.19C83.58 15.19 83.1647 15.2973 82.8567 15.512C82.5487 15.7267 82.3527 16.0813 82.2687 16.576H85.9367C85.8527 16.0813 85.6567 15.7267 85.3487 15.512C85.05 15.2973 84.6347 15.19 84.1027 15.19ZM90.3438 23.142H88.4958V19.278H89.5598C89.7932 19.0913 89.9658 18.7647 90.0778 18.298C90.1992 17.822 90.2878 16.9867 90.3438 15.792L90.4558 13.72H96.5458V19.278H97.8898V23.142H96.0418V21H90.3438V23.142ZM91.6598 19.278H94.7118V15.442H92.1778L92.1498 15.946C92.0845 17.4673 91.9212 18.578 91.6598 19.278ZM99.6214 14.49C100.219 13.8927 101.175 13.594 102.491 13.594C103.807 13.594 104.764 13.8927 105.361 14.49C105.959 15.0873 106.257 16.044 106.257 17.36C106.257 18.6853 105.959 19.6467 105.361 20.244C104.764 20.832 103.807 21.126 102.491 21.126C101.175 21.126 100.219 20.832 99.6214 20.244C99.0334 19.6467 98.7394 18.6853 98.7394 17.36C98.7394 16.044 99.0334 15.0873 99.6214 14.49ZM100.573 17.36C100.573 18.0693 100.723 18.5873 101.021 18.914C101.329 19.2407 101.819 19.404 102.491 19.404C103.163 19.404 103.649 19.2407 103.947 18.914C104.255 18.5873 104.409 18.0693 104.409 17.36C104.409 16.6413 104.255 16.1233 103.947 15.806C103.649 15.4793 103.163 15.316 102.491 15.316C101.819 15.316 101.329 15.4793 101.021 15.806C100.723 16.1233 100.573 16.6413 100.573 17.36ZM109.413 21H107.565V13.72H110.575L112.661 18.97L114.761 13.72H117.771V21H115.923V15.456L113.655 21H111.681L109.413 15.456V21ZM119.055 21V19.152H119.475C119.69 19.152 119.853 19.0773 119.965 18.928C120.077 18.7787 120.17 18.466 120.245 17.99C120.32 17.514 120.385 16.7813 120.441 15.792L120.539 13.72H126.643V21H124.795V15.442H122.261L122.247 15.946C122.191 17.2807 122.056 18.3167 121.841 19.054C121.636 19.7913 121.356 20.3 121.001 20.58C120.646 20.86 120.166 21 119.559 21H119.055ZM128.838 20.23C128.25 19.6327 127.956 18.676 127.956 17.36C127.956 16.044 128.25 15.0873 128.838 14.49C129.426 13.8927 130.378 13.594 131.694 13.594C133.001 13.594 133.943 13.8927 134.522 14.49C135.11 15.0873 135.404 16.044 135.404 17.36C135.404 17.4907 135.395 17.6867 135.376 17.948H129.846C129.967 19.0027 130.588 19.53 131.708 19.53C132.548 19.53 133.103 19.2453 133.374 18.676H135.278C135.091 19.5813 134.695 20.216 134.088 20.58C133.481 20.944 132.683 21.126 131.694 21.126C130.378 21.126 129.426 20.8273 128.838 20.23ZM131.708 15.19C131.185 15.19 130.77 15.2973 130.462 15.512C130.154 15.7267 129.958 16.0813 129.874 16.576H133.542C133.458 16.0813 133.262 15.7267 132.954 15.512C132.655 15.2973 132.24 15.19 131.708 15.19ZM136.7 21V13.72H138.548V16.492H141.95V13.72H143.798V21H141.95V18.228H138.548V21H136.7ZM145.422 21V13.72H147.27V18.018L150.91 13.72H152.52V21H150.672V16.702L147.032 21H145.422ZM154.719 20.23C154.131 19.6327 153.837 18.676 153.837 17.36C153.837 16.044 154.131 15.0873 154.719 14.49C155.307 13.8927 156.259 13.594 157.575 13.594C158.882 13.594 159.824 13.8927 160.403 14.49C160.991 15.0873 161.285 16.044 161.285 17.36C161.285 17.4907 161.276 17.6867 161.257 17.948H155.727C155.848 19.0027 156.469 19.53 157.589 19.53C158.429 19.53 158.984 19.2453 159.255 18.676H161.159C160.972 19.5813 160.576 20.216 159.969 20.58C159.362 20.944 158.564 21.126 157.575 21.126C156.259 21.126 155.307 20.8273 154.719 20.23ZM157.589 15.19C157.066 15.19 156.651 15.2973 156.343 15.512C156.035 15.7267 155.839 16.0813 155.755 16.576H159.423C159.339 16.0813 159.143 15.7267 158.835 15.512C158.536 15.2973 158.121 15.19 157.589 15.19ZM162.847 17.598L162.721 11.2H164.695L164.569 17.598H162.847ZM163.715 18.606C164.153 18.606 164.471 18.7087 164.667 18.914C164.872 19.11 164.975 19.4273 164.975 19.866C164.975 20.3047 164.872 20.6267 164.667 20.832C164.471 21.028 164.153 21.126 163.715 21.126C163.267 21.126 162.94 21.028 162.735 20.832C162.539 20.6267 162.441 20.3047 162.441 19.866C162.441 19.4273 162.539 19.11 162.735 18.914C162.94 18.7087 163.267 18.606 163.715 18.606Z" fill="white" fill-opacity="0.9"/>
<path d="M43.732 36.2015C42.8014 34.5123 39.5697 32.6808 39.4274 32.6007C39.0121 32.3737 38.5788 32.2536 38.1733 32.2536C37.0701 32.2536 36.4659 33.4725 35.6504 34.2155C35.6195 34.2436 35.5945 34.2645 35.5766 34.2769C34.4754 34.9942 33.6134 34.9128 32.6596 33.997L27.3363 28.8855C26.3886 27.9756 26.3014 27.1377 27.0434 26.0862C27.091 26.0232 27.2555 25.8707 27.4743 25.6804C28.0619 25.1689 28.8739 24.7918 29.0901 24.0433C29.2342 23.5436 29.1281 22.9557 28.7879 22.3831C28.7077 22.2513 26.7992 19.148 25.0408 18.255C24.7127 18.0881 24.3429 18 23.9721 18C23.3613 18 22.7866 18.2287 22.3547 18.643L21.1784 19.7719C19.3181 21.5576 18.6447 23.5818 19.1758 25.788C19.6189 27.6267 20.9101 29.5833 23.0142 31.603L29.8293 38.1465C32.4923 40.7033 35.0311 42 37.3752 42C39.0997 42 40.7065 41.2965 42.1516 39.9095L43.3274 38.7806C44.042 38.0949 44.2042 37.0581 43.732 36.2015Z" fill="url(#paint3_linear_4656_37)"/>
<path d="M32.7 29.0897C32.7565 29.1124 32.8168 29.1239 32.877 29.1239H38.4385C38.6943 29.1239 38.9019 28.925 38.9019 28.6789C38.9019 28.4329 38.6943 28.234 38.4385 28.234C36.8284 28.234 36.0391 26.2722 37.2005 25.157L41.0834 21.4289C41.2646 21.2549 41.2646 20.9737 41.0834 20.7997C40.9022 20.6257 40.6093 20.6257 40.4281 20.7997L36.4174 24.6505C35.262 25.7599 33.3405 24.941 33.3405 23.3392C33.3405 23.0931 33.1329 22.8942 32.877 22.8942C32.6212 22.8942 32.4136 23.0931 32.4136 23.3392V28.6789C32.4136 28.7368 32.4261 28.7946 32.4493 28.8489C32.4965 28.9579 32.5869 29.0447 32.7 29.0897Z" fill="url(#paint4_linear_4656_37)"/>
<defs>
<filter id="filter0_b_4656_37" x="-30" y="-30" width="275" height="120" filterUnits="userSpaceOnUse" color-interpolation-filters="sRGB">
<feFlood flood-opacity="0" result="BackgroundImageFix"/>
<feGaussianBlur in="BackgroundImageFix" stdDeviation="15"/>
<feComposite in2="SourceAlpha" operator="in" result="effect1_backgroundBlur_4656_37"/>
<feBlend mode="normal" in="SourceGraphic" in2="effect1_backgroundBlur_4656_37" result="shape"/>
</filter>
<linearGradient id="paint0_linear_4656_37" x1="108" y1="1" x2="107.5" y2="59" gradientUnits="userSpaceOnUse">
<stop stop-color="white"/>
<stop offset="1" stop-color="white" stop-opacity="0"/>
</linearGradient>
<linearGradient id="paint1_linear_4656_37" x1="31.5" y1="8" x2="31.5" y2="51" gradientUnits="userSpaceOnUse">
<stop stop-color="#2079FE"/>
<stop offset="1" stop-color="#2079FE" stop-opacity="0"/>
</linearGradient>
<linearGradient id="paint2_linear_4656_37" x1="31.5" y1="8" x2="32" y2="34" gradientUnits="userSpaceOnUse">
<stop stop-color="white"/>
<stop offset="1" stop-color="white" stop-opacity="0"/>
</linearGradient>
<linearGradient id="paint3_linear_4656_37" x1="40" y1="46" x2="35.5" y2="15.5" gradientUnits="userSpaceOnUse">
<stop stop-color="#A6C5F1"/>
<stop offset="1" stop-color="#2177F6"/>
</linearGradient>
<linearGradient id="paint4_linear_4656_37" x1="36.8164" y1="20.6692" x2="36.8164" y2="29.1239" gradientUnits="userSpaceOnUse">
<stop stop-color="#6BA2F7"/>
<stop offset="1" stop-color="#A6C5F2"/>
</linearGradient>
</defs>
</svg>
