<svg width="215" height="60" viewBox="0 0 215 60" fill="none" xmlns="http://www.w3.org/2000/svg">
<g filter="url(#filter0_b_4656_38)">
<rect x="1" y="1" width="213" height="58" rx="29" fill="white" fill-opacity="0.1"/>
<rect x="0.5" y="0.5" width="214" height="59" rx="29.5" stroke="url(#paint0_linear_4656_38)" stroke-opacity="0.2"/>
</g>
<path d="M61.924 37V28.6H64.276L67.108 35.392L69.928 28.6H72.292V37H70.852V30.04L67.936 37H66.292L63.376 30.04V37H61.924ZM74.0149 30.76H75.3709V32.584H77.0989C77.9709 32.584 78.6029 32.76 78.9949 33.112C79.3949 33.456 79.5949 34.016 79.5949 34.792C79.5949 35.568 79.3949 36.132 78.9949 36.484C78.6029 36.828 77.9749 37 77.1109 37H74.0149V30.76ZM80.6749 37V30.76H82.0309V37H80.6749ZM76.9789 33.868H75.3709V35.728H76.9909C77.4229 35.728 77.7349 35.656 77.9269 35.512C78.1269 35.36 78.2269 35.12 78.2269 34.792C78.2269 34.464 78.1269 34.228 77.9269 34.084C77.7349 33.94 77.4189 33.868 76.9789 33.868ZM86.511 34.936H87.879C87.959 35.28 88.131 35.528 88.395 35.68C88.667 35.832 89.067 35.908 89.595 35.908C90.083 35.908 90.443 35.844 90.675 35.716C90.907 35.58 91.023 35.368 91.023 35.08C91.023 34.824 90.931 34.64 90.747 34.528C90.571 34.416 90.279 34.36 89.871 34.36H88.731V33.34H89.811C90.539 33.34 90.903 33.104 90.903 32.632C90.903 32.112 90.451 31.852 89.547 31.852C89.035 31.852 88.651 31.928 88.395 32.08C88.139 32.232 87.971 32.48 87.891 32.824H86.535C86.623 32.064 86.911 31.512 87.399 31.168C87.887 30.824 88.627 30.652 89.619 30.652C90.531 30.652 91.199 30.8 91.623 31.096C92.047 31.384 92.259 31.844 92.259 32.476C92.259 33.116 92.027 33.564 91.563 33.82C92.107 34.06 92.379 34.536 92.379 35.248C92.379 35.896 92.159 36.368 91.719 36.664C91.287 36.96 90.603 37.108 89.667 37.108C88.651 37.108 87.895 36.936 87.399 36.592C86.903 36.248 86.607 35.696 86.511 34.936ZM95.8384 37.108C95.0224 37.108 94.4224 36.956 94.0384 36.652C93.6544 36.34 93.4624 35.852 93.4624 35.188C93.4624 34.5 93.6704 34.012 94.0864 33.724C94.5104 33.428 95.1944 33.28 96.1384 33.28H98.1424C98.1264 32.784 97.9864 32.424 97.7224 32.2C97.4664 31.968 97.0584 31.852 96.4984 31.852C96.0424 31.852 95.6904 31.928 95.4424 32.08C95.1944 32.224 95.0304 32.46 94.9504 32.788H93.5944C93.7064 32.044 93.9944 31.504 94.4584 31.168C94.9224 30.824 95.6184 30.652 96.5464 30.652C97.5864 30.652 98.3384 30.864 98.8024 31.288C99.2744 31.712 99.5104 32.392 99.5104 33.328V37H98.1424V36.292C97.6784 36.836 96.9104 37.108 95.8384 37.108ZM94.8184 35.14C94.8184 35.652 95.2664 35.908 96.1624 35.908C96.7784 35.908 97.2424 35.796 97.5544 35.572C97.8664 35.348 98.0624 34.996 98.1424 34.516V34.3H96.4984C95.3784 34.3 94.8184 34.58 94.8184 35.14ZM102.453 37H101.097V30.76H102.453V33.184H103.485L105.405 30.76H107.061L104.625 33.808L107.229 37H105.549L103.485 34.468H102.453V37ZM108.537 31.42C109.049 30.908 109.865 30.652 110.985 30.652C112.105 30.652 112.921 30.908 113.433 31.42C113.945 31.932 114.201 32.752 114.201 33.88C114.201 35.008 113.945 35.828 113.433 36.34C112.921 36.852 112.105 37.108 110.985 37.108C109.865 37.108 109.049 36.852 108.537 36.34C108.033 35.828 107.781 35.008 107.781 33.88C107.781 32.752 108.033 31.932 108.537 31.42ZM109.581 32.404C109.293 32.708 109.149 33.2 109.149 33.88C109.149 34.56 109.293 35.056 109.581 35.368C109.877 35.672 110.345 35.824 110.985 35.824C111.633 35.824 112.101 35.672 112.389 35.368C112.685 35.056 112.833 34.56 112.833 33.88C112.833 33.2 112.685 32.708 112.389 32.404C112.101 32.092 111.633 31.936 110.985 31.936C110.345 31.936 109.877 32.092 109.581 32.404ZM115.499 37V30.76H116.855V33.244H120.155V30.76H121.523V37H120.155V34.516H116.855V37H115.499ZM122.9 30.76H124.256V32.368C124.256 32.824 124.376 33.152 124.616 33.352C124.856 33.552 125.272 33.652 125.864 33.652C126.192 33.652 126.688 33.612 127.352 33.532V30.76H128.72V37H127.352V34.804C126.792 34.884 126.232 34.924 125.672 34.924C124.664 34.924 123.948 34.724 123.524 34.324C123.108 33.924 122.9 33.272 122.9 32.368V30.76ZM131.512 37H130.324V30.76H131.68V34.804L135.16 30.76H136.348V37H134.98V32.944L131.512 37ZM137.592 37V35.632H137.964C138.156 35.632 138.3 35.564 138.396 35.428C138.5 35.284 138.588 34.984 138.66 34.528C138.74 34.064 138.8 33.376 138.84 32.464L138.924 30.76H144.072V37H142.704V32.032H140.208L140.184 32.584C140.128 33.76 140.016 34.668 139.848 35.308C139.68 35.948 139.452 36.392 139.164 36.64C138.884 36.88 138.504 37 138.024 37H137.592ZM146.863 37H145.675V30.76H147.031V34.804L150.511 30.76H151.699V37H150.331V32.944L146.863 37ZM156.515 40V30.76H157.871V31.528C158.311 30.944 159.055 30.652 160.103 30.652C161.087 30.652 161.799 30.908 162.239 31.42C162.687 31.932 162.911 32.752 162.911 33.88C162.911 35.008 162.687 35.828 162.239 36.34C161.799 36.852 161.087 37.108 160.103 37.108C159.055 37.108 158.311 36.816 157.871 36.232V40H156.515ZM158.327 35.368C158.615 35.672 159.079 35.824 159.719 35.824C160.359 35.824 160.823 35.672 161.111 35.368C161.399 35.056 161.543 34.56 161.543 33.88C161.543 33.2 161.399 32.708 161.111 32.404C160.823 32.092 160.359 31.936 159.719 31.936C159.079 31.936 158.615 32.092 158.327 32.404C158.039 32.708 157.895 33.2 157.895 33.88C157.895 34.56 158.039 35.056 158.327 35.368ZM166.338 37.108C165.522 37.108 164.922 36.956 164.538 36.652C164.154 36.34 163.962 35.852 163.962 35.188C163.962 34.5 164.17 34.012 164.586 33.724C165.01 33.428 165.694 33.28 166.638 33.28H168.642C168.626 32.784 168.486 32.424 168.222 32.2C167.966 31.968 167.558 31.852 166.998 31.852C166.542 31.852 166.19 31.928 165.942 32.08C165.694 32.224 165.53 32.46 165.45 32.788H164.094C164.206 32.044 164.494 31.504 164.958 31.168C165.422 30.824 166.118 30.652 167.046 30.652C168.086 30.652 168.838 30.864 169.302 31.288C169.774 31.712 170.01 32.392 170.01 33.328V37H168.642V36.292C168.178 36.836 167.41 37.108 166.338 37.108ZM165.318 35.14C165.318 35.652 165.766 35.908 166.662 35.908C167.278 35.908 167.742 35.796 168.054 35.572C168.366 35.348 168.562 34.996 168.642 34.516V34.3H166.998C165.878 34.3 165.318 34.58 165.318 35.14ZM174.597 28.084L177.201 27.892V29.176L174.705 29.356C174.105 29.396 173.657 29.536 173.361 29.776C173.065 30.016 172.881 30.416 172.809 30.976C172.769 31.184 172.749 31.46 172.749 31.804C172.845 31.404 173.053 31.112 173.373 30.928C173.693 30.744 174.145 30.652 174.729 30.652C175.809 30.652 176.593 30.908 177.081 31.42C177.569 31.924 177.813 32.736 177.813 33.856C177.813 34.992 177.561 35.82 177.057 36.34C176.553 36.852 175.745 37.108 174.633 37.108C173.857 37.108 173.241 36.98 172.785 36.724C172.329 36.468 171.977 36.008 171.729 35.344C171.489 34.672 171.369 33.748 171.369 32.572C171.369 31.028 171.601 29.916 172.065 29.236C172.529 28.556 173.373 28.172 174.597 28.084ZM173.241 32.392C172.953 32.696 172.809 33.188 172.809 33.868C172.809 34.548 172.953 35.044 173.241 35.356C173.529 35.668 173.993 35.824 174.633 35.824C175.265 35.824 175.725 35.672 176.013 35.368C176.301 35.056 176.445 34.556 176.445 33.868C176.445 33.188 176.301 32.696 176.013 32.392C175.725 32.088 175.265 31.936 174.633 31.936C173.993 31.936 173.529 32.088 173.241 32.392ZM179.553 31.42C180.065 30.908 180.881 30.652 182.001 30.652C183.121 30.652 183.937 30.908 184.449 31.42C184.961 31.932 185.217 32.752 185.217 33.88C185.217 35.008 184.961 35.828 184.449 36.34C183.937 36.852 183.121 37.108 182.001 37.108C180.881 37.108 180.065 36.852 179.553 36.34C179.049 35.828 178.797 35.008 178.797 33.88C178.797 32.752 179.049 31.932 179.553 31.42ZM180.597 32.404C180.309 32.708 180.165 33.2 180.165 33.88C180.165 34.56 180.309 35.056 180.597 35.368C180.893 35.672 181.361 35.824 182.001 35.824C182.649 35.824 183.117 35.672 183.405 35.368C183.701 35.056 183.849 34.56 183.849 33.88C183.849 33.2 183.701 32.708 183.405 32.404C183.117 32.092 182.649 31.936 182.001 31.936C181.361 31.936 180.893 32.092 180.597 32.404ZM192.013 32.032H189.625V37H188.257V32.032H185.857V30.76H192.013V32.032ZM192.442 30.76H193.894L195.73 35.212L197.542 30.76H199.006L195.238 40H193.774L194.998 37L192.442 30.76ZM61.804 50V43.76H63.16V46.244H66.46V43.76H67.828V50H66.46V47.516H63.16V50H61.804ZM71.5689 50.108C70.7529 50.108 70.1529 49.956 69.7689 49.652C69.3849 49.34 69.1929 48.852 69.1929 48.188C69.1929 47.5 69.4009 47.012 69.8169 46.724C70.2409 46.428 70.9249 46.28 71.8689 46.28H73.8729C73.8569 45.784 73.7169 45.424 73.4529 45.2C73.1969 44.968 72.7889 44.852 72.2289 44.852C71.7729 44.852 71.4209 44.928 71.1729 45.08C70.9249 45.224 70.7609 45.46 70.6809 45.788H69.3249C69.4369 45.044 69.7249 44.504 70.1889 44.168C70.6529 43.824 71.3489 43.652 72.2769 43.652C73.3169 43.652 74.0689 43.864 74.5329 44.288C75.0049 44.712 75.2409 45.392 75.2409 46.328V50H73.8729V49.292C73.4089 49.836 72.6409 50.108 71.5689 50.108ZM70.5489 48.14C70.5489 48.652 70.9969 48.908 71.8929 48.908C72.5089 48.908 72.9729 48.796 73.2849 48.572C73.5969 48.348 73.7929 47.996 73.8729 47.516V47.3H72.2289C71.1089 47.3 70.5489 47.58 70.5489 48.14ZM77.7154 51.872H76.3594V48.728H77.2474C77.4714 48.56 77.6354 48.26 77.7394 47.828C77.8514 47.388 77.9354 46.6 77.9914 45.464L78.0754 43.76H83.2234V48.728H84.3754V51.872H83.0194V50H77.7154V51.872ZM78.8314 48.728H81.8554V45.032H79.3474L79.3234 45.584C79.2514 47.064 79.0874 48.112 78.8314 48.728ZM88.8392 50V43.76H92.0912C92.8912 43.76 93.4712 43.896 93.8312 44.168C94.1992 44.432 94.3832 44.864 94.3832 45.464C94.3832 46.064 94.1952 46.5 93.8192 46.772C94.3792 47.028 94.6592 47.52 94.6592 48.248C94.6592 48.864 94.4712 49.312 94.0952 49.592C93.7192 49.864 93.1152 50 92.2832 50H88.8392ZM92.1512 47.36H90.1952V48.812H92.1512C92.5592 48.812 92.8512 48.756 93.0272 48.644C93.2032 48.524 93.2912 48.336 93.2912 48.08C93.2912 47.824 93.2032 47.64 93.0272 47.528C92.8512 47.416 92.5592 47.36 92.1512 47.36ZM90.1952 46.34H91.9232C92.3072 46.34 92.5832 46.284 92.7512 46.172C92.9272 46.06 93.0152 45.884 93.0152 45.644C93.0152 45.18 92.6552 44.948 91.9352 44.948H90.1952V46.34ZM98.1002 50.108C97.2842 50.108 96.6842 49.956 96.3002 49.652C95.9162 49.34 95.7242 48.852 95.7242 48.188C95.7242 47.5 95.9322 47.012 96.3482 46.724C96.7722 46.428 97.4562 46.28 98.4002 46.28H100.404C100.388 45.784 100.248 45.424 99.9842 45.2C99.7282 44.968 99.3202 44.852 98.7602 44.852C98.3042 44.852 97.9522 44.928 97.7042 45.08C97.4562 45.224 97.2922 45.46 97.2122 45.788H95.8562C95.9682 45.044 96.2562 44.504 96.7202 44.168C97.1842 43.824 97.8802 43.652 98.8082 43.652C99.8482 43.652 100.6 43.864 101.064 44.288C101.536 44.712 101.772 45.392 101.772 46.328V50H100.404V49.292C99.9402 49.836 99.1722 50.108 98.1002 50.108ZM97.0802 48.14C97.0802 48.652 97.5282 48.908 98.4242 48.908C99.0402 48.908 99.5042 48.796 99.8162 48.572C100.128 48.348 100.324 47.996 100.404 47.516V47.3H98.7602C97.6402 47.3 97.0802 47.58 97.0802 48.14ZM103.359 50V43.76H104.715V48.728H107.283V43.76H108.651V48.728H111.207V43.76H112.575V50H103.359ZM115.375 50H114.187V43.76H115.543V47.804L119.023 43.76H120.211V50H118.843V45.944L115.375 50ZM121.816 50V43.76H124.036L126.052 48.572L128.068 43.76H130.288V50H128.932V45.008L126.784 50H125.32L123.172 45.008V50H121.816ZM137.913 50.108C136.825 50.108 136.033 49.852 135.537 49.34C135.041 48.828 134.793 48.008 134.793 46.88C134.793 45.752 135.041 44.932 135.537 44.42C136.033 43.908 136.825 43.652 137.913 43.652C138.881 43.652 139.609 43.848 140.097 44.24C140.585 44.632 140.885 45.256 140.997 46.112H139.641C139.553 45.696 139.373 45.396 139.101 45.212C138.829 45.028 138.441 44.936 137.937 44.936C137.313 44.936 136.861 45.092 136.581 45.404C136.301 45.708 136.161 46.2 136.161 46.88C136.161 47.56 136.301 48.056 136.581 48.368C136.861 48.672 137.313 48.824 137.937 48.824C138.433 48.824 138.817 48.732 139.089 48.548C139.369 48.356 139.553 48.056 139.641 47.648H140.997C140.893 48.496 140.593 49.12 140.097 49.52C139.609 49.912 138.881 50.108 137.913 50.108ZM144.413 50.108C143.597 50.108 142.997 49.956 142.613 49.652C142.229 49.34 142.037 48.852 142.037 48.188C142.037 47.5 142.245 47.012 142.661 46.724C143.085 46.428 143.769 46.28 144.713 46.28H146.717C146.701 45.784 146.561 45.424 146.297 45.2C146.041 44.968 145.633 44.852 145.073 44.852C144.617 44.852 144.265 44.928 144.017 45.08C143.769 45.224 143.605 45.46 143.525 45.788H142.169C142.281 45.044 142.569 44.504 143.033 44.168C143.497 43.824 144.193 43.652 145.121 43.652C146.161 43.652 146.913 43.864 147.377 44.288C147.849 44.712 148.085 45.392 148.085 46.328V50H146.717V49.292C146.253 49.836 145.485 50.108 144.413 50.108ZM143.393 48.14C143.393 48.652 143.841 48.908 144.737 48.908C145.353 48.908 145.817 48.796 146.129 48.572C146.441 48.348 146.637 47.996 146.717 47.516V47.3H145.073C143.953 47.3 143.393 47.58 143.393 48.14ZM149.671 50V43.76H151.027V47.804L154.507 43.76H155.695V50H154.327V45.944L150.859 50H149.671ZM150.511 41.192H151.615C151.615 41.536 151.703 41.788 151.879 41.948C152.055 42.1 152.331 42.176 152.707 42.176C153.091 42.176 153.367 42.1 153.535 41.948C153.711 41.788 153.799 41.536 153.799 41.192H154.903C154.903 41.84 154.727 42.324 154.375 42.644C154.031 42.956 153.475 43.112 152.707 43.112C151.955 43.112 151.399 42.956 151.039 42.644C150.687 42.324 150.511 41.84 150.511 41.192ZM162.868 45.032H160.48V50H159.112V45.032H156.712V43.76H162.868V45.032ZM164.271 44.42C164.783 43.908 165.599 43.652 166.719 43.652C167.839 43.652 168.655 43.908 169.167 44.42C169.679 44.932 169.935 45.752 169.935 46.88C169.935 48.008 169.679 48.828 169.167 49.34C168.655 49.852 167.839 50.108 166.719 50.108C165.599 50.108 164.783 49.852 164.271 49.34C163.767 48.828 163.515 48.008 163.515 46.88C163.515 45.752 163.767 44.932 164.271 44.42ZM165.315 45.404C165.027 45.708 164.883 46.2 164.883 46.88C164.883 47.56 165.027 48.056 165.315 48.368C165.611 48.672 166.079 48.824 166.719 48.824C167.367 48.824 167.835 48.672 168.123 48.368C168.419 48.056 168.567 47.56 168.567 46.88C168.567 46.2 168.419 45.708 168.123 45.404C167.835 45.092 167.367 44.936 166.719 44.936C166.079 44.936 165.611 45.092 165.315 45.404ZM171.234 50V43.76H173.454L175.47 48.572L177.486 43.76H179.706V50H178.35V45.008L176.202 50H174.738L172.59 45.008V50H171.234Z" fill="white" fill-opacity="0.7"/>
<circle cx="31.5" cy="29.5" r="21.5" fill="url(#paint1_linear_4656_38)"/>
<circle cx="31.5" cy="29.5" r="21" stroke="url(#paint2_linear_4656_38)" stroke-opacity="0.2"/>
<path d="M61.952 21V11.2H66.936C68.1493 11.2 69.0267 11.4613 69.568 11.984C70.1187 12.4973 70.394 13.328 70.394 14.476C70.394 15.624 70.1187 16.4593 69.568 16.982C69.0267 17.5047 68.1493 17.766 66.936 17.766H63.926V21H61.952ZM63.926 15.918H66.824C67.384 15.918 67.79 15.806 68.042 15.582C68.3033 15.3487 68.434 14.98 68.434 14.476C68.434 13.9813 68.3033 13.622 68.042 13.398C67.79 13.1647 67.384 13.048 66.824 13.048H63.926V15.918ZM73.983 21.126C73.0404 21.126 72.345 20.9487 71.897 20.594C71.4584 20.23 71.239 19.6513 71.239 18.858C71.239 18.046 71.4817 17.4673 71.967 17.122C72.4524 16.7673 73.2364 16.59 74.319 16.59H76.503C76.4657 16.0953 76.3117 15.7407 76.041 15.526C75.7797 15.302 75.369 15.19 74.809 15.19C73.9037 15.19 73.3717 15.512 73.213 16.156H71.393C71.505 15.26 71.8364 14.6113 72.387 14.21C72.9377 13.7993 73.7684 13.594 74.879 13.594C76.0924 13.594 76.9744 13.846 77.525 14.35C78.0757 14.8447 78.351 15.6473 78.351 16.758V21H76.503V20.314C75.971 20.8553 75.131 21.126 73.983 21.126ZM73.087 18.774C73.087 19.278 73.5397 19.53 74.445 19.53C75.0797 19.53 75.5557 19.418 75.873 19.194C76.1997 18.9607 76.4097 18.6013 76.503 18.116V17.948H74.809C73.661 17.948 73.087 18.2233 73.087 18.774ZM83.5106 10.57L86.5206 10.374V12.096L83.6506 12.292C83.0439 12.3387 82.5866 12.4693 82.2786 12.684C81.9706 12.8893 81.7699 13.2253 81.6766 13.692C81.6112 13.9907 81.5786 14.266 81.5786 14.518C81.8026 13.902 82.4932 13.594 83.6506 13.594C84.9199 13.594 85.8392 13.888 86.4086 14.476C86.9779 15.064 87.2626 16.0113 87.2626 17.318C87.2626 18.662 86.9639 19.6327 86.3666 20.23C85.7786 20.8273 84.8266 21.126 83.5106 21.126C82.5959 21.126 81.8726 20.9767 81.3406 20.678C80.8179 20.3793 80.4166 19.8473 80.1366 19.082C79.8566 18.3167 79.7166 17.2527 79.7166 15.89C79.7166 14.07 79.9919 12.754 80.5426 11.942C81.0932 11.13 82.0826 10.6727 83.5106 10.57ZM82.0686 15.792C81.7699 16.1093 81.6206 16.6273 81.6206 17.346C81.6206 18.0647 81.7699 18.5873 82.0686 18.914C82.3672 19.2407 82.8479 19.404 83.5106 19.404C84.1732 19.404 84.6539 19.2407 84.9526 18.914C85.2606 18.5873 85.4146 18.0647 85.4146 17.346C85.4146 16.6367 85.2606 16.1233 84.9526 15.806C84.6539 15.4793 84.1732 15.316 83.5106 15.316C82.8479 15.316 82.3672 15.4747 82.0686 15.792ZM89.1555 14.49C89.7529 13.8927 90.7095 13.594 92.0255 13.594C93.3415 13.594 94.2982 13.8927 94.8955 14.49C95.4929 15.0873 95.7915 16.044 95.7915 17.36C95.7915 18.6853 95.4929 19.6467 94.8955 20.244C94.2982 20.832 93.3415 21.126 92.0255 21.126C90.7095 21.126 89.7529 20.832 89.1555 20.244C88.5675 19.6467 88.2735 18.6853 88.2735 17.36C88.2735 16.044 88.5675 15.0873 89.1555 14.49ZM90.1075 17.36C90.1075 18.0693 90.2569 18.5873 90.5555 18.914C90.8635 19.2407 91.3535 19.404 92.0255 19.404C92.6975 19.404 93.1829 19.2407 93.4815 18.914C93.7895 18.5873 93.9435 18.0693 93.9435 17.36C93.9435 16.6413 93.7895 16.1233 93.4815 15.806C93.1829 15.4793 92.6975 15.316 92.0255 15.316C91.3535 15.316 90.8635 15.4793 90.5555 15.806C90.2569 16.1233 90.1075 16.6413 90.1075 17.36ZM96.4421 15.442V13.72H103.61V15.442H100.95V21H99.1021V15.442H96.4421ZM107.042 21.126C106.099 21.126 105.404 20.9487 104.956 20.594C104.517 20.23 104.298 19.6513 104.298 18.858C104.298 18.046 104.54 17.4673 105.026 17.122C105.511 16.7673 106.295 16.59 107.378 16.59H109.562C109.524 16.0953 109.37 15.7407 109.1 15.526C108.838 15.302 108.428 15.19 107.868 15.19C106.962 15.19 106.43 15.512 106.272 16.156H104.452C104.564 15.26 104.895 14.6113 105.446 14.21C105.996 13.7993 106.827 13.594 107.938 13.594C109.151 13.594 110.033 13.846 110.584 14.35C111.134 14.8447 111.41 15.6473 111.41 16.758V21H109.562V20.314C109.03 20.8553 108.19 21.126 107.042 21.126ZM106.146 18.774C106.146 19.278 106.598 19.53 107.504 19.53C108.138 19.53 108.614 19.418 108.932 19.194C109.258 18.9607 109.468 18.6013 109.562 18.116V17.948H107.868C106.72 17.948 106.146 18.2233 106.146 18.774ZM120.079 21.126C118.875 21.126 117.974 20.9207 117.377 20.51C116.789 20.0993 116.443 19.4413 116.341 18.536H118.189C118.282 18.8813 118.469 19.1333 118.749 19.292C119.038 19.4507 119.453 19.53 119.995 19.53C120.947 19.53 121.423 19.264 121.423 18.732C121.423 18.48 121.329 18.298 121.143 18.186C120.965 18.074 120.671 18.018 120.261 18.018H118.987V16.66H120.191C120.919 16.66 121.283 16.4267 121.283 15.96C121.283 15.4467 120.835 15.19 119.939 15.19C119.425 15.19 119.033 15.2693 118.763 15.428C118.492 15.5773 118.315 15.8293 118.231 16.184H116.383C116.485 15.2787 116.826 14.6207 117.405 14.21C117.983 13.7993 118.856 13.594 120.023 13.594C121.096 13.594 121.88 13.7667 122.375 14.112C122.879 14.4573 123.131 15.008 123.131 15.764C123.131 16.4733 122.893 16.9867 122.417 17.304C122.986 17.612 123.271 18.1627 123.271 18.956C123.271 19.712 123.014 20.2627 122.501 20.608C121.987 20.9533 121.18 21.126 120.079 21.126ZM127.057 21.126C126.115 21.126 125.419 20.9487 124.971 20.594C124.533 20.23 124.313 19.6513 124.313 18.858C124.313 18.046 124.556 17.4673 125.041 17.122C125.527 16.7673 126.311 16.59 127.393 16.59H129.577C129.54 16.0953 129.386 15.7407 129.115 15.526C128.854 15.302 128.443 15.19 127.883 15.19C126.978 15.19 126.446 15.512 126.287 16.156H124.467C124.579 15.26 124.911 14.6113 125.461 14.21C126.012 13.7993 126.843 13.594 127.953 13.594C129.167 13.594 130.049 13.846 130.599 14.35C131.15 14.8447 131.425 15.6473 131.425 16.758V21H129.577V20.314C129.045 20.8553 128.205 21.126 127.057 21.126ZM126.161 18.774C126.161 19.278 126.614 19.53 127.519 19.53C128.154 19.53 128.63 19.418 128.947 19.194C129.274 18.9607 129.484 18.6013 129.577 18.116V17.948H127.883C126.735 17.948 126.161 18.2233 126.161 18.774ZM133.029 21V13.72H134.877V16.436H135.899L137.971 13.72H140.225L137.453 17.276L140.421 21H138.153L135.899 18.158H134.877V21H133.029ZM141.792 14.49C142.39 13.8927 143.346 13.594 144.662 13.594C145.978 13.594 146.935 13.8927 147.532 14.49C148.13 15.0873 148.428 16.044 148.428 17.36C148.428 18.6853 148.13 19.6467 147.532 20.244C146.935 20.832 145.978 21.126 144.662 21.126C143.346 21.126 142.39 20.832 141.792 20.244C141.204 19.6467 140.91 18.6853 140.91 17.36C140.91 16.044 141.204 15.0873 141.792 14.49ZM142.744 17.36C142.744 18.0693 142.894 18.5873 143.192 18.914C143.5 19.2407 143.99 19.404 144.662 19.404C145.334 19.404 145.82 19.2407 146.118 18.914C146.426 18.5873 146.58 18.0693 146.58 17.36C146.58 16.6413 146.426 16.1233 146.118 15.806C145.82 15.4793 145.334 15.316 144.662 15.316C143.99 15.316 143.5 15.4793 143.192 15.806C142.894 16.1233 142.744 16.6413 142.744 17.36ZM149.736 21V13.72H151.584V16.492H154.986V13.72H156.834V21H154.986V18.228H151.584V21H149.736ZM158.22 13.72H160.068V15.596C160.068 16.072 160.19 16.4173 160.432 16.632C160.684 16.8373 161.114 16.94 161.72 16.94C162.234 16.94 162.766 16.898 163.316 16.814V13.72H165.164V21H163.316V18.536C162.663 18.6293 162.038 18.676 161.44 18.676C160.283 18.676 159.457 18.4333 158.962 17.948C158.468 17.4627 158.22 16.6787 158.22 15.596V13.72ZM167.359 20.23C166.771 19.6327 166.477 18.676 166.477 17.36C166.477 16.044 166.771 15.0873 167.359 14.49C167.947 13.8927 168.899 13.594 170.215 13.594C171.521 13.594 172.464 13.8927 173.043 14.49C173.631 15.0873 173.925 16.044 173.925 17.36C173.925 17.4907 173.915 17.6867 173.897 17.948H168.367C168.488 19.0027 169.109 19.53 170.229 19.53C171.069 19.53 171.624 19.2453 171.895 18.676H173.799C173.612 19.5813 173.215 20.216 172.609 20.58C172.002 20.944 171.204 21.126 170.215 21.126C168.899 21.126 167.947 20.8273 167.359 20.23ZM170.229 15.19C169.706 15.19 169.291 15.2973 168.983 15.512C168.675 15.7267 168.479 16.0813 168.395 16.576H172.063C171.979 16.0813 171.783 15.7267 171.475 15.512C171.176 15.2973 170.761 15.19 170.229 15.19ZM175.22 21V13.72H177.068V16.492H180.47V13.72H182.318V21H180.47V18.228H177.068V21H175.22ZM186.407 21.126C185.464 21.126 184.769 20.9487 184.321 20.594C183.882 20.23 183.663 19.6513 183.663 18.858C183.663 18.046 183.906 17.4673 184.391 17.122C184.876 16.7673 185.66 16.59 186.743 16.59H188.927C188.89 16.0953 188.736 15.7407 188.465 15.526C188.204 15.302 187.793 15.19 187.233 15.19C186.328 15.19 185.796 15.512 185.637 16.156H183.817C183.929 15.26 184.26 14.6113 184.811 14.21C185.362 13.7993 186.192 13.594 187.303 13.594C188.516 13.594 189.398 13.846 189.949 14.35C190.5 14.8447 190.775 15.6473 190.775 16.758V21H188.927V20.314C188.395 20.8553 187.555 21.126 186.407 21.126ZM185.511 18.774C185.511 19.278 185.964 19.53 186.869 19.53C187.504 19.53 187.98 19.418 188.297 19.194C188.624 18.9607 188.834 18.6013 188.927 18.116V17.948H187.233C186.085 17.948 185.511 18.2233 185.511 18.774ZM192.644 17.598L192.518 11.2H194.492L194.366 17.598H192.644ZM193.512 18.606C193.951 18.606 194.268 18.7087 194.464 18.914C194.67 19.11 194.772 19.4273 194.772 19.866C194.772 20.3047 194.67 20.6267 194.464 20.832C194.268 21.028 193.951 21.126 193.512 21.126C193.064 21.126 192.738 21.028 192.532 20.832C192.336 20.6267 192.238 20.3047 192.238 19.866C192.238 19.4273 192.336 19.11 192.532 18.914C192.738 18.7087 193.064 18.606 193.512 18.606Z" fill="white" fill-opacity="0.9"/>
<path d="M20.5364 33.3749H26.5553C26.4101 32.1509 26.3333 30.849 26.3333 29.4999C26.3333 28.1508 26.4101 26.849 26.5553 25.6249H20.5364C20.108 26.8369 19.8749 28.1412 19.8749 29.4999C19.8749 30.8586 20.108 32.1629 20.5364 33.3749ZM21.0833 34.6666C22.6209 37.7606 25.4964 40.0724 28.9528 40.845C27.9464 39.4752 27.1756 37.2979 26.7385 34.6666H21.0833ZM42.4634 33.3749C42.8918 32.1629 43.1249 30.8586 43.1249 29.4999C43.1249 28.1412 42.8918 26.8369 42.4634 25.6249H36.4445C36.5897 26.849 36.6666 28.1508 36.6666 29.4999C36.6666 30.849 36.5897 32.1509 36.4445 33.3749H42.4634ZM41.9165 34.6666H36.2613C35.8242 37.2979 35.0534 39.4752 34.0471 40.845C37.5035 40.0724 40.379 37.7606 41.9165 34.6666ZM27.8631 33.3749H35.1367C35.2897 32.1638 35.3749 30.8598 35.3749 29.4999C35.3749 28.14 35.2897 26.836 35.1367 25.6249H27.8631C27.7101 26.836 27.6249 28.14 27.6249 29.4999C27.6249 30.8598 27.7101 32.1638 27.8631 33.3749ZM28.0576 34.6666C28.7321 38.5 30.1024 41.1249 31.4999 41.1249C32.8974 41.1249 34.2677 38.5 34.9422 34.6666H28.0576ZM21.0833 24.3333H26.7385C27.1756 21.702 27.9464 19.5247 28.9528 18.1548C25.4964 18.9275 22.6209 21.2393 21.0833 24.3333ZM41.9165 24.3333C40.379 21.2393 37.5035 18.9275 34.0471 18.1548C35.0534 19.5247 35.8242 21.702 36.2613 24.3333H41.9165ZM28.0576 24.3333H34.9422C34.2677 20.4998 32.8974 17.8749 31.4999 17.8749C30.1024 17.8749 28.7321 20.4998 28.0576 24.3333ZM31.4999 42.4166C24.3662 42.4166 18.5833 36.6336 18.5833 29.4999C18.5833 22.3662 24.3662 16.5833 31.4999 16.5833C38.6336 16.5833 44.4166 22.3662 44.4166 29.4999C44.4166 36.6336 38.6336 42.4166 31.4999 42.4166Z" fill="url(#paint3_linear_4656_38)"/>
<defs>
<filter id="filter0_b_4656_38" x="-30" y="-30" width="275" height="120" filterUnits="userSpaceOnUse" color-interpolation-filters="sRGB">
<feFlood flood-opacity="0" result="BackgroundImageFix"/>
<feGaussianBlur in="BackgroundImageFix" stdDeviation="15"/>
<feComposite in2="SourceAlpha" operator="in" result="effect1_backgroundBlur_4656_38"/>
<feBlend mode="normal" in="SourceGraphic" in2="effect1_backgroundBlur_4656_38" result="shape"/>
</filter>
<linearGradient id="paint0_linear_4656_38" x1="108" y1="0.999997" x2="108" y2="59" gradientUnits="userSpaceOnUse">
<stop stop-color="white"/>
<stop offset="1" stop-color="white" stop-opacity="0"/>
</linearGradient>
<linearGradient id="paint1_linear_4656_38" x1="25" y1="12.5" x2="37.5" y2="44.5" gradientUnits="userSpaceOnUse">
<stop stop-color="#DF20FE"/>
<stop offset="1" stop-color="#7B0F8C"/>
</linearGradient>
<linearGradient id="paint2_linear_4656_38" x1="31.5" y1="8" x2="31.5" y2="51" gradientUnits="userSpaceOnUse">
<stop stop-color="white"/>
<stop offset="1" stop-color="white" stop-opacity="0"/>
</linearGradient>
<linearGradient id="paint3_linear_4656_38" x1="35.9999" y1="39" x2="25.4999" y2="19" gradientUnits="userSpaceOnUse">
<stop stop-color="#5E096C"/>
<stop offset="1" stop-color="#951EA9"/>
</linearGradient>
</defs>
</svg>
