<svg width="128" height="128" viewBox="0 0 128 128" fill="none" xmlns="http://www.w3.org/2000/svg">
<path d="M14 60C14 32.3858 36.3858 10 64 10C91.6142 10 114 32.3858 114 60C114 87.6142 91.6142 110 64 110C36.3858 110 14 87.6142 14 60Z" fill="white"/>
<path fill-rule="evenodd" clip-rule="evenodd" d="M61.6105 38.139C62.075 38.1383 62.5747 38.1385 63.1139 38.1387L64.0027 38.139C71.1228 38.139 71.9667 38.1645 74.7784 38.2923C77.3784 38.4112 78.7895 38.8457 79.7295 39.2107C80.974 39.694 81.8612 40.2718 82.794 41.2051C83.7273 42.1385 84.3051 43.0274 84.7896 44.2718C85.1546 45.2107 85.5896 46.6219 85.7079 49.2219C85.8357 52.033 85.8635 52.8775 85.8635 59.9942C85.8635 67.111 85.8357 67.9554 85.7079 70.7666C85.589 73.3666 85.1546 74.7777 84.7896 75.7166C84.3062 76.9611 83.7273 77.8472 82.794 78.78C81.8607 79.7133 80.9745 80.2911 79.7295 80.7744C78.7906 81.1411 77.3784 81.5744 74.7784 81.6933C71.9672 81.8211 71.1228 81.8489 64.0027 81.8489C56.8821 81.8489 56.0382 81.8211 53.227 81.6933C50.627 81.5733 49.2159 81.1389 48.2753 80.7739C47.0309 80.2905 46.142 79.7128 45.2086 78.7794C44.2753 77.8461 43.6975 76.9594 43.213 75.7144C42.848 74.7755 42.413 73.3644 42.2947 70.7643C42.1669 67.9532 42.1414 67.1087 42.1414 59.9876C42.1414 52.8664 42.1669 52.0264 42.2947 49.2152C42.4136 46.6152 42.848 45.2041 43.213 44.2641C43.6964 43.0196 44.2753 42.1307 45.2086 41.1974C46.142 40.264 47.0309 39.6862 48.2753 39.2018C49.2153 38.8351 50.627 38.4018 53.227 38.2823C55.6871 38.1712 56.6404 38.1379 61.6105 38.1323V38.139ZM78.2369 42.5666C76.4702 42.5666 75.0369 43.9983 75.0369 45.7655C75.0369 47.5322 76.4702 48.9656 78.2369 48.9656C80.0036 48.9656 81.4369 47.5322 81.4369 45.7655C81.4369 43.9989 80.0036 42.5655 78.2369 42.5655V42.5666ZM50.3087 60.0003C50.3087 52.4375 56.4404 46.3057 64.0033 46.3057H64.0027C71.5656 46.3057 77.6956 52.4375 77.6956 60.0003C77.6956 67.5632 71.5661 73.6921 64.0033 73.6921C56.4404 73.6921 50.3087 67.5632 50.3087 60.0003Z" fill="white"/>
<path d="M64.0023 51.1113C68.9112 51.1113 72.8912 55.0908 72.8912 60.0003C72.8912 64.9092 68.9112 68.8893 64.0023 68.8893C59.0928 68.8893 55.1133 64.9092 55.1133 60.0003C55.1133 55.0908 59.0928 51.1113 64.0023 51.1113Z" fill="white"/>
<g opacity="0.1" filter="url(#filter0_d_4642_49)">
<circle cx="64" cy="60" r="59.5" stroke="white" shape-rendering="crispEdges"/>
</g>
<path d="M58.846 68.3979L58.1733 79.577C59.1618 79.577 59.5986 79.0756 60.1504 78.4806L64.8999 73.3585L74.7811 81.4551C76.5995 82.568 77.912 81.9918 78.3649 79.5827L84.8515 45.6811C85.5157 42.728 83.8366 41.3887 82.097 42.2646L44.0077 58.5538C41.4078 59.7103 41.4229 61.3191 43.5338 62.0359L53.3084 65.4195L75.9375 49.5857C77.0058 48.8673 77.9862 49.2535 77.1815 50.0456L58.8455 68.3974L58.846 68.3979Z" fill="#161617"/>
<defs>
<filter id="filter0_d_4642_49" x="0" y="0" width="128" height="128" filterUnits="userSpaceOnUse" color-interpolation-filters="sRGB">
<feFlood flood-opacity="0" result="BackgroundImageFix"/>
<feColorMatrix in="SourceAlpha" type="matrix" values="0 0 0 0 0 0 0 0 0 0 0 0 0 0 0 0 0 0 127 0" result="hardAlpha"/>
<feOffset dy="4"/>
<feGaussianBlur stdDeviation="2"/>
<feComposite in2="hardAlpha" operator="out"/>
<feColorMatrix type="matrix" values="0 0 0 0 0 0 0 0 0 0 0 0 0 0 0 0 0 0 0.25 0"/>
<feBlend mode="normal" in2="BackgroundImageFix" result="effect1_dropShadow_4642_49"/>
<feBlend mode="normal" in="SourceGraphic" in2="effect1_dropShadow_4642_49" result="shape"/>
</filter>
</defs>
</svg>
