<svg width="120" height="120" viewBox="0 0 120 120" fill="none" xmlns="http://www.w3.org/2000/svg">
<path d="M10 60C10 32.3858 32.3858 10 60 10C87.6142 10 110 32.3858 110 60C110 87.6142 87.6142 110 60 110C32.3858 110 10 87.6142 10 60Z" fill="white"/>
<circle opacity="0.1" cx="60" cy="60" r="59.5" stroke="white"/>
<path d="M36.5312 45.3359V73.6641H50.2168C51.4849 73.6641 60.2178 73.4069 60.2178 65.4336C60.2178 60.451 56.7904 58.7583 55.0498 58.2559C56.3298 57.6517 58.8779 56.2162 58.8779 52.3701C58.8779 50.2288 58.5729 45.3359 49.834 45.3359H36.5312ZM67.7305 47.9678V50.5518H78.3057V47.9678H67.7305ZM42.752 50.1689H48.5898C49.1401 50.1689 52.8486 49.8759 52.8486 53.4229C52.8486 56.4554 50.1689 56.7725 49.0684 56.7725H42.752V50.1689ZM73.2812 52.8965C65.2841 52.8965 63.6152 59.8409 63.6152 62.8496C63.6152 71.7799 70.9365 72.8027 73.2812 72.8027C79.6036 72.8027 81.3981 68.7114 82.1338 66.4385H77.54C77.3606 67.0247 76.0208 68.9268 73.4727 68.9268C69.2019 68.9268 68.8311 65.5891 68.8311 64.0938H82.4209C82.696 58.9258 80.4351 52.8965 73.2812 52.8965ZM73.1377 56.7725C74.4117 56.7725 75.4406 57.1433 76.0566 57.8252C76.6727 58.5131 77.1273 59.5179 77.2529 60.8398H68.8311C68.855 60.475 68.9387 60.0563 69.0703 59.5957C69.2019 59.1232 69.4053 58.6746 69.7402 58.2559C70.0752 57.8431 70.5417 57.4843 71.0801 57.2031C71.6304 56.916 72.3123 56.7725 73.1377 56.7725ZM42.752 61.0312H49.499C50.8389 61.0312 53.9971 61.2406 53.9971 65.0986C53.9971 68.837 50.0194 68.8311 49.4033 68.8311H42.752V61.0312Z" fill="black"/>
</svg>
