<svg width="467" height="130" viewBox="0 0 567 177" fill="none" xmlns="http://www.w3.org/2000/svg">
<g opacity="0.5">
<path d="M528 3L530.036 8.96353L536 11L530.036 13.0365L528 19L525.964 13.0365L520 11L525.964 8.96353L528 3Z" fill="url(#paint0_radial_4642_42)"/>
</g>
<path d="M45.875 89V21.8H59.411V48.2H69.779L90.899 21.8H107.315L81.011 54.44L109.523 89H92.723L69.875 60.872H59.411V89H45.875ZM119.771 44.36C123.867 40.264 130.427 38.216 139.451 38.216C148.475 38.216 155.035 40.264 159.131 44.36C163.227 48.456 165.275 55.016 165.275 64.04C165.275 73.128 163.227 79.72 159.131 83.816C155.035 87.848 148.475 89.864 139.451 89.864C130.427 89.864 123.867 87.848 119.771 83.816C115.739 79.72 113.723 73.128 113.723 64.04C113.723 55.016 115.739 48.456 119.771 44.36ZM126.299 64.04C126.299 68.904 127.323 72.456 129.371 74.696C131.483 76.936 134.843 78.056 139.451 78.056C144.059 78.056 147.387 76.936 149.435 74.696C151.547 72.456 152.603 68.904 152.603 64.04C152.603 59.112 151.547 55.56 149.435 53.384C147.387 51.144 144.059 50.024 139.451 50.024C134.843 50.024 131.483 51.144 129.371 53.384C127.323 55.56 126.299 59.112 126.299 64.04ZM176.161 89V39.08H188.833V58.088H212.161V39.08H224.833V89H212.161V69.992H188.833V89H176.161ZM233.67 50.888V39.08H282.822V50.888H264.582V89H251.91V50.888H233.67ZM308.272 89.864C301.808 89.864 297.04 88.648 293.968 86.216C290.96 83.72 289.456 79.752 289.456 74.312C289.456 68.744 291.12 64.776 294.448 62.408C297.776 59.976 303.152 58.76 310.576 58.76H325.552C325.296 55.368 324.24 52.936 322.384 51.464C320.592 49.928 317.776 49.16 313.936 49.16C307.728 49.16 304.08 51.368 302.992 55.784H290.512C291.28 49.64 293.552 45.192 297.328 42.44C301.104 39.624 306.8 38.216 314.416 38.216C322.736 38.216 328.784 39.944 332.56 43.4C336.336 46.792 338.224 52.296 338.224 59.912V89H325.552V84.296C321.904 88.008 316.144 89.864 308.272 89.864ZM302.128 73.736C302.128 77.192 305.232 78.92 311.44 78.92C315.792 78.92 319.056 78.152 321.232 76.616C323.472 75.016 324.912 72.552 325.552 69.224V68.072H313.936C306.064 68.072 302.128 69.96 302.128 73.736ZM351.14 89V39.08H363.812V57.704H370.82L385.028 39.08H400.484L381.476 63.464L401.828 89H386.276L370.82 69.512H363.812V89H351.14ZM406.492 50.888V39.08H455.644V50.888H437.404V89H424.732V50.888H406.492ZM489.824 89H464.48V39.08H477.152V52.808H489.728C496.896 52.808 502.08 54.248 505.28 57.128C508.48 60.008 510.08 64.616 510.08 70.952C510.08 77.224 508.48 81.8 505.28 84.68C502.08 87.56 496.928 89 489.824 89ZM517.76 89V39.08H530.432V89H517.76ZM488.576 64.616H477.152V77.192H488.672C491.744 77.192 493.984 76.712 495.392 75.752C496.8 74.728 497.504 73.128 497.504 70.952C497.504 68.712 496.8 67.112 495.392 66.152C493.984 65.128 491.712 64.616 488.576 64.616Z" fill="white"/>
<path d="M551.867 7.17578L555.719 20.5484L567 25.115L555.719 29.6815L551.867 43.0542L548.014 29.6815L536.733 25.115L548.014 20.5484L551.867 7.17578Z" fill="url(#paint1_radial_4642_42)"/>
<path d="M15.1335 138.729L11.2811 125.357L1.90735e-06 120.79L11.2811 116.224L15.1335 102.851L18.9858 116.224L30.2669 120.79L18.9858 125.357L15.1335 138.729Z" fill="url(#paint2_radial_4642_42)"/>
<g opacity="0.5">
<path d="M51.4537 177L49.3991 169.868L43.3826 167.432L49.3991 164.997L51.4537 157.865L53.5083 164.997L59.5249 167.432L53.5083 169.868L51.4537 177Z" fill="url(#paint3_radial_4642_42)"/>
</g>
<defs>
<radialGradient id="paint0_radial_4642_42" cx="0" cy="0" r="1" gradientUnits="userSpaceOnUse" gradientTransform="translate(528 11) rotate(90) scale(8)">
<stop stop-color="#2EECC5"/>
<stop offset="1" stop-color="#05725B"/>
</radialGradient>
<radialGradient id="paint1_radial_4642_42" cx="0" cy="0" r="1" gradientUnits="userSpaceOnUse" gradientTransform="translate(551.867 25.115) rotate(90) scale(17.9392 15.1335)">
<stop stop-color="#2EECC5"/>
<stop offset="1" stop-color="#02896D"/>
</radialGradient>
<radialGradient id="paint2_radial_4642_42" cx="0" cy="0" r="1" gradientUnits="userSpaceOnUse" gradientTransform="translate(15.1335 120.79) rotate(-90) scale(17.9392 15.1335)">
<stop stop-color="#2EECC5"/>
<stop offset="1" stop-color="#0F826A"/>
</radialGradient>
<radialGradient id="paint3_radial_4642_42" cx="0" cy="0" r="1" gradientUnits="userSpaceOnUse" gradientTransform="translate(51.4537 167.432) rotate(-90) scale(9.56757 8.07117)">
<stop stop-color="#2EECC5"/>
<stop offset="1" stop-color="#05B691"/>
</radialGradient>
</defs>
</svg>
