<svg width="70" height="70" viewBox="0 0 70 70" fill="none" xmlns="http://www.w3.org/2000/svg">
<g clip-path="url(#clip0_63_11)">
<g filter="url(#filter0_d_63_11)">
<rect x="5" y="5" width="60" height="60" rx="30" fill="url(#paint0_linear_63_11)"/>
<rect x="5.75" y="5.75" width="58.5" height="58.5" rx="29.25" stroke="#2EECC5" stroke-opacity="0.5" stroke-width="1.5"/>
</g>
<g filter="url(#filter1_d_63_11)">
<rect x="0.75" y="0.75" width="68.5" height="68.5" rx="34.25" stroke="#153630" stroke-width="1.5" shape-rendering="crispEdges"/>
</g>
<path d="M26.9393 33.9393C26.3536 34.5251 26.3536 35.4749 26.9393 36.0607L36.4853 45.6066C37.0711 46.1924 38.0208 46.1924 38.6066 45.6066C39.1924 45.0208 39.1924 44.0711 38.6066 43.4853L30.1213 35L38.6066 26.5147C39.1924 25.9289 39.1924 24.9792 38.6066 24.3934C38.0208 23.8076 37.0711 23.8076 36.4853 24.3934L26.9393 33.9393ZM29 33.5H28V36.5H29V33.5Z" fill="#2C8E7A"/>
</g>
<defs>
<filter id="filter0_d_63_11" x="-101" y="-101" width="272" height="272" filterUnits="userSpaceOnUse" color-interpolation-filters="sRGB">
<feFlood flood-opacity="0" result="BackgroundImageFix"/>
<feColorMatrix in="SourceAlpha" type="matrix" values="0 0 0 0 0 0 0 0 0 0 0 0 0 0 0 0 0 0 127 0" result="hardAlpha"/>
<feOffset/>
<feGaussianBlur stdDeviation="53"/>
<feComposite in2="hardAlpha" operator="out"/>
<feColorMatrix type="matrix" values="0 0 0 0 0.180392 0 0 0 0 0.92549 0 0 0 0 0.772549 0 0 0 0.1 0"/>
<feBlend mode="normal" in2="BackgroundImageFix" result="effect1_dropShadow_63_11"/>
<feBlend mode="normal" in="SourceGraphic" in2="effect1_dropShadow_63_11" result="shape"/>
</filter>
<filter id="filter1_d_63_11" x="-106" y="-106" width="282" height="282" filterUnits="userSpaceOnUse" color-interpolation-filters="sRGB">
<feFlood flood-opacity="0" result="BackgroundImageFix"/>
<feColorMatrix in="SourceAlpha" type="matrix" values="0 0 0 0 0 0 0 0 0 0 0 0 0 0 0 0 0 0 127 0" result="hardAlpha"/>
<feOffset/>
<feGaussianBlur stdDeviation="53"/>
<feComposite in2="hardAlpha" operator="out"/>
<feColorMatrix type="matrix" values="0 0 0 0 0.180392 0 0 0 0 0.92549 0 0 0 0 0.772549 0 0 0 0.1 0"/>
<feBlend mode="normal" in2="BackgroundImageFix" result="effect1_dropShadow_63_11"/>
<feBlend mode="normal" in="SourceGraphic" in2="effect1_dropShadow_63_11" result="shape"/>
</filter>
<linearGradient id="paint0_linear_63_11" x1="22" y1="13" x2="35" y2="65" gradientUnits="userSpaceOnUse">
<stop stop-color="#19201F"/>
<stop offset="1" stop-color="#323939"/>
</linearGradient>
<clipPath id="clip0_63_11">
<rect width="1920" height="4824" fill="white" transform="translate(-960 -2414)"/>
</clipPath>
</defs>
</svg>
