<svg width="70" height="70" viewBox="0 0 70 70" fill="none" xmlns="http://www.w3.org/2000/svg">
<g clip-path="url(#clip0_19_4218)">
<path d="M-1544.89 -7.73085C-1110.09 282.032 -731.538 -286.285 -417.443 -306.974C35.2182 -336.776 155.621 198.647 376.627 -41.8595C597.634 -282.366 805.602 -492.195 1018.21 -109.176C1230.82 273.843 1417.53 69.8982 1417.53 69.8982" stroke="white" stroke-opacity="0.1" stroke-width="0.6482" stroke-miterlimit="10"/>
<path d="M1417.11 60.0723C1413.28 58.5719 1219.83 269.621 1006.95 -104.908C794.058 -479.436 592.102 -289.949 370.466 -53.8886C148.207 182.266 27.4258 -323.699 -428.357 -295.057C-743.914 -275.123 -1116.89 261.861 -1543.86 -24.915" stroke="white" stroke-opacity="0.1" stroke-width="0.6553" stroke-miterlimit="10"/>
<path d="M1416.65 50.2951C1408.99 47.2943 1208.77 265.439 995.634 -100.591C782.497 -466.62 586.553 -297.475 364.258 -65.8692C140.747 165.933 19.625 -310.593 -439.317 -283.093C-756.299 -263.932 -1123.71 241.652 -1542.81 -42.0907" stroke="white" stroke-opacity="0.1" stroke-width="0.6623" stroke-miterlimit="10"/>
<path d="M1416.23 40.4978C1404.73 35.9965 1197.77 261.245 984.359 -96.2936C770.945 -453.833 581.012 -305.03 358.05 -77.8497C133.259 149.592 11.8152 -297.459 -450.277 -271.128C-768.675 -252.769 -1130.51 221.481 -1541.78 -59.3036" stroke="white" stroke-opacity="0.1" stroke-width="0.6694" stroke-miterlimit="10"/>
<path d="M1415.78 30.692C1400.48 24.6989 1186.72 257.035 973.056 -92.0051C759.392 -441.045 575.969 -312.059 351.851 -89.8588C126.315 133.728 4.05159 -284.373 -461.237 -259.163C-781.059 -241.578 -1137.34 201.302 -1540.72 -76.4792" stroke="white" stroke-opacity="0.1" stroke-width="0.6764" stroke-miterlimit="10"/>
<path d="M1415.32 20.9148C1396.19 13.3926 1175.69 252.861 961.744 -87.6881C747.839 -428.257 570.517 -319.493 345.644 -101.839C118.972 117.525 -3.75812 -271.239 -472.189 -247.227C-793.435 -230.416 -1144.14 181.102 -1539.67 -93.6548" stroke="white" stroke-opacity="0.1" stroke-width="0.6835" stroke-miterlimit="10"/>
<path d="M1414.9 11.1176C1391.94 2.095 1164.66 248.659 950.47 -83.391C736.287 -415.47 565.093 -326.919 339.445 -113.849C111.61 101.284 -11.5504 -258.162 -483.14 -235.29C-805.819 -219.225 -1150.97 160.922 -1538.64 -110.868" stroke="white" stroke-opacity="0.1" stroke-width="0.6905" stroke-miterlimit="10"/>
<path d="M1414.44 1.31188C1387.65 -9.21119 1153.64 244.457 939.175 -79.1312C724.715 -402.719 559.641 -334.352 333.246 -125.858C104.248 85.0441 -19.3514 -245.056 -494.092 -223.354C-818.204 -208.034 -1157.76 140.723 -1537.59 -128.043" stroke="white" stroke-opacity="0.1" stroke-width="0.6976" stroke-miterlimit="10"/>
<path d="M1413.99 -8.49409C1383.37 -20.5176 1142.58 240.246 927.872 -74.8429C713.154 -389.903 554.16 -341.795 327.038 -137.838C96.8765 68.8322 -27.1523 -231.95 -505.052 -211.389C-830.608 -196.88 -1164.59 120.543 -1536.56 -145.228" stroke="white" stroke-opacity="0.1" stroke-width="0.7046" stroke-miterlimit="10"/>
<path d="M1413.56 -18.2628C1379.1 -31.7867 1131.58 236.081 916.588 -70.5173C701.601 -377.115 548.699 -349.201 320.839 -149.847C89.514 52.5916 -34.9449 -218.873 -516.004 -199.453C-842.993 -185.689 -1171.39 100.343 -1535.5 -162.432" stroke="white" stroke-opacity="0.1" stroke-width="0.7117" stroke-miterlimit="10"/>
<path d="M1413.11 -28.0686C1374.82 -43.0929 1120.52 231.87 905.285 -66.2289C690.049 -364.328 543.219 -356.643 314.64 -161.857C82.123 36.3424 -42.7458 -205.768 -526.935 -187.479C-855.34 -174.518 -1178.19 80.1722 -1534.45 -179.608" stroke="white" stroke-opacity="0.1" stroke-width="0.7187" stroke-miterlimit="10"/>
<path d="M1412.66 -37.8744C1370.56 -54.3906 1109.5 227.668 893.982 -61.9405C678.496 -351.54 537.738 -364.086 308.432 -173.837C74.7321 20.0932 -50.518 -192.653 -537.887 -175.543C-867.753 -163.336 -1185.02 59.9925 -1533.43 -196.792" stroke="white" stroke-opacity="0.1" stroke-width="0.7257" stroke-miterlimit="10"/>
<path d="M1412.24 -47.6717C1366.31 -65.6882 1098.47 223.466 882.708 -57.6434C666.944 -338.753 532.228 -371.538 302.233 -185.846C67.3124 3.83543 -58.3477 -179.556 -548.867 -163.616C-880.129 -152.174 -1191.81 39.7929 -1532.37 -213.996" stroke="white" stroke-opacity="0.1" stroke-width="0.7328" stroke-miterlimit="10"/>
<path d="M1411.78 -57.4489C1362.03 -76.9946 1087.44 219.292 871.396 -53.3263C655.354 -325.945 526.719 -378.989 296.026 -197.827C59.9126 -12.3851 -66.1488 -166.451 -559.827 -151.651C-892.514 -140.983 -1198.64 19.6132 -1531.34 -231.18" stroke="white" stroke-opacity="0.1" stroke-width="0.7398" stroke-miterlimit="10"/>
<path d="M1411.35 -67.2459C1357.77 -88.2921 1076.41 215.09 860.122 -49.0291C643.811 -313.186 521.209 -386.44 289.855 -209.827C52.5304 -28.6628 -73.8924 -153.328 -570.75 -139.706C-904.89 -129.82 -1205.44 -0.586451 -1530.29 -248.356" stroke="white" stroke-opacity="0.1" stroke-width="0.7469" stroke-miterlimit="10"/>
<path d="M1410.9 -77.0518C1353.49 -99.5984 1065.38 210.917 848.818 -44.7408C632.258 -300.398 515.709 -393.92 283.656 -221.836C45.082 -44.9293 -81.7221 -140.231 -581.71 -127.741C-917.274 -118.629 -1212.27 -20.7661 -1529.23 -265.56" stroke="white" stroke-opacity="0.1" stroke-width="0.7539" stroke-miterlimit="10"/>
<path d="M1410.44 -86.8291C1349.19 -110.876 1054.32 206.734 837.515 -40.4525C620.714 -287.639 510.17 -401.38 277.449 -233.817C37.6623 -61.1872 -89.4944 -127.116 -592.633 -115.796C-929.65 -107.467 -1219.03 -40.9571 -1528.18 -282.736" stroke="white" stroke-opacity="0.1" stroke-width="0.761" stroke-miterlimit="10"/>
<path d="M1410.02 -96.6264C1344.94 -122.174 1043.29 202.532 826.241 -36.1555C609.153 -274.823 504.67 -408.86 271.25 -245.826C30.214 -77.4536 -97.2869 -114.039 -603.585 -103.86C-942.063 -96.2849 -1225.89 -61.1455 -1527.15 -299.92" stroke="white" stroke-opacity="0.1" stroke-width="0.768" stroke-miterlimit="10"/>
<path d="M1409.57 -106.432C1340.65 -133.48 1032.27 198.33 814.937 -31.8671C597.601 -262.035 499.103 -416.329 265.051 -257.835C22.7742 -93.7489 -105.088 -100.934 -614.536 -91.9237C-954.411 -85.1139 -1232.69 -81.3452 -1526.09 -317.124" stroke="white" stroke-opacity="0.1" stroke-width="0.7751" stroke-miterlimit="10"/>
<path d="M1409.12 -116.238C1336.4 -144.778 1021.21 194.119 803.634 -27.5788C586.028 -249.285 493.544 -423.826 258.852 -269.844C15.306 -110.053 -112.88 -87.8565 -625.488 -79.9874C-966.815 -73.9602 -1239.48 -101.545 -1525.06 -334.337" stroke="white" stroke-opacity="0.1" stroke-width="0.7821" stroke-miterlimit="10"/>
<path d="M1408.68 -126.007C1332.13 -156.047 1010.21 189.954 792.351 -23.2528C574.467 -236.469 487.986 -431.324 252.644 -281.825C7.82887 -126.328 -120.69 -74.7221 -636.456 -67.9938C-979.208 -62.7406 -1246.32 -121.696 -1524.01 -351.484" stroke="white" stroke-opacity="0.1" stroke-width="0.7892" stroke-miterlimit="10"/>
<path d="M1408.23 -135.813C1327.86 -167.382 999.153 185.743 781.048 -18.9646C562.915 -223.681 482.428 -438.821 246.436 -293.805C0.360586 -142.632 -128.491 -61.6164 -647.408 -56.0576C-991.584 -51.5783 -1253.14 -141.904 -1522.99 -368.669" stroke="white" stroke-opacity="0.1" stroke-width="0.7962" stroke-miterlimit="10"/>
<path d="M1407.78 -145.618C1323.6 -178.651 988.127 181.541 769.745 -14.6762C551.362 -210.894 476.87 -446.318 240.237 -305.815C-7.108 -158.935 -136.283 -48.5395 -658.36 -44.1214C-1003.96 -40.416 -1259.94 -162.075 -1521.93 -385.873" stroke="white" stroke-opacity="0.1" stroke-width="0.8033" stroke-miterlimit="10"/>
<path d="M1407.35 -155.387C1319.31 -189.957 977.094 177.368 758.433 -10.359C539.781 -198.114 471.292 -453.853 234.039 -317.824C-14.5961 -175.276 -144.084 -35.4336 -669.311 -32.1851C-1016.36 -29.2622 -1266.76 -182.283 -1520.9 -403.086" stroke="white" stroke-opacity="0.1" stroke-width="0.8103" stroke-miterlimit="10"/>
<path d="M1406.9 -165.193C1315.03 -201.263 966.068 173.166 747.13 -6.0706C528.229 -185.327 465.705 -461.359 227.831 -329.804C-22.0932 -191.589 -151.856 -22.3193 -680.271 -20.2202C-1028.76 -18.0426 -1273.57 -202.454 -1519.84 -420.261" stroke="white" stroke-opacity="0.1" stroke-width="0.8173" stroke-miterlimit="10"/>
<path d="M1406.48 -174.99C1310.77 -212.561 955.043 168.963 735.864 -1.80238C516.676 -172.539 460.127 -468.894 221.632 -341.813C-29.5817 -207.93 -159.657 -9.21367 -691.223 -8.28401C-1041.13 -6.8803 -1280.37 -222.625 -1518.79 -437.437" stroke="white" stroke-opacity="0.1" stroke-width="0.8244" stroke-miterlimit="10"/>
<path d="M1406.03 -184.796C1306.49 -223.867 944.018 164.761 724.552 2.51467C505.124 -159.752 454.528 -476.466 215.424 -353.794C-37.0787 -224.243 -167.458 3.89194 -702.183 3.6808C-1053.52 4.3106 -1287.2 -242.805 -1517.77 -454.621" stroke="white" stroke-opacity="0.1" stroke-width="0.8314" stroke-miterlimit="10"/>
<path d="M1405.57 -194.573C1302.22 -235.136 932.956 160.579 713.249 6.80312C493.571 -146.964 448.922 -484.009 209.225 -365.803C-44.587 -240.621 -175.259 16.9977 -713.134 15.6171C-1065.92 15.4643 -1294.02 -263.014 -1516.74 -471.834" stroke="white" stroke-opacity="0.1" stroke-width="0.8385" stroke-miterlimit="10"/>
<path d="M1405.14 -204.37C1297.98 -246.462 921.93 156.377 701.975 11.1002C482.019 -134.176 443.323 -491.581 203.055 -377.803C-52.0668 -256.991 -183.023 30.0835 -724.057 27.5621C-1078.28 26.664 -1300.82 -283.185 -1515.65 -489.001" stroke="white" stroke-opacity="0.1" stroke-width="0.8455" stroke-miterlimit="10"/>
<path d="M1404.69 -214.176C1293.68 -257.74 910.905 152.174 690.671 15.3885C470.438 -121.397 437.725 -499.153 196.847 -389.784C-59.5753 -273.369 -190.833 43.2177 -735.017 39.5269C-1090.65 37.8263 -1307.62 -303.384 -1514.63 -506.185" stroke="white" stroke-opacity="0.1" stroke-width="0.8526" stroke-miterlimit="10"/>
<path d="M1404.24 -223.982C1289.41 -269.075 899.88 147.972 679.368 19.6769C458.885 -108.61 432.107 -506.762 190.62 -401.802C-67.1409 -289.765 -198.654 56.2861 -745.998 51.4544C-1103.04 49.0172 -1314.45 -323.564 -1513.58 -523.361" stroke="white" stroke-opacity="0.1" stroke-width="0.8596" stroke-miterlimit="10"/>
<path d="M1403.81 -233.75C1285.15 -280.344 888.846 143.799 668.094 23.974C447.333 -95.822 426.517 -514.363 184.449 -413.802C-74.6406 -306.172 -206.426 69.4006 -756.929 63.4281C-1115.41 60.1797 -1321.24 -343.764 -1512.55 -540.574" stroke="white" stroke-opacity="0.1" stroke-width="0.8667" stroke-miterlimit="10"/>
<path d="M1403.36 -243.556C1280.86 -291.65 877.792 139.588 656.782 28.291C435.78 -83.0345 420.89 -521.944 178.242 -425.783C-82.1691 -322.588 -214.227 82.5062 -767.881 75.3642C-1127.83 71.3619 -1328.07 -363.943 -1511.49 -557.75" stroke="white" stroke-opacity="0.1" stroke-width="0.8737" stroke-miterlimit="10"/>
<path d="M1402.91 -253.362C1276.61 -302.948 866.767 135.386 645.479 32.5796C424.228 -70.2467 415.281 -529.582 172.043 -437.792C-89.6975 -339.004 -222.028 95.612 -778.841 87.3292C-1140.21 82.553 -1334.87 -384.143 -1510.44 -574.925" stroke="white" stroke-opacity="0.1" stroke-width="0.8808" stroke-miterlimit="10"/>
<path d="M1402.47 -263.131C1272.34 -314.217 855.733 131.212 634.204 36.8765C412.647 -57.4678 409.671 -537.22 165.835 -449.772C-97.2174 -355.448 -229.829 108.718 -789.792 99.2655C-1152.59 93.7153 -1341.7 -404.323 -1509.41 -592.138" stroke="white" stroke-opacity="0.1" stroke-width="0.8878" stroke-miterlimit="10"/>
<path d="M1402.02 -272.937C1268.06 -325.523 844.708 127.01 622.901 41.1649C401.094 -44.6802 404.033 -544.866 159.636 -461.782C-104.757 -371.93 -237.593 121.803 -800.715 111.21C-1164.97 104.906 -1348.5 -424.494 -1508.36 -609.314" stroke="white" stroke-opacity="0.1" stroke-width="0.8949" stroke-miterlimit="10"/>
<path d="M1401.57 -282.743C1263.77 -336.83 833.654 122.799 611.598 45.4533C389.542 -31.8925 398.424 -552.504 153.437 -473.791C-112.268 -388.403 -245.394 134.909 -811.667 123.147C-1177.35 116.069 -1355.32 -444.702 -1507.33 -626.498" stroke="white" stroke-opacity="0.1" stroke-width="0.9019" stroke-miterlimit="10"/>
<path d="M1401.15 -292.54C1259.52 -348.127 822.657 118.606 600.323 49.7503C377.99 -19.105 392.802 -560.209 147.238 -485.8C-119.808 -404.885 -253.186 147.986 -822.618 135.083C-1189.73 127.259 -1362.12 -464.873 -1506.27 -643.702" stroke="white" stroke-opacity="0.1" stroke-width="0.9089" stroke-miterlimit="10"/>
<path d="M1400.69 -302.317C1255.23 -359.434 811.595 114.423 589.012 54.0674C366.428 -6.28861 387.193 -567.846 141.03 -497.78C-127.348 -421.367 -260.996 161.12 -833.578 147.048C-1202.11 138.422 -1368.92 -485.073 -1505.22 -660.878" stroke="white" stroke-opacity="0.1" stroke-width="0.916" stroke-miterlimit="10"/>
<path d="M1400.27 -312.114C1250.98 -370.731 800.57 110.221 577.709 58.3558C354.847 6.49043 381.572 -575.551 134.823 -509.761C-134.888 -437.849 -268.797 174.226 -844.539 159.013C-1214.49 149.613 -1375.75 -505.252 -1504.2 -678.062" stroke="white" stroke-opacity="0.1" stroke-width="0.923" stroke-miterlimit="10"/>
<path d="M1399.82 -321.92C1246.72 -382.029 789.544 106.019 566.434 62.6529C343.324 19.2867 375.98 -583.246 128.652 -521.762C-142.381 -454.379 -276.569 187.34 -855.461 170.957C-1226.9 160.766 -1382.55 -525.423 -1503.13 -695.267" stroke="white" stroke-opacity="0.1" stroke-width="0.9301" stroke-miterlimit="10"/>
<path d="M1399.36 -331.726C1242.44 -393.335 778.519 101.817 555.131 66.9411C331.742 32.0656 370.367 -590.979 122.424 -533.779C-149.924 -470.956 -284.39 200.409 -866.442 182.885C-1239.28 171.957 -1389.37 -545.632 -1502.11 -712.451" stroke="white" stroke-opacity="0.1" stroke-width="0.9371" stroke-miterlimit="10"/>
<path d="M1398.93 -341.495C1238.18 -404.604 767.485 97.6432 543.847 71.2669C320.19 44.8532 364.755 -598.711 116.217 -545.76C-157.455 -487.466 -292.191 213.514 -877.402 194.85C-1251.66 183.12 -1396.18 -565.803 -1501.06 -729.626" stroke="white" stroke-opacity="0.1" stroke-width="0.9442" stroke-miterlimit="10"/>
<path d="M1398.48 -351.3C1233.89 -415.911 756.46 93.441 532.553 75.5265C308.637 57.6408 359.143 -606.444 110.047 -557.76C-164.94 -504.025 -299.963 226.629 -888.325 206.795C-1264.04 194.311 -1403 -586.011 -1500 -746.831" stroke="white" stroke-opacity="0.1" stroke-width="0.9512" stroke-miterlimit="10"/>
<path d="M1398.03 -361.106C1229.64 -427.208 745.435 89.2388 521.241 79.8437C297.085 70.4285 353.471 -614.602 103.839 -569.741C-172.533 -521.055 -307.764 239.734 -899.285 218.76C-1276.43 205.502 -1409.8 -606.182 -1498.97 -764.015" stroke="white" stroke-opacity="0.1" stroke-width="0.9583" stroke-miterlimit="10"/>
<path d="M1397.6 -370.875C1225.35 -438.514 734.401 85.0653 509.967 84.1408C285.533 83.2162 347.93 -622.156 97.6401 -581.75C-179.976 -537.445 -315.537 252.849 -910.236 230.696C-1288.8 216.664 -1416.63 -626.362 -1497.92 -781.191" stroke="white" stroke-opacity="0.1" stroke-width="0.9653" stroke-miterlimit="10"/>
<path d="M1397.15 -380.681C1221.07 -449.821 723.347 80.8544 498.663 88.4291C273.98 96.0037 342.389 -629.711 91.4409 -593.759C-187.427 -553.806 -323.329 265.926 -921.188 242.632C-1301.19 227.855 -1423.42 -646.561 -1496.89 -798.404" stroke="white" stroke-opacity="0.1" stroke-width="0.9724" stroke-miterlimit="10"/>
<g filter="url(#filter0_d_19_4218)">
<rect x="65" y="65" width="60" height="60" rx="30" transform="rotate(180 65 65)" fill="url(#paint0_linear_19_4218)"/>
<rect x="64.25" y="64.25" width="58.5" height="58.5" rx="29.25" transform="rotate(180 64.25 64.25)" stroke="#2EECC5" stroke-opacity="0.5" stroke-width="1.5"/>
</g>
<g filter="url(#filter1_d_19_4218)">
<rect x="69.25" y="69.25" width="68.5" height="68.5" rx="34.25" transform="rotate(180 69.25 69.25)" stroke="#153630" stroke-width="1.5" shape-rendering="crispEdges"/>
</g>
<path d="M43.0607 36.0607C43.6464 35.4749 43.6464 34.5251 43.0607 33.9393L33.5147 24.3934C32.9289 23.8076 31.9792 23.8076 31.3934 24.3934C30.8076 24.9792 30.8076 25.9289 31.3934 26.5147L39.8787 35L31.3934 43.4853C30.8076 44.0711 30.8076 45.0208 31.3934 45.6066C31.9792 46.1924 32.9289 46.1924 33.5147 45.6066L43.0607 36.0607ZM41 36.5H42V33.5H41V36.5Z" fill="#2C8E7A"/>
</g>
<defs>
<filter id="filter0_d_19_4218" x="-101" y="-101" width="272" height="272" filterUnits="userSpaceOnUse" color-interpolation-filters="sRGB">
<feFlood flood-opacity="0" result="BackgroundImageFix"/>
<feColorMatrix in="SourceAlpha" type="matrix" values="0 0 0 0 0 0 0 0 0 0 0 0 0 0 0 0 0 0 127 0" result="hardAlpha"/>
<feOffset/>
<feGaussianBlur stdDeviation="53"/>
<feComposite in2="hardAlpha" operator="out"/>
<feColorMatrix type="matrix" values="0 0 0 0 0.180392 0 0 0 0 0.92549 0 0 0 0 0.772549 0 0 0 0.1 0"/>
<feBlend mode="normal" in2="BackgroundImageFix" result="effect1_dropShadow_19_4218"/>
<feBlend mode="normal" in="SourceGraphic" in2="effect1_dropShadow_19_4218" result="shape"/>
</filter>
<filter id="filter1_d_19_4218" x="-106" y="-106" width="282" height="282" filterUnits="userSpaceOnUse" color-interpolation-filters="sRGB">
<feFlood flood-opacity="0" result="BackgroundImageFix"/>
<feColorMatrix in="SourceAlpha" type="matrix" values="0 0 0 0 0 0 0 0 0 0 0 0 0 0 0 0 0 0 127 0" result="hardAlpha"/>
<feOffset/>
<feGaussianBlur stdDeviation="53"/>
<feComposite in2="hardAlpha" operator="out"/>
<feColorMatrix type="matrix" values="0 0 0 0 0.180392 0 0 0 0 0.92549 0 0 0 0 0.772549 0 0 0 0.1 0"/>
<feBlend mode="normal" in2="BackgroundImageFix" result="effect1_dropShadow_19_4218"/>
<feBlend mode="normal" in="SourceGraphic" in2="effect1_dropShadow_19_4218" result="shape"/>
</filter>
<linearGradient id="paint0_linear_19_4218" x1="82" y1="73" x2="95" y2="125" gradientUnits="userSpaceOnUse">
<stop stop-color="#19201F"/>
<stop offset="1" stop-color="#323939"/>
</linearGradient>
<clipPath id="clip0_19_4218">
<rect width="1920" height="4905" fill="white" transform="translate(-1201 -2757)"/>
</clipPath>
</defs>
</svg>
