<svg width="1920" height="954" viewBox="0 0 1920 954" fill="none" xmlns="http://www.w3.org/2000/svg">
<g clip-path="url(#clip0_19_4218)">
<path d="M-343.886 696.269C90.915 986.032 469.462 417.715 783.557 397.026C1236.22 367.224 1356.62 902.647 1577.63 662.14C1798.63 421.634 2006.6 211.805 2219.21 594.824C2431.82 977.843 2618.53 773.898 2618.53 773.898" stroke="white" stroke-opacity="0.1" stroke-width="0.6482" stroke-miterlimit="10"/>
<path d="M2618.11 764.072C2614.28 762.572 2420.83 973.621 2207.95 599.092C1995.06 224.564 1793.1 414.051 1571.47 650.111C1349.21 886.266 1228.43 380.301 772.643 408.943C457.086 428.877 84.1127 965.861 -342.862 679.085" stroke="white" stroke-opacity="0.1" stroke-width="0.6553" stroke-miterlimit="10"/>
<path d="M2617.65 754.295C2609.99 751.294 2409.77 969.439 2196.63 603.409C1983.5 237.38 1787.55 406.525 1565.26 638.131C1341.75 869.933 1220.62 393.407 761.683 420.907C444.701 440.068 77.2906 945.652 -341.81 661.909" stroke="white" stroke-opacity="0.1" stroke-width="0.6623" stroke-miterlimit="10"/>
<path d="M2617.23 744.498C2605.73 739.997 2398.77 965.245 2185.36 607.706C1971.94 250.167 1782.01 398.97 1559.05 626.15C1334.26 853.592 1212.82 406.541 750.723 432.872C432.325 451.231 70.4883 925.481 -340.777 644.696" stroke="white" stroke-opacity="0.1" stroke-width="0.6694" stroke-miterlimit="10"/>
<path d="M2616.78 734.692C2601.48 728.699 2387.72 961.035 2174.06 611.995C1960.39 262.955 1776.97 391.941 1552.85 614.141C1327.31 837.728 1205.05 419.627 739.763 444.837C419.941 462.422 63.6574 905.302 -339.725 627.521" stroke="white" stroke-opacity="0.1" stroke-width="0.6764" stroke-miterlimit="10"/>
<path d="M2616.32 724.915C2597.19 717.393 2376.69 956.861 2162.74 616.312C1948.84 275.743 1771.52 384.507 1546.64 602.161C1319.97 821.525 1197.24 432.761 728.811 456.773C407.565 473.584 56.8638 885.102 -338.672 610.345" stroke="white" stroke-opacity="0.1" stroke-width="0.6835" stroke-miterlimit="10"/>
<path d="M2615.9 715.118C2592.94 706.095 2365.66 952.659 2151.47 620.609C1937.29 288.53 1766.09 377.081 1540.44 590.151C1312.61 805.284 1189.45 445.838 717.86 468.71C395.181 484.775 50.0329 864.922 -337.64 593.132" stroke="white" stroke-opacity="0.1" stroke-width="0.6905" stroke-miterlimit="10"/>
<path d="M2615.44 705.312C2588.65 694.789 2354.64 948.457 2140.18 624.869C1925.71 301.281 1760.64 369.648 1534.25 578.142C1305.25 789.044 1181.65 458.944 706.908 480.646C382.796 495.966 43.2394 844.723 -336.588 575.957" stroke="white" stroke-opacity="0.1" stroke-width="0.6976" stroke-miterlimit="10"/>
<path d="M2614.99 695.506C2584.37 683.482 2343.58 944.246 2128.87 629.157C1914.15 314.097 1755.16 362.205 1528.04 566.162C1297.88 772.832 1173.85 472.05 695.948 492.611C370.392 507.12 36.4085 824.543 -335.564 558.772" stroke="white" stroke-opacity="0.1" stroke-width="0.7046" stroke-miterlimit="10"/>
<path d="M2614.56 685.737C2580.1 672.213 2332.58 940.081 2117.59 633.483C1902.6 326.885 1749.7 354.799 1521.84 554.153C1290.51 756.592 1166.06 485.127 684.996 504.547C358.007 518.311 29.6149 804.343 -334.503 541.568" stroke="white" stroke-opacity="0.1" stroke-width="0.7117" stroke-miterlimit="10"/>
<path d="M2614.11 675.931C2575.82 660.907 2321.52 935.87 2106.29 637.771C1891.05 339.672 1744.22 347.357 1515.64 542.143C1283.12 740.342 1158.25 498.232 674.065 516.521C345.66 529.482 22.8127 784.172 -333.45 524.392" stroke="white" stroke-opacity="0.1" stroke-width="0.7187" stroke-miterlimit="10"/>
<path d="M2613.66 666.126C2571.56 649.609 2310.5 931.668 2094.98 642.06C1879.5 352.46 1738.74 339.914 1509.43 530.163C1275.73 724.093 1150.48 511.347 663.113 528.457C333.247 540.664 15.9818 763.992 -332.426 507.208" stroke="white" stroke-opacity="0.1" stroke-width="0.7257" stroke-miterlimit="10"/>
<path d="M2613.24 656.328C2567.31 638.312 2299.47 927.466 2083.71 646.357C1867.94 365.247 1733.23 332.462 1503.23 518.154C1268.31 707.835 1142.65 524.444 652.133 540.384C320.871 551.826 9.18823 743.793 -331.365 490.004" stroke="white" stroke-opacity="0.1" stroke-width="0.7328" stroke-miterlimit="10"/>
<path d="M2612.78 646.551C2563.03 627.005 2288.44 923.292 2072.4 650.674C1856.35 378.055 1727.72 325.011 1497.03 506.173C1260.91 691.615 1134.85 537.549 641.173 552.349C308.486 563.017 2.35731 723.613 -330.342 472.82" stroke="white" stroke-opacity="0.1" stroke-width="0.7398" stroke-miterlimit="10"/>
<path d="M2612.35 636.754C2558.77 615.708 2277.41 919.09 2061.12 654.971C1844.81 390.814 1722.21 317.56 1490.86 494.173C1253.53 675.337 1127.11 550.672 630.25 564.294C296.11 574.18 -4.43623 703.414 -329.289 455.644" stroke="white" stroke-opacity="0.1" stroke-width="0.7469" stroke-miterlimit="10"/>
<path d="M2611.9 626.948C2554.49 604.402 2266.38 914.917 2049.82 659.259C1833.26 403.602 1716.71 310.08 1484.66 482.164C1246.08 659.071 1119.28 563.769 619.29 576.259C283.726 585.371 -11.2671 683.234 -328.228 438.44" stroke="white" stroke-opacity="0.1" stroke-width="0.7539" stroke-miterlimit="10"/>
<path d="M2611.44 617.171C2550.19 593.124 2255.32 910.734 2038.52 663.548C1821.71 416.361 1711.17 302.62 1478.45 470.183C1238.66 642.813 1111.51 576.884 608.367 588.204C271.35 596.533 -18.032 663.043 -327.176 421.264" stroke="white" stroke-opacity="0.1" stroke-width="0.761" stroke-miterlimit="10"/>
<path d="M2611.02 607.374C2545.94 581.826 2244.29 906.532 2027.24 667.845C1810.15 429.177 1705.67 295.14 1472.25 458.174C1231.21 626.546 1103.71 589.961 597.415 600.14C258.937 607.715 -24.8916 642.854 -326.152 404.08" stroke="white" stroke-opacity="0.1" stroke-width="0.768" stroke-miterlimit="10"/>
<path d="M2610.57 597.568C2541.65 570.52 2233.27 902.33 2015.94 672.133C1798.6 441.965 1700.1 287.671 1466.05 446.165C1223.77 610.251 1095.91 603.066 586.464 612.076C246.589 618.886 -31.6851 622.655 -325.091 386.876" stroke="white" stroke-opacity="0.1" stroke-width="0.7751" stroke-miterlimit="10"/>
<path d="M2610.12 587.762C2537.4 559.222 2222.21 898.119 2004.63 676.421C1787.03 454.715 1694.54 280.174 1459.85 434.156C1216.31 593.947 1088.12 616.144 575.512 624.013C234.185 630.04 -38.4787 602.455 -324.058 369.663" stroke="white" stroke-opacity="0.1" stroke-width="0.7821" stroke-miterlimit="10"/>
<path d="M2609.68 577.993C2533.13 547.953 2211.21 893.954 1993.35 680.747C1775.47 467.531 1688.99 272.676 1453.64 422.175C1208.83 577.672 1080.31 629.278 564.544 636.006C221.792 641.259 -45.3182 582.304 -323.014 352.516" stroke="white" stroke-opacity="0.1" stroke-width="0.7892" stroke-miterlimit="10"/>
<path d="M2609.23 568.187C2528.86 536.618 2200.15 889.743 1982.05 685.035C1763.91 480.319 1683.43 265.179 1447.44 410.195C1201.36 561.368 1072.51 642.384 553.592 647.942C209.416 652.422 -52.1405 562.096 -321.991 335.331" stroke="white" stroke-opacity="0.1" stroke-width="0.7962" stroke-miterlimit="10"/>
<path d="M2608.78 558.382C2524.6 525.349 2189.13 885.541 1970.74 689.324C1752.36 493.106 1677.87 257.682 1441.24 398.185C1193.89 545.065 1064.72 655.461 542.64 659.879C197.04 663.584 -58.9428 541.925 -320.929 318.127" stroke="white" stroke-opacity="0.1" stroke-width="0.8033" stroke-miterlimit="10"/>
<path d="M2608.35 548.613C2520.31 514.043 2178.09 881.368 1959.43 693.641C1740.78 505.886 1672.29 250.147 1435.04 386.176C1186.4 528.724 1056.92 668.566 531.689 671.815C184.635 674.738 -65.765 521.717 -319.897 300.914" stroke="white" stroke-opacity="0.1" stroke-width="0.8103" stroke-miterlimit="10"/>
<path d="M2607.9 538.807C2516.03 502.737 2167.07 877.166 1948.13 697.929C1729.23 518.673 1666.7 242.641 1428.83 374.196C1178.91 512.411 1049.14 681.681 520.729 683.78C172.242 685.957 -72.5672 501.546 -318.845 283.739" stroke="white" stroke-opacity="0.1" stroke-width="0.8173" stroke-miterlimit="10"/>
<path d="M2607.48 529.01C2511.77 491.439 2156.04 872.963 1936.86 702.198C1717.68 531.461 1661.13 235.106 1422.63 362.187C1171.42 496.07 1041.34 694.786 509.777 695.716C159.866 697.12 -79.3694 481.375 -317.792 266.563" stroke="white" stroke-opacity="0.1" stroke-width="0.8244" stroke-miterlimit="10"/>
<path d="M2607.03 519.204C2507.49 480.133 2145.02 868.761 1925.55 706.515C1706.12 544.248 1655.53 227.534 1416.42 350.206C1163.92 479.757 1033.54 707.892 498.817 707.681C147.482 708.311 -86.2003 461.195 -316.768 249.379" stroke="white" stroke-opacity="0.1" stroke-width="0.8314" stroke-miterlimit="10"/>
<path d="M2606.57 509.427C2503.22 468.864 2133.96 864.579 1914.25 710.803C1694.57 557.036 1649.92 219.991 1410.23 338.197C1156.41 463.379 1025.74 720.998 487.866 719.617C135.077 719.464 -93.0226 440.986 -315.736 232.166" stroke="white" stroke-opacity="0.1" stroke-width="0.8385" stroke-miterlimit="10"/>
<path d="M2606.14 499.63C2498.98 457.538 2122.93 860.377 1902.97 715.1C1683.02 569.824 1644.32 212.419 1404.05 326.197C1148.93 447.009 1017.98 734.083 476.943 731.562C122.721 730.664 -99.8248 420.815 -314.655 214.999" stroke="white" stroke-opacity="0.1" stroke-width="0.8455" stroke-miterlimit="10"/>
<path d="M2605.69 489.824C2494.68 446.26 2111.9 856.174 1891.67 719.389C1671.44 582.603 1638.73 204.847 1397.85 314.216C1141.42 430.631 1010.17 747.218 465.983 743.527C110.346 741.826 -106.618 400.616 -313.631 197.815" stroke="white" stroke-opacity="0.1" stroke-width="0.8526" stroke-miterlimit="10"/>
<path d="M2605.24 480.018C2490.41 434.925 2100.88 851.972 1880.37 723.677C1659.89 595.39 1633.11 197.238 1391.62 302.198C1133.86 414.235 1002.35 760.286 455.002 755.454C97.961 753.017 -113.449 380.436 -312.578 180.639" stroke="white" stroke-opacity="0.1" stroke-width="0.8596" stroke-miterlimit="10"/>
<path d="M2604.81 470.25C2486.15 423.656 2089.85 847.799 1869.09 727.974C1648.33 608.178 1627.52 189.637 1385.45 290.198C1126.36 397.828 994.574 773.401 444.071 767.428C85.5852 764.18 -120.243 360.236 -311.546 163.426" stroke="white" stroke-opacity="0.1" stroke-width="0.8667" stroke-miterlimit="10"/>
<path d="M2604.36 460.444C2481.86 412.35 2078.79 843.588 1857.78 732.291C1636.78 620.966 1621.89 182.056 1379.24 278.217C1118.83 381.412 986.773 786.506 433.119 779.364C73.172 775.362 -127.074 340.057 -310.494 146.25" stroke="white" stroke-opacity="0.1" stroke-width="0.8737" stroke-miterlimit="10"/>
<path d="M2603.91 450.638C2477.61 401.052 2067.77 839.386 1846.48 736.58C1625.23 633.753 1616.28 174.418 1373.04 266.208C1111.3 364.996 978.972 799.612 422.159 791.329C60.7875 786.553 -133.867 319.857 -309.441 129.075" stroke="white" stroke-opacity="0.1" stroke-width="0.8808" stroke-miterlimit="10"/>
<path d="M2603.47 440.869C2473.34 389.783 2056.73 835.212 1835.2 740.877C1613.65 646.532 1610.67 166.78 1366.83 254.228C1103.78 348.552 971.171 812.718 411.208 803.265C48.4115 797.715 -140.698 299.677 -308.409 111.862" stroke="white" stroke-opacity="0.1" stroke-width="0.8878" stroke-miterlimit="10"/>
<path d="M2603.02 431.063C2469.06 378.477 2045.71 831.01 1823.9 745.165C1602.09 659.32 1605.03 159.134 1360.64 242.218C1096.24 332.07 963.407 825.803 400.285 815.21C36.027 808.906 -147.5 279.506 -307.356 94.6862" stroke="white" stroke-opacity="0.1" stroke-width="0.8949" stroke-miterlimit="10"/>
<path d="M2602.57 421.257C2464.77 367.17 2034.65 826.799 1812.6 749.453C1590.54 672.107 1599.42 151.496 1354.44 230.209C1088.73 315.597 955.606 838.909 389.333 827.147C23.6512 820.069 -154.323 259.298 -306.332 77.5019" stroke="white" stroke-opacity="0.1" stroke-width="0.9019" stroke-miterlimit="10"/>
<path d="M2602.15 411.46C2460.52 355.873 2023.66 822.606 1801.32 753.75C1578.99 684.895 1593.8 143.791 1348.24 218.2C1081.19 299.115 947.814 851.986 378.382 839.083C11.2666 831.259 -161.125 239.127 -305.271 60.2976" stroke="white" stroke-opacity="0.1" stroke-width="0.9089" stroke-miterlimit="10"/>
<path d="M2601.69 401.683C2456.23 344.566 2012.59 818.423 1790.01 758.067C1567.43 697.711 1588.19 136.154 1342.03 206.22C1073.65 282.633 940.004 865.12 367.422 851.048C-1.10922 842.422 -167.918 218.927 -304.219 43.122" stroke="white" stroke-opacity="0.1" stroke-width="0.916" stroke-miterlimit="10"/>
<path d="M2601.27 391.886C2451.98 333.269 2001.57 814.221 1778.71 762.356C1555.85 710.49 1582.57 128.449 1335.82 194.239C1066.11 266.151 932.203 878.226 356.461 863.013C-13.4938 853.613 -174.749 198.748 -303.195 25.9378" stroke="white" stroke-opacity="0.1" stroke-width="0.923" stroke-miterlimit="10"/>
<path d="M2600.82 382.08C2447.72 321.971 1990.54 810.019 1767.43 766.653C1544.32 723.287 1576.98 120.754 1329.65 182.238C1058.62 249.621 924.431 891.34 345.539 874.957C-25.8983 864.766 -181.552 178.577 -302.134 8.73345" stroke="white" stroke-opacity="0.1" stroke-width="0.9301" stroke-miterlimit="10"/>
<path d="M2600.36 372.274C2443.44 310.665 1979.52 805.817 1756.13 770.941C1532.74 736.066 1571.37 113.021 1323.42 170.221C1051.08 233.044 916.61 904.409 334.558 886.885C-38.2829 875.957 -188.374 158.368 -301.11 -8.45085" stroke="white" stroke-opacity="0.1" stroke-width="0.9371" stroke-miterlimit="10"/>
<path d="M2599.93 362.505C2439.18 299.396 1968.49 801.643 1744.85 775.267C1521.19 748.853 1565.76 105.289 1317.22 158.24C1043.54 216.534 908.809 917.514 323.598 898.85C-50.6588 887.12 -195.176 138.197 -300.058 -25.6264" stroke="white" stroke-opacity="0.1" stroke-width="0.9442" stroke-miterlimit="10"/>
<path d="M2599.48 352.7C2434.89 288.089 1957.46 797.441 1733.55 779.527C1509.64 761.641 1560.14 97.5558 1311.05 146.24C1036.06 199.975 901.037 930.629 312.675 910.795C-63.0432 898.311 -201.998 117.989 -298.997 -42.8308" stroke="white" stroke-opacity="0.1" stroke-width="0.9512" stroke-miterlimit="10"/>
<path d="M2599.03 342.894C2430.64 276.792 1946.43 793.239 1722.24 783.844C1498.09 774.428 1554.47 89.3983 1304.84 134.259C1028.47 182.945 893.236 943.734 301.715 922.76C-75.4278 909.502 -208.8 97.8179 -297.973 -60.015" stroke="white" stroke-opacity="0.1" stroke-width="0.9583" stroke-miterlimit="10"/>
<path d="M2598.6 333.125C2426.35 265.486 1935.4 789.065 1710.97 788.141C1486.53 787.216 1548.93 81.8437 1298.64 122.25C1021.02 166.555 885.463 956.849 290.764 934.696C-87.8036 920.664 -215.631 77.6383 -296.92 -77.1906" stroke="white" stroke-opacity="0.1" stroke-width="0.9653" stroke-miterlimit="10"/>
<path d="M2598.15 323.319C2422.07 254.179 1924.35 784.854 1699.66 792.429C1474.98 800.004 1543.39 74.289 1292.44 110.241C1013.57 150.194 877.671 969.926 279.812 946.632C-100.188 931.855 -222.425 57.4386 -295.888 -94.4036" stroke="white" stroke-opacity="0.1" stroke-width="0.9724" stroke-miterlimit="10"/>
<path d="M3139.93 -293.751C2614.18 100.283 2099.61 -586.789 1703.89 -590.864C1133.62 -596.736 1019.58 83.8351 725.477 -202.732C431.401 -489.27 155.771 -738.177 -84.5506 -242.549C-324.873 253.079 -573.37 10.0737 -573.37 10.0737" stroke="white" stroke-opacity="0.1" stroke-width="0.6687" stroke-miterlimit="10"/>
<path d="M-573.46 1.3552C-570.136 -0.172763 -315.29 248.855 -74.3089 -239.284C166.672 -727.392 435.952 -496.25 730.418 -213.698C1025.42 68.915 1141.23 -585.501 1714.23 -580.798C2111.17 -577.472 2619.27 82.0375 3138.16 -308.97" stroke="white" stroke-opacity="0.1" stroke-width="0.6738" stroke-miterlimit="10"/>
<path d="M-573.55 -7.3631C-566.902 -10.419 -305.707 244.571 -64.0671 -236.018C177.573 -716.606 440.504 -503.231 735.329 -224.663C1031.23 53.9949 1148.77 -574.236 1724.53 -570.731C2122.7 -568.154 2624.3 63.7619 3136.39 -324.22" stroke="white" stroke-opacity="0.1" stroke-width="0.679" stroke-miterlimit="10"/>
<path d="M-573.64 -16.0814C-563.667 -20.6653 -296.094 240.316 -53.8254 -232.752C188.443 -705.82 445.056 -510.212 740.24 -235.628C1037.04 39.1049 1156.35 -562.971 1734.86 -560.664C2134.26 -558.867 2629.4 45.4565 3134.63 -339.44" stroke="white" stroke-opacity="0.1" stroke-width="0.6841" stroke-miterlimit="10"/>
<path d="M-573.729 -24.8297C-560.433 -30.9116 -286.511 236.002 -43.5836 -229.516C199.344 -695.035 449.608 -517.222 745.152 -246.594C1042.88 24.2148 1163.9 -551.736 1745.16 -550.568C2145.82 -549.519 2634.43 27.2108 3132.83 -354.629" stroke="white" stroke-opacity="0.1" stroke-width="0.6893" stroke-miterlimit="10"/>
<path d="M-573.819 -33.5482C-557.199 -41.158 -276.928 231.748 -33.3418 -226.251C210.244 -684.249 453.621 -523.574 750.063 -257.559C1048.12 9.92387 1171.44 -540.471 1755.46 -540.501C2157.35 -540.202 2639.49 8.93516 3131.06 -369.849" stroke="white" stroke-opacity="0.1" stroke-width="0.6944" stroke-miterlimit="10"/>
<path d="M-573.909 -42.2665C-553.935 -51.4043 -267.345 227.493 -23.1 -222.985C221.145 -673.464 458.083 -530.435 755.004 -268.524C1053.87 -4.87639 1179.05 -529.206 1765.79 -530.435C2168.91 -530.884 2644.55 -9.34046 3129.3 -385.099" stroke="white" stroke-opacity="0.1" stroke-width="0.6996" stroke-miterlimit="10"/>
<path d="M-573.999 -50.9847C-550.7 -61.6505 -257.732 223.209 -12.8583 -219.72C232.016 -662.648 462.545 -537.296 759.915 -279.49C1059.59 -19.6466 1186.6 -517.971 1776.1 -520.368C2180.44 -521.596 2649.61 -27.616 3127.53 -400.318" stroke="white" stroke-opacity="0.1" stroke-width="0.7047" stroke-miterlimit="10"/>
<path d="M-574.089 -59.7032C-547.466 -71.8969 -248.149 218.955 -2.61647 -216.454C242.916 -651.863 467.037 -544.156 764.827 -290.455C1065.34 -34.4169 1194.17 -506.706 1786.43 -510.272C2192.03 -512.249 2654.7 -45.8617 3125.76 -415.508" stroke="white" stroke-opacity="0.1" stroke-width="0.7099" stroke-miterlimit="10"/>
<path d="M-574.149 -68.4216C-544.202 -82.1432 -238.536 214.7 7.65514 -213.188C253.847 -641.077 471.529 -551.017 769.768 -301.391C1071.09 -49.1872 1201.75 -495.411 1796.73 -500.175C2203.55 -502.901 2659.73 -64.1074 3123.99 -430.728" stroke="white" stroke-opacity="0.1" stroke-width="0.715" stroke-miterlimit="10"/>
<path d="M-574.238 -77.17C-540.968 -92.4196 -228.923 210.386 17.897 -209.953C264.747 -630.291 476.021 -557.908 774.679 -312.386C1076.84 -63.9875 1209.33 -484.206 1807.06 -490.139C2215.11 -493.614 2664.82 -82.4129 3122.23 -445.978" stroke="white" stroke-opacity="0.1" stroke-width="0.7201" stroke-miterlimit="10"/>
<path d="M-574.328 -85.8883C-537.733 -102.666 -219.341 206.132 28.1387 -206.687C275.618 -619.506 480.513 -564.769 779.59 -323.351C1082.56 -78.7878 1216.87 -472.941 1817.36 -480.042C2226.64 -484.266 2669.85 -100.659 3120.46 -461.167" stroke="white" stroke-opacity="0.1" stroke-width="0.7253" stroke-miterlimit="10"/>
<path d="M-574.418 -94.6065C-534.499 -112.882 -209.758 201.848 38.3805 -203.421C286.519 -608.72 484.975 -571.66 784.532 -334.317C1088.34 -93.588 1224.45 -461.677 1827.69 -469.975C2238.2 -474.979 2674.95 -118.964 3118.69 -476.387" stroke="white" stroke-opacity="0.1" stroke-width="0.7304" stroke-miterlimit="10"/>
<path d="M-574.508 -103.325C-531.265 -123.129 -200.145 197.593 48.6222 -200.156C297.389 -597.905 489.497 -578.521 789.443 -345.252C1094.09 -108.328 1232.02 -450.412 1838 -459.879C2249.76 -465.631 2679.98 -137.21 3116.9 -491.607" stroke="white" stroke-opacity="0.1" stroke-width="0.7356" stroke-miterlimit="10"/>
<path d="M-574.598 -112.043C-528.031 -133.375 -190.562 193.339 58.864 -196.89C308.29 -587.119 493.989 -585.381 794.354 -356.217C1099.87 -123.129 1239.57 -439.147 1848.3 -449.812C2261.29 -456.314 2685.04 -155.485 3115.13 -506.826" stroke="white" stroke-opacity="0.1" stroke-width="0.7407" stroke-miterlimit="10"/>
<path d="M-578.221 -478.454C-391.923 -563.78 212.43 13.9384 489.168 -60.0029C765.875 -133.944 686.426 -878.72 1000.99 -816.763C1345.37 -748.933 1557.43 33.5921 2281.54 -26.6874C2746.4 -64.9463 2897.63 -922.881 3040.77 -1146.05" stroke="white" stroke-opacity="0.1" stroke-width="0.9568" stroke-miterlimit="10"/>
<path d="M-578.311 -487.172C-388.689 -574.027 222.043 9.68413 499.409 -56.7372C776.775 -123.129 691.038 -885.85 1005.9 -827.728C1351.21 -763.973 1564.97 44.8572 2291.84 -16.5907C2757.93 -55.5986 2902.69 -941.126 3039.01 -1161.24" stroke="white" stroke-opacity="0.1" stroke-width="0.9619" stroke-miterlimit="10"/>
<path d="M-578.401 -495.921C-385.455 -584.303 231.626 5.36989 509.651 -53.5015C787.676 -112.373 695.62 -893.011 1010.81 -838.723C1357.08 -779.073 1572.52 56.0622 2302.14 -6.55424C2769.49 -46.3112 2907.72 -959.432 3037.21 -1176.52" stroke="white" stroke-opacity="0.1" stroke-width="0.967" stroke-miterlimit="10"/>
<path d="M-578.491 -504.639C-382.22 -594.549 241.209 1.1156 519.893 -50.2358C798.577 -101.587 700.232 -900.141 1015.75 -849.659C1362.95 -794.113 1580.09 67.357 2312.47 3.54222C2781.05 -36.9937 2912.81 -977.678 3035.47 -1191.71" stroke="white" stroke-opacity="0.1" stroke-width="0.9722" stroke-miterlimit="10"/>
<path d="M-578.581 -513.358C-378.986 -604.795 250.822 -3.16881 530.135 -46.9703C809.477 -90.7718 704.813 -907.272 1020.66 -860.624C1368.82 -809.213 1587.67 78.6221 2322.8 13.6089C2792.61 -27.676 2917.87 -995.953 3033.71 -1206.93" stroke="white" stroke-opacity="0.1" stroke-width="0.9773" stroke-miterlimit="10"/>
<path d="M-578.671 -522.076C-375.752 -615.042 260.405 -7.42288 540.376 -43.7044C820.348 -79.986 709.425 -914.432 1025.57 -871.589C1374.69 -824.282 1595.25 89.8572 2333.1 23.7056C2804.13 -18.3283 2922.93 -1014.2 3031.94 -1222.15" stroke="white" stroke-opacity="0.1" stroke-width="0.9825" stroke-miterlimit="10"/>
<path d="M-578.76 -530.794C-372.518 -625.288 269.988 -11.6774 550.618 -40.439C831.248 -69.2006 714.067 -922.132 1030.48 -882.555C1380.62 -840.011 1602.79 101.122 2343.41 33.772C2815.66 -9.01089 2927.96 -1032.47 3030.14 -1237.37" stroke="white" stroke-opacity="0.1" stroke-width="0.9876" stroke-miterlimit="10"/>
<path d="M-578.85 -539.513C-369.284 -635.505 279.571 -15.9617 560.86 -37.1734C842.149 -58.3851 718.619 -929.112 1035.39 -893.49C1386.46 -854.902 1610.37 112.387 2353.74 43.8384C2827.25 0.276538 2933.06 -1050.75 3028.41 -1252.59" stroke="white" stroke-opacity="0.1" stroke-width="0.9928" stroke-miterlimit="10"/>
<path d="M-578.94 -548.261C-366.049 -645.781 289.184 -20.2459 571.102 -33.9376C853.02 -47.6293 723.171 -936.123 1040.31 -904.485C1392.24 -869.822 1617.92 123.622 2364.01 53.905C2838.75 9.59412 2938.06 -1069.03 3026.58 -1267.81" stroke="white" stroke-opacity="0.1" stroke-width="0.9979" stroke-miterlimit="10"/>
<path d="M-579 -556.979C-362.785 -656.027 298.797 -24.5002 581.373 -30.672C863.95 -36.8437 727.783 -943.104 1045.28 -915.451C1398.11 -884.712 1625.52 134.887 2374.37 64.0017C2850.34 18.9419 2943.18 -1087.3 3024.84 -1283" stroke="white" stroke-opacity="0.1" stroke-width="1.0031" stroke-miterlimit="10"/>
<g filter="url(#filter0_d_19_4218)">
<rect x="325" y="-477" width="400" height="400" rx="6" fill="url(#paint0_linear_19_4218)"/>
<rect x="325.5" y="-476.5" width="399" height="399" rx="5.5" stroke="url(#paint1_linear_19_4218)" stroke-opacity="0.2"/>
</g>
<g filter="url(#filter1_d_19_4218)">
<rect x="760" y="-477" width="400" height="400" rx="6" fill="url(#paint2_linear_19_4218)"/>
<rect x="760.5" y="-476.5" width="399" height="399" rx="5.5" stroke="url(#paint3_linear_19_4218)" stroke-opacity="0.2"/>
</g>
<g filter="url(#filter2_d_19_4218)">
<rect x="1195" y="-477" width="400" height="400" rx="6" fill="url(#paint4_linear_19_4218)"/>
<rect x="1195.5" y="-476.5" width="399" height="399" rx="5.5" stroke="url(#paint5_linear_19_4218)" stroke-opacity="0.2"/>
</g>
</g>
<defs>
<filter id="filter0_d_19_4218" x="245" y="-557" width="560" height="560" filterUnits="userSpaceOnUse" color-interpolation-filters="sRGB">
<feFlood flood-opacity="0" result="BackgroundImageFix"/>
<feColorMatrix in="SourceAlpha" type="matrix" values="0 0 0 0 0 0 0 0 0 0 0 0 0 0 0 0 0 0 127 0" result="hardAlpha"/>
<feOffset/>
<feGaussianBlur stdDeviation="40"/>
<feComposite in2="hardAlpha" operator="out"/>
<feColorMatrix type="matrix" values="0 0 0 0 0.172549 0 0 0 0 0.172549 0 0 0 0 0.176471 0 0 0 0.35 0"/>
<feBlend mode="normal" in2="BackgroundImageFix" result="effect1_dropShadow_19_4218"/>
<feBlend mode="normal" in="SourceGraphic" in2="effect1_dropShadow_19_4218" result="shape"/>
</filter>
<filter id="filter1_d_19_4218" x="680" y="-557" width="560" height="560" filterUnits="userSpaceOnUse" color-interpolation-filters="sRGB">
<feFlood flood-opacity="0" result="BackgroundImageFix"/>
<feColorMatrix in="SourceAlpha" type="matrix" values="0 0 0 0 0 0 0 0 0 0 0 0 0 0 0 0 0 0 127 0" result="hardAlpha"/>
<feOffset/>
<feGaussianBlur stdDeviation="40"/>
<feComposite in2="hardAlpha" operator="out"/>
<feColorMatrix type="matrix" values="0 0 0 0 0.172549 0 0 0 0 0.172549 0 0 0 0 0.176471 0 0 0 0.35 0"/>
<feBlend mode="normal" in2="BackgroundImageFix" result="effect1_dropShadow_19_4218"/>
<feBlend mode="normal" in="SourceGraphic" in2="effect1_dropShadow_19_4218" result="shape"/>
</filter>
<filter id="filter2_d_19_4218" x="1115" y="-557" width="560" height="560" filterUnits="userSpaceOnUse" color-interpolation-filters="sRGB">
<feFlood flood-opacity="0" result="BackgroundImageFix"/>
<feColorMatrix in="SourceAlpha" type="matrix" values="0 0 0 0 0 0 0 0 0 0 0 0 0 0 0 0 0 0 127 0" result="hardAlpha"/>
<feOffset/>
<feGaussianBlur stdDeviation="40"/>
<feComposite in2="hardAlpha" operator="out"/>
<feColorMatrix type="matrix" values="0 0 0 0 0.172549 0 0 0 0 0.172549 0 0 0 0 0.176471 0 0 0 0.35 0"/>
<feBlend mode="normal" in2="BackgroundImageFix" result="effect1_dropShadow_19_4218"/>
<feBlend mode="normal" in="SourceGraphic" in2="effect1_dropShadow_19_4218" result="shape"/>
</filter>
<linearGradient id="paint0_linear_19_4218" x1="369.364" y1="-440.303" x2="676.61" y2="-79.7663" gradientUnits="userSpaceOnUse">
<stop stop-color="#303134"/>
<stop offset="0.519792" stop-color="#282828"/>
<stop offset="0.927909" stop-color="#282828"/>
</linearGradient>
<linearGradient id="paint1_linear_19_4218" x1="330" y1="-470" x2="725" y2="-77" gradientUnits="userSpaceOnUse">
<stop stop-color="white"/>
<stop offset="1" stop-color="white" stop-opacity="0"/>
</linearGradient>
<linearGradient id="paint2_linear_19_4218" x1="804.364" y1="-440.303" x2="1111.61" y2="-79.7663" gradientUnits="userSpaceOnUse">
<stop stop-color="#303134"/>
<stop offset="0.519792" stop-color="#282828"/>
<stop offset="0.927909" stop-color="#282828"/>
</linearGradient>
<linearGradient id="paint3_linear_19_4218" x1="760" y1="-471" x2="1160" y2="-77" gradientUnits="userSpaceOnUse">
<stop stop-color="white"/>
<stop offset="1" stop-color="white" stop-opacity="0"/>
</linearGradient>
<linearGradient id="paint4_linear_19_4218" x1="1239.36" y1="-440.303" x2="1546.61" y2="-79.7663" gradientUnits="userSpaceOnUse">
<stop stop-color="#303134"/>
<stop offset="0.519792" stop-color="#282828"/>
<stop offset="0.927909" stop-color="#282828"/>
</linearGradient>
<linearGradient id="paint5_linear_19_4218" x1="1203" y1="-470" x2="1577" y2="-71" gradientUnits="userSpaceOnUse">
<stop stop-color="white"/>
<stop offset="1" stop-color="white" stop-opacity="0"/>
</linearGradient>
<clipPath id="clip0_19_4218">
<rect width="1920" height="4905" fill="white" transform="translate(0 -2053)"/>
</clipPath>
</defs>
</svg>
